<?xml version="1.0"?>
<svg xmlns="http://www.w3.org/2000/svg" xmlns:xlink="http://www.w3.org/1999/xlink" viewBox="0 0 478.000000 228.000000" width="239.000000mm" height="114.000000mm" version="1.1">
<defs>
   <filter id="filter" filterRes="18" x="0" y="0">
     <feGaussianBlur in="SourceGraphic" stdDeviation="1.55" result="blur"/>
     <feOffset in="blur" dx="3" dy="3"/>
   </filter>
</defs>
<a xlink:href="process.svg">
<rect x="1.000000" y="1.000000" width="477.000000" height="227.000000" rx="0.1" ry="0.1" style="stroke:none;fill:#aaaaaa;;filter:url(#filter);"/>
<rect x="0.000000" y="0.000000" width="477.000000" height="227.000000" rx="0" ry="0" style="stroke:none;fill:#ffffff;"/>
</a>
<text x="10.000000" y="7.000000" font-family="Arial" font-size="7"></text>
<a xlink:href="osc-0x7fea442b8e10.svg">
<rect x="119.500000" y="25.000000" width="129.000000" height="24.000000" rx="0.1" ry="0.1" style="stroke:none;fill:#aaaaaa;;filter:url(#filter);"/>
<rect x="118.500000" y="24.000000" width="129.000000" height="24.000000" rx="0" ry="0" style="stroke:none;fill:#003366;"/>
</a>
<a xlink:href="osc-0x7fea442b8e10.svg">
<text x="183.000000" y="38.000000" font-family="Arial" font-size="7" text-anchor="middle" fill="#FFFFFF">osc(hgroup(&quot;f...0.999f : *)))</text>
</a>
<circle cx="120.500000" cy="26.000000" r="1"/>
<rect x="51.000000" y="67.000000" width="232.200000" height="24.000000" rx="0.1" ry="0.1" style="stroke:none;fill:#aaaaaa;;filter:url(#filter);"/>
<rect x="50.000000" y="66.000000" width="232.200000" height="24.000000" rx="0" ry="0" style="stroke:none;fill:#477881;"/>
<text x="166.100000" y="80.000000" font-family="Arial" font-size="7" text-anchor="middle" fill="#FFFFFF">vslider(gain0, 0.0f, 0.0f, 1.0f, 0.10000000000000001f)</text>
<circle cx="52.000000" cy="68.000000" r="1"/>
<a xlink:href="smoo-0x7fea44033a80.svg">
<rect x="291.200000" y="67.000000" width="25.800000" height="24.000000" rx="0.1" ry="0.1" style="stroke:none;fill:#aaaaaa;;filter:url(#filter);"/>
<rect x="290.200000" y="66.000000" width="25.800000" height="24.000000" rx="0" ry="0" style="stroke:none;fill:#003366;"/>
</a>
<a xlink:href="smoo-0x7fea44033a80.svg">
<text x="303.100000" y="80.000000" font-family="Arial" font-size="7" text-anchor="middle" fill="#FFFFFF">smoo</text>
</a>
<circle cx="292.200000" cy="68.000000" r="1"/>
<line x1="287.200000" y1="77.000000" x2="290.200000" y2="78.000000"  transform="rotate(0.000000,290.200000,78.000000)" style="stroke: black; stroke-width:0.25;"/>
<line x1="287.200000" y1="79.000000" x2="290.200000" y2="78.000000"  transform="rotate(0.000000,290.200000,78.000000)" style="stroke: black; stroke-width:0.25;"/>
<line x1="41.000000" y1="57.000000" x2="41.000000" y2="99.000000"  style="stroke: black; stroke-linecap:round; stroke-width:0.25; stroke-dasharray:3,3;"/>
<line x1="41.000000" y1="99.000000" x2="325.000000" y2="99.000000"  style="stroke: black; stroke-linecap:round; stroke-width:0.25; stroke-dasharray:3,3;"/>
<line x1="325.000000" y1="99.000000" x2="325.000000" y2="57.000000"  style="stroke: black; stroke-linecap:round; stroke-width:0.25; stroke-dasharray:3,3;"/>
<line x1="41.000000" y1="57.000000" x2="46.000000" y2="57.000000"  style="stroke: black; stroke-linecap:round; stroke-width:0.25; stroke-dasharray:3,3;"/>
<line x1="91.150000" y1="57.000000" x2="325.000000" y2="57.000000"  style="stroke: black; stroke-linecap:round; stroke-width:0.25; stroke-dasharray:3,3;"/>
<text x="46.000000" y="59.000000" font-family="Arial" font-size="7">hgroup(gain)</text>
<rect x="343.000000" y="51.000000" width="24.000000" height="24.000000" rx="0.1" ry="0.1" style="stroke:none;fill:#aaaaaa;;filter:url(#filter);"/>
<rect x="342.000000" y="50.000000" width="24.000000" height="24.000000" rx="0" ry="0" style="stroke:none;fill:#4B71A1;"/>
<text x="354.000000" y="64.000000" font-family="Arial" font-size="7" text-anchor="middle" fill="#FFFFFF">*</text>
<circle cx="344.000000" cy="52.000000" r="1"/>
<line x1="339.000000" y1="57.000000" x2="342.000000" y2="58.000000"  transform="rotate(0.000000,342.000000,58.000000)" style="stroke: black; stroke-width:0.25;"/>
<line x1="339.000000" y1="59.000000" x2="342.000000" y2="58.000000"  transform="rotate(0.000000,342.000000,58.000000)" style="stroke: black; stroke-width:0.25;"/>
<line x1="339.000000" y1="65.000000" x2="342.000000" y2="66.000000"  transform="rotate(0.000000,342.000000,66.000000)" style="stroke: black; stroke-width:0.25;"/>
<line x1="339.000000" y1="67.000000" x2="342.000000" y2="66.000000"  transform="rotate(0.000000,342.000000,66.000000)" style="stroke: black; stroke-width:0.25;"/>
<rect x="103.250000" y="119.000000" width="167.700000" height="24.000000" rx="0.1" ry="0.1" style="stroke:none;fill:#aaaaaa;;filter:url(#filter);"/>
<rect x="102.250000" y="118.000000" width="167.700000" height="24.000000" rx="0" ry="0" style="stroke:none;fill:#477881;"/>
<text x="186.100000" y="132.000000" font-family="Arial" font-size="7" text-anchor="middle" fill="#FFFFFF">nentry(gate0, 0.0f, 0.0f, 1.0f, 1.0f)</text>
<circle cx="104.250000" cy="120.000000" r="1"/>
<a xlink:href="smoo-0x7fea44033a80.svg">
<rect x="278.950000" y="119.000000" width="25.800000" height="24.000000" rx="0.1" ry="0.1" style="stroke:none;fill:#aaaaaa;;filter:url(#filter);"/>
<rect x="277.950000" y="118.000000" width="25.800000" height="24.000000" rx="0" ry="0" style="stroke:none;fill:#003366;"/>
</a>
<a xlink:href="smoo-0x7fea44033a80.svg">
<text x="290.850000" y="132.000000" font-family="Arial" font-size="7" text-anchor="middle" fill="#FFFFFF">smoo</text>
</a>
<circle cx="279.950000" cy="120.000000" r="1"/>
<line x1="274.950000" y1="129.000000" x2="277.950000" y2="130.000000"  transform="rotate(0.000000,277.950000,130.000000)" style="stroke: black; stroke-width:0.25;"/>
<line x1="274.950000" y1="131.000000" x2="277.950000" y2="130.000000"  transform="rotate(0.000000,277.950000,130.000000)" style="stroke: black; stroke-width:0.25;"/>
<line x1="93.250000" y1="109.000000" x2="93.250000" y2="151.000000"  style="stroke: black; stroke-linecap:round; stroke-width:0.25; stroke-dasharray:3,3;"/>
<line x1="93.250000" y1="151.000000" x2="312.750000" y2="151.000000"  style="stroke: black; stroke-linecap:round; stroke-width:0.25; stroke-dasharray:3,3;"/>
<line x1="312.750000" y1="151.000000" x2="312.750000" y2="109.000000"  style="stroke: black; stroke-linecap:round; stroke-width:0.25; stroke-dasharray:3,3;"/>
<line x1="93.250000" y1="109.000000" x2="98.250000" y2="109.000000"  style="stroke: black; stroke-linecap:round; stroke-width:0.25; stroke-dasharray:3,3;"/>
<line x1="143.400000" y1="109.000000" x2="312.750000" y2="109.000000"  style="stroke: black; stroke-linecap:round; stroke-width:0.25; stroke-dasharray:3,3;"/>
<text x="98.250000" y="111.000000" font-family="Arial" font-size="7">hgroup(gate)</text>
<rect x="383.000000" y="77.000000" width="24.000000" height="24.000000" rx="0.1" ry="0.1" style="stroke:none;fill:#aaaaaa;;filter:url(#filter);"/>
<rect x="382.000000" y="76.000000" width="24.000000" height="24.000000" rx="0" ry="0" style="stroke:none;fill:#4B71A1;"/>
<text x="394.000000" y="90.000000" font-family="Arial" font-size="7" text-anchor="middle" fill="#FFFFFF">*</text>
<circle cx="384.000000" cy="78.000000" r="1"/>
<line x1="379.000000" y1="83.000000" x2="382.000000" y2="84.000000"  transform="rotate(0.000000,382.000000,84.000000)" style="stroke: black; stroke-width:0.25;"/>
<line x1="379.000000" y1="85.000000" x2="382.000000" y2="84.000000"  transform="rotate(0.000000,382.000000,84.000000)" style="stroke: black; stroke-width:0.25;"/>
<line x1="379.000000" y1="91.000000" x2="382.000000" y2="92.000000"  transform="rotate(0.000000,382.000000,92.000000)" style="stroke: black; stroke-width:0.25;"/>
<line x1="379.000000" y1="93.000000" x2="382.000000" y2="92.000000"  transform="rotate(0.000000,382.000000,92.000000)" style="stroke: black; stroke-width:0.25;"/>
<a xlink:href="envelope-0x7fea443157f0.svg">
<rect x="204.650000" y="171.000000" width="38.700000" height="24.000000" rx="0.1" ry="0.1" style="stroke:none;fill:#aaaaaa;;filter:url(#filter);"/>
<rect x="203.650000" y="170.000000" width="38.700000" height="24.000000" rx="0" ry="0" style="stroke:none;fill:#003366;"/>
</a>
<a xlink:href="envelope-0x7fea443157f0.svg">
<text x="223.000000" y="184.000000" font-family="Arial" font-size="7" text-anchor="middle" fill="#FFFFFF">envelope</text>
</a>
<circle cx="205.650000" cy="172.000000" r="1"/>
<line x1="200.650000" y1="181.000000" x2="203.650000" y2="182.000000"  transform="rotate(0.000000,203.650000,182.000000)" style="stroke: black; stroke-width:0.25;"/>
<line x1="200.650000" y1="183.000000" x2="203.650000" y2="182.000000"  transform="rotate(0.000000,203.650000,182.000000)" style="stroke: black; stroke-width:0.25;"/>
<line x1="194.650000" y1="161.000000" x2="194.650000" y2="203.000000"  style="stroke: black; stroke-linecap:round; stroke-width:0.25; stroke-dasharray:3,3;"/>
<line x1="194.650000" y1="203.000000" x2="251.350000" y2="203.000000"  style="stroke: black; stroke-linecap:round; stroke-width:0.25; stroke-dasharray:3,3;"/>
<line x1="251.350000" y1="203.000000" x2="251.350000" y2="161.000000"  style="stroke: black; stroke-linecap:round; stroke-width:0.25; stroke-dasharray:3,3;"/>
<line x1="194.650000" y1="161.000000" x2="199.650000" y2="161.000000"  style="stroke: black; stroke-linecap:round; stroke-width:0.25; stroke-dasharray:3,3;"/>
<line x1="251.350000" y1="161.000000" x2="251.350000" y2="161.000000"  style="stroke: black; stroke-linecap:round; stroke-width:0.25; stroke-dasharray:3,3;"/>
<text x="199.650000" y="163.000000" font-family="Arial" font-size="7">hgroup(envelope)</text>
<rect x="423.000000" y="103.000000" width="24.000000" height="24.000000" rx="0.1" ry="0.1" style="stroke:none;fill:#aaaaaa;;filter:url(#filter);"/>
<rect x="422.000000" y="102.000000" width="24.000000" height="24.000000" rx="0" ry="0" style="stroke:none;fill:#4B71A1;"/>
<text x="434.000000" y="116.000000" font-family="Arial" font-size="7" text-anchor="middle" fill="#FFFFFF">*</text>
<circle cx="424.000000" cy="104.000000" r="1"/>
<line x1="419.000000" y1="109.000000" x2="422.000000" y2="110.000000"  transform="rotate(0.000000,422.000000,110.000000)" style="stroke: black; stroke-width:0.25;"/>
<line x1="419.000000" y1="111.000000" x2="422.000000" y2="110.000000"  transform="rotate(0.000000,422.000000,110.000000)" style="stroke: black; stroke-width:0.25;"/>
<line x1="419.000000" y1="117.000000" x2="422.000000" y2="118.000000"  transform="rotate(0.000000,422.000000,118.000000)" style="stroke: black; stroke-width:0.25;"/>
<line x1="419.000000" y1="119.000000" x2="422.000000" y2="118.000000"  transform="rotate(0.000000,422.000000,118.000000)" style="stroke: black; stroke-width:0.25;"/>
<line x1="15.000000" y1="15.000000" x2="15.000000" y2="213.000000"  style="stroke: black; stroke-linecap:round; stroke-width:0.25; stroke-dasharray:3,3;"/>
<line x1="15.000000" y1="213.000000" x2="463.000000" y2="213.000000"  style="stroke: black; stroke-linecap:round; stroke-width:0.25; stroke-dasharray:3,3;"/>
<line x1="463.000000" y1="213.000000" x2="463.000000" y2="15.000000"  style="stroke: black; stroke-linecap:round; stroke-width:0.25; stroke-dasharray:3,3;"/>
<line x1="15.000000" y1="15.000000" x2="20.000000" y2="15.000000"  style="stroke: black; stroke-linecap:round; stroke-width:0.25; stroke-dasharray:3,3;"/>
<line x1="58.700000" y1="15.000000" x2="463.000000" y2="15.000000"  style="stroke: black; stroke-linecap:round; stroke-width:0.25; stroke-dasharray:3,3;"/>
<text x="20.000000" y="17.000000" font-family="Arial" font-size="7">partial(0)</text>
<line x1="465.000000" y1="113.000000" x2="468.000000" y2="114.000000"  transform="rotate(0.000000,468.000000,114.000000)" style="stroke: black; stroke-width:0.25;"/>
<line x1="465.000000" y1="115.000000" x2="468.000000" y2="114.000000"  transform="rotate(0.000000,468.000000,114.000000)" style="stroke: black; stroke-width:0.25;"/>
<line x1="10.000000" y1="114.000000" x2="20.000000" y2="114.000000"  style="stroke:black; stroke-linecap:round; stroke-width:0.25;"/>
<line x1="20.000000" y1="114.000000" x2="24.000000" y2="114.000000"  style="stroke:black; stroke-linecap:round; stroke-width:0.25;"/>
<line x1="24.000000" y1="114.000000" x2="28.000000" y2="114.000000"  style="stroke:black; stroke-linecap:round; stroke-width:0.25;"/>
<line x1="28.000000" y1="114.000000" x2="36.000000" y2="114.000000"  style="stroke:black; stroke-linecap:round; stroke-width:0.25;"/>
<line x1="36.000000" y1="114.000000" x2="36.000000" y2="182.000000"  style="stroke:black; stroke-linecap:round; stroke-width:0.25;"/>
<line x1="36.000000" y1="182.000000" x2="36.000000" y2="182.000000"  style="stroke:black; stroke-linecap:round; stroke-width:0.25;"/>
<line x1="36.000000" y1="182.000000" x2="189.650000" y2="182.000000"  style="stroke:black; stroke-linecap:round; stroke-width:0.25;"/>
<line x1="189.650000" y1="182.000000" x2="199.650000" y2="182.000000"  style="stroke:black; stroke-linecap:round; stroke-width:0.25;"/>
<line x1="199.650000" y1="182.000000" x2="203.650000" y2="182.000000"  style="stroke:black; stroke-linecap:round; stroke-width:0.25;"/>
<line x1="242.350000" y1="182.000000" x2="246.350000" y2="182.000000"  style="stroke:black; stroke-linecap:round; stroke-width:0.25;"/>
<line x1="246.350000" y1="182.000000" x2="256.350000" y2="182.000000"  style="stroke:black; stroke-linecap:round; stroke-width:0.25;"/>
<line x1="247.500000" y1="36.000000" x2="251.500000" y2="36.000000"  style="stroke:black; stroke-linecap:round; stroke-width:0.25;"/>
<line x1="251.500000" y1="36.000000" x2="330.000000" y2="36.000000"  style="stroke:black; stroke-linecap:round; stroke-width:0.25;"/>
<line x1="256.350000" y1="182.000000" x2="410.000000" y2="182.000000"  style="stroke:black; stroke-linecap:round; stroke-width:0.25;"/>
<line x1="269.950000" y1="130.000000" x2="273.950000" y2="130.000000"  style="stroke:black; stroke-linecap:round; stroke-width:0.25;"/>
<line x1="273.950000" y1="130.000000" x2="273.950000" y2="130.000000"  style="stroke:black; stroke-linecap:round; stroke-width:0.25;"/>
<line x1="273.950000" y1="130.000000" x2="277.950000" y2="130.000000"  style="stroke:black; stroke-linecap:round; stroke-width:0.25;"/>
<line x1="282.200000" y1="78.000000" x2="286.200000" y2="78.000000"  style="stroke:black; stroke-linecap:round; stroke-width:0.25;"/>
<line x1="286.200000" y1="78.000000" x2="286.200000" y2="78.000000"  style="stroke:black; stroke-linecap:round; stroke-width:0.25;"/>
<line x1="286.200000" y1="78.000000" x2="290.200000" y2="78.000000"  style="stroke:black; stroke-linecap:round; stroke-width:0.25;"/>
<line x1="303.750000" y1="130.000000" x2="307.750000" y2="130.000000"  style="stroke:black; stroke-linecap:round; stroke-width:0.25;"/>
<line x1="307.750000" y1="130.000000" x2="317.750000" y2="130.000000"  style="stroke:black; stroke-linecap:round; stroke-width:0.25;"/>
<line x1="316.000000" y1="78.000000" x2="320.000000" y2="78.000000"  style="stroke:black; stroke-linecap:round; stroke-width:0.25;"/>
<line x1="317.750000" y1="130.000000" x2="370.000000" y2="130.000000"  style="stroke:black; stroke-linecap:round; stroke-width:0.25;"/>
<line x1="320.000000" y1="78.000000" x2="330.000000" y2="78.000000"  style="stroke:black; stroke-linecap:round; stroke-width:0.25;"/>
<line x1="330.000000" y1="36.000000" x2="338.000000" y2="36.000000"  style="stroke:black; stroke-linecap:round; stroke-width:0.25;"/>
<line x1="330.000000" y1="66.000000" x2="338.000000" y2="66.000000"  style="stroke:black; stroke-linecap:round; stroke-width:0.25;"/>
<line x1="330.000000" y1="78.000000" x2="330.000000" y2="66.000000"  style="stroke:black; stroke-linecap:round; stroke-width:0.25;"/>
<line x1="330.000000" y1="78.000000" x2="330.000000" y2="78.000000"  style="stroke:black; stroke-linecap:round; stroke-width:0.25;"/>
<line x1="338.000000" y1="36.000000" x2="338.000000" y2="58.000000"  style="stroke:black; stroke-linecap:round; stroke-width:0.25;"/>
<line x1="338.000000" y1="58.000000" x2="338.000000" y2="58.000000"  style="stroke:black; stroke-linecap:round; stroke-width:0.25;"/>
<line x1="338.000000" y1="58.000000" x2="342.000000" y2="58.000000"  style="stroke:black; stroke-linecap:round; stroke-width:0.25;"/>
<line x1="338.000000" y1="66.000000" x2="342.000000" y2="66.000000"  style="stroke:black; stroke-linecap:round; stroke-width:0.25;"/>
<line x1="366.000000" y1="62.000000" x2="370.000000" y2="62.000000"  style="stroke:black; stroke-linecap:round; stroke-width:0.25;"/>
<line x1="370.000000" y1="62.000000" x2="378.000000" y2="62.000000"  style="stroke:black; stroke-linecap:round; stroke-width:0.25;"/>
<line x1="370.000000" y1="92.000000" x2="378.000000" y2="92.000000"  style="stroke:black; stroke-linecap:round; stroke-width:0.25;"/>
<line x1="370.000000" y1="130.000000" x2="370.000000" y2="92.000000"  style="stroke:black; stroke-linecap:round; stroke-width:0.25;"/>
<line x1="370.000000" y1="130.000000" x2="370.000000" y2="130.000000"  style="stroke:black; stroke-linecap:round; stroke-width:0.25;"/>
<line x1="378.000000" y1="62.000000" x2="378.000000" y2="84.000000"  style="stroke:black; stroke-linecap:round; stroke-width:0.25;"/>
<line x1="378.000000" y1="84.000000" x2="378.000000" y2="84.000000"  style="stroke:black; stroke-linecap:round; stroke-width:0.25;"/>
<line x1="378.000000" y1="84.000000" x2="382.000000" y2="84.000000"  style="stroke:black; stroke-linecap:round; stroke-width:0.25;"/>
<line x1="378.000000" y1="92.000000" x2="382.000000" y2="92.000000"  style="stroke:black; stroke-linecap:round; stroke-width:0.25;"/>
<line x1="406.000000" y1="88.000000" x2="410.000000" y2="88.000000"  style="stroke:black; stroke-linecap:round; stroke-width:0.25;"/>
<line x1="410.000000" y1="88.000000" x2="418.000000" y2="88.000000"  style="stroke:black; stroke-linecap:round; stroke-width:0.25;"/>
<line x1="410.000000" y1="118.000000" x2="418.000000" y2="118.000000"  style="stroke:black; stroke-linecap:round; stroke-width:0.25;"/>
<line x1="410.000000" y1="182.000000" x2="410.000000" y2="118.000000"  style="stroke:black; stroke-linecap:round; stroke-width:0.25;"/>
<line x1="410.000000" y1="182.000000" x2="410.000000" y2="182.000000"  style="stroke:black; stroke-linecap:round; stroke-width:0.25;"/>
<line x1="418.000000" y1="88.000000" x2="418.000000" y2="110.000000"  style="stroke:black; stroke-linecap:round; stroke-width:0.25;"/>
<line x1="418.000000" y1="110.000000" x2="418.000000" y2="110.000000"  style="stroke:black; stroke-linecap:round; stroke-width:0.25;"/>
<line x1="418.000000" y1="110.000000" x2="422.000000" y2="110.000000"  style="stroke:black; stroke-linecap:round; stroke-width:0.25;"/>
<line x1="418.000000" y1="118.000000" x2="422.000000" y2="118.000000"  style="stroke:black; stroke-linecap:round; stroke-width:0.25;"/>
<line x1="446.000000" y1="114.000000" x2="450.000000" y2="114.000000"  style="stroke:black; stroke-linecap:round; stroke-width:0.25;"/>
<line x1="450.000000" y1="114.000000" x2="450.000000" y2="114.000000"  style="stroke:black; stroke-linecap:round; stroke-width:0.25;"/>
<line x1="450.000000" y1="114.000000" x2="454.000000" y2="114.000000"  style="stroke:black; stroke-linecap:round; stroke-width:0.25;"/>
<line x1="454.000000" y1="114.000000" x2="458.000000" y2="114.000000"  style="stroke:black; stroke-linecap:round; stroke-width:0.25;"/>
<line x1="458.000000" y1="114.000000" x2="468.000000" y2="114.000000"  style="stroke:black; stroke-linecap:round; stroke-width:0.25;"/>
</svg>
