<?xml version="1.0"?>
<svg xmlns="http://www.w3.org/2000/svg" xmlns:xlink="http://www.w3.org/1999/xlink" viewBox="0 0 490.900000 228.000000" width="245.450000mm" height="114.000000mm" version="1.1">
<defs>
   <filter id="filter" filterRes="18" x="0" y="0">
     <feGaussianBlur in="SourceGraphic" stdDeviation="1.55" result="blur"/>
     <feOffset in="blur" dx="3" dy="3"/>
   </filter>
</defs>
<a xlink:href="process.svg">
<rect x="1.000000" y="1.000000" width="489.900000" height="227.000000" rx="0.1" ry="0.1" style="stroke:none;fill:#aaaaaa;;filter:url(#filter);"/>
<rect x="0.000000" y="0.000000" width="489.900000" height="227.000000" rx="0" ry="0" style="stroke:none;fill:#ffffff;"/>
</a>
<text x="10.000000" y="7.000000" font-family="Arial" font-size="7"></text>
<a xlink:href="osc-0x7fea44322620.svg">
<rect x="125.950000" y="25.000000" width="129.000000" height="24.000000" rx="0.1" ry="0.1" style="stroke:none;fill:#aaaaaa;;filter:url(#filter);"/>
<rect x="124.950000" y="24.000000" width="129.000000" height="24.000000" rx="0" ry="0" style="stroke:none;fill:#003366;"/>
</a>
<a xlink:href="osc-0x7fea44322620.svg">
<text x="189.450000" y="38.000000" font-family="Arial" font-size="7" text-anchor="middle" fill="#FFFFFF">osc(hgroup(&quot;f...0.999f : *)))</text>
</a>
<circle cx="126.950000" cy="26.000000" r="1"/>
<rect x="51.000000" y="67.000000" width="245.100000" height="24.000000" rx="0.1" ry="0.1" style="stroke:none;fill:#aaaaaa;;filter:url(#filter);"/>
<rect x="50.000000" y="66.000000" width="245.100000" height="24.000000" rx="0" ry="0" style="stroke:none;fill:#477881;"/>
<text x="172.550000" y="80.000000" font-family="Arial" font-size="7" text-anchor="middle" fill="#FFFFFF">vslider(gain14, 0.0f, 0.0f, 1.0f, 0.10000000000000001f)</text>
<circle cx="52.000000" cy="68.000000" r="1"/>
<a xlink:href="smoo-0x7fea44033a80.svg">
<rect x="304.100000" y="67.000000" width="25.800000" height="24.000000" rx="0.1" ry="0.1" style="stroke:none;fill:#aaaaaa;;filter:url(#filter);"/>
<rect x="303.100000" y="66.000000" width="25.800000" height="24.000000" rx="0" ry="0" style="stroke:none;fill:#003366;"/>
</a>
<a xlink:href="smoo-0x7fea44033a80.svg">
<text x="316.000000" y="80.000000" font-family="Arial" font-size="7" text-anchor="middle" fill="#FFFFFF">smoo</text>
</a>
<circle cx="305.100000" cy="68.000000" r="1"/>
<line x1="300.100000" y1="77.000000" x2="303.100000" y2="78.000000"  transform="rotate(0.000000,303.100000,78.000000)" style="stroke: black; stroke-width:0.25;"/>
<line x1="300.100000" y1="79.000000" x2="303.100000" y2="78.000000"  transform="rotate(0.000000,303.100000,78.000000)" style="stroke: black; stroke-width:0.25;"/>
<line x1="41.000000" y1="57.000000" x2="41.000000" y2="99.000000"  style="stroke: black; stroke-linecap:round; stroke-width:0.25; stroke-dasharray:3,3;"/>
<line x1="41.000000" y1="99.000000" x2="337.900000" y2="99.000000"  style="stroke: black; stroke-linecap:round; stroke-width:0.25; stroke-dasharray:3,3;"/>
<line x1="337.900000" y1="99.000000" x2="337.900000" y2="57.000000"  style="stroke: black; stroke-linecap:round; stroke-width:0.25; stroke-dasharray:3,3;"/>
<line x1="41.000000" y1="57.000000" x2="46.000000" y2="57.000000"  style="stroke: black; stroke-linecap:round; stroke-width:0.25; stroke-dasharray:3,3;"/>
<line x1="91.150000" y1="57.000000" x2="337.900000" y2="57.000000"  style="stroke: black; stroke-linecap:round; stroke-width:0.25; stroke-dasharray:3,3;"/>
<text x="46.000000" y="59.000000" font-family="Arial" font-size="7">hgroup(gain)</text>
<rect x="355.900000" y="51.000000" width="24.000000" height="24.000000" rx="0.1" ry="0.1" style="stroke:none;fill:#aaaaaa;;filter:url(#filter);"/>
<rect x="354.900000" y="50.000000" width="24.000000" height="24.000000" rx="0" ry="0" style="stroke:none;fill:#4B71A1;"/>
<text x="366.900000" y="64.000000" font-family="Arial" font-size="7" text-anchor="middle" fill="#FFFFFF">*</text>
<circle cx="356.900000" cy="52.000000" r="1"/>
<line x1="351.900000" y1="57.000000" x2="354.900000" y2="58.000000"  transform="rotate(0.000000,354.900000,58.000000)" style="stroke: black; stroke-width:0.25;"/>
<line x1="351.900000" y1="59.000000" x2="354.900000" y2="58.000000"  transform="rotate(0.000000,354.900000,58.000000)" style="stroke: black; stroke-width:0.25;"/>
<line x1="351.900000" y1="65.000000" x2="354.900000" y2="66.000000"  transform="rotate(0.000000,354.900000,66.000000)" style="stroke: black; stroke-width:0.25;"/>
<line x1="351.900000" y1="67.000000" x2="354.900000" y2="66.000000"  transform="rotate(0.000000,354.900000,66.000000)" style="stroke: black; stroke-width:0.25;"/>
<rect x="109.700000" y="119.000000" width="167.700000" height="24.000000" rx="0.1" ry="0.1" style="stroke:none;fill:#aaaaaa;;filter:url(#filter);"/>
<rect x="108.700000" y="118.000000" width="167.700000" height="24.000000" rx="0" ry="0" style="stroke:none;fill:#477881;"/>
<text x="192.550000" y="132.000000" font-family="Arial" font-size="7" text-anchor="middle" fill="#FFFFFF">nentry(gate14, 0.0f, 0.0f, 1.0f, 1.0f)</text>
<circle cx="110.700000" cy="120.000000" r="1"/>
<a xlink:href="smoo-0x7fea44033a80.svg">
<rect x="285.400000" y="119.000000" width="25.800000" height="24.000000" rx="0.1" ry="0.1" style="stroke:none;fill:#aaaaaa;;filter:url(#filter);"/>
<rect x="284.400000" y="118.000000" width="25.800000" height="24.000000" rx="0" ry="0" style="stroke:none;fill:#003366;"/>
</a>
<a xlink:href="smoo-0x7fea44033a80.svg">
<text x="297.300000" y="132.000000" font-family="Arial" font-size="7" text-anchor="middle" fill="#FFFFFF">smoo</text>
</a>
<circle cx="286.400000" cy="120.000000" r="1"/>
<line x1="281.400000" y1="129.000000" x2="284.400000" y2="130.000000"  transform="rotate(0.000000,284.400000,130.000000)" style="stroke: black; stroke-width:0.25;"/>
<line x1="281.400000" y1="131.000000" x2="284.400000" y2="130.000000"  transform="rotate(0.000000,284.400000,130.000000)" style="stroke: black; stroke-width:0.25;"/>
<line x1="99.700000" y1="109.000000" x2="99.700000" y2="151.000000"  style="stroke: black; stroke-linecap:round; stroke-width:0.25; stroke-dasharray:3,3;"/>
<line x1="99.700000" y1="151.000000" x2="319.200000" y2="151.000000"  style="stroke: black; stroke-linecap:round; stroke-width:0.25; stroke-dasharray:3,3;"/>
<line x1="319.200000" y1="151.000000" x2="319.200000" y2="109.000000"  style="stroke: black; stroke-linecap:round; stroke-width:0.25; stroke-dasharray:3,3;"/>
<line x1="99.700000" y1="109.000000" x2="104.700000" y2="109.000000"  style="stroke: black; stroke-linecap:round; stroke-width:0.25; stroke-dasharray:3,3;"/>
<line x1="149.850000" y1="109.000000" x2="319.200000" y2="109.000000"  style="stroke: black; stroke-linecap:round; stroke-width:0.25; stroke-dasharray:3,3;"/>
<text x="104.700000" y="111.000000" font-family="Arial" font-size="7">hgroup(gate)</text>
<rect x="395.900000" y="77.000000" width="24.000000" height="24.000000" rx="0.1" ry="0.1" style="stroke:none;fill:#aaaaaa;;filter:url(#filter);"/>
<rect x="394.900000" y="76.000000" width="24.000000" height="24.000000" rx="0" ry="0" style="stroke:none;fill:#4B71A1;"/>
<text x="406.900000" y="90.000000" font-family="Arial" font-size="7" text-anchor="middle" fill="#FFFFFF">*</text>
<circle cx="396.900000" cy="78.000000" r="1"/>
<line x1="391.900000" y1="83.000000" x2="394.900000" y2="84.000000"  transform="rotate(0.000000,394.900000,84.000000)" style="stroke: black; stroke-width:0.25;"/>
<line x1="391.900000" y1="85.000000" x2="394.900000" y2="84.000000"  transform="rotate(0.000000,394.900000,84.000000)" style="stroke: black; stroke-width:0.25;"/>
<line x1="391.900000" y1="91.000000" x2="394.900000" y2="92.000000"  transform="rotate(0.000000,394.900000,92.000000)" style="stroke: black; stroke-width:0.25;"/>
<line x1="391.900000" y1="93.000000" x2="394.900000" y2="92.000000"  transform="rotate(0.000000,394.900000,92.000000)" style="stroke: black; stroke-width:0.25;"/>
<a xlink:href="envelope-0x7fea443157f0.svg">
<rect x="211.100000" y="171.000000" width="38.700000" height="24.000000" rx="0.1" ry="0.1" style="stroke:none;fill:#aaaaaa;;filter:url(#filter);"/>
<rect x="210.100000" y="170.000000" width="38.700000" height="24.000000" rx="0" ry="0" style="stroke:none;fill:#003366;"/>
</a>
<a xlink:href="envelope-0x7fea443157f0.svg">
<text x="229.450000" y="184.000000" font-family="Arial" font-size="7" text-anchor="middle" fill="#FFFFFF">envelope</text>
</a>
<circle cx="212.100000" cy="172.000000" r="1"/>
<line x1="207.100000" y1="181.000000" x2="210.100000" y2="182.000000"  transform="rotate(0.000000,210.100000,182.000000)" style="stroke: black; stroke-width:0.25;"/>
<line x1="207.100000" y1="183.000000" x2="210.100000" y2="182.000000"  transform="rotate(0.000000,210.100000,182.000000)" style="stroke: black; stroke-width:0.25;"/>
<line x1="201.100000" y1="161.000000" x2="201.100000" y2="203.000000"  style="stroke: black; stroke-linecap:round; stroke-width:0.25; stroke-dasharray:3,3;"/>
<line x1="201.100000" y1="203.000000" x2="257.800000" y2="203.000000"  style="stroke: black; stroke-linecap:round; stroke-width:0.25; stroke-dasharray:3,3;"/>
<line x1="257.800000" y1="203.000000" x2="257.800000" y2="161.000000"  style="stroke: black; stroke-linecap:round; stroke-width:0.25; stroke-dasharray:3,3;"/>
<line x1="201.100000" y1="161.000000" x2="206.100000" y2="161.000000"  style="stroke: black; stroke-linecap:round; stroke-width:0.25; stroke-dasharray:3,3;"/>
<line x1="257.800000" y1="161.000000" x2="257.800000" y2="161.000000"  style="stroke: black; stroke-linecap:round; stroke-width:0.25; stroke-dasharray:3,3;"/>
<text x="206.100000" y="163.000000" font-family="Arial" font-size="7">hgroup(envelope)</text>
<rect x="435.900000" y="103.000000" width="24.000000" height="24.000000" rx="0.1" ry="0.1" style="stroke:none;fill:#aaaaaa;;filter:url(#filter);"/>
<rect x="434.900000" y="102.000000" width="24.000000" height="24.000000" rx="0" ry="0" style="stroke:none;fill:#4B71A1;"/>
<text x="446.900000" y="116.000000" font-family="Arial" font-size="7" text-anchor="middle" fill="#FFFFFF">*</text>
<circle cx="436.900000" cy="104.000000" r="1"/>
<line x1="431.900000" y1="109.000000" x2="434.900000" y2="110.000000"  transform="rotate(0.000000,434.900000,110.000000)" style="stroke: black; stroke-width:0.25;"/>
<line x1="431.900000" y1="111.000000" x2="434.900000" y2="110.000000"  transform="rotate(0.000000,434.900000,110.000000)" style="stroke: black; stroke-width:0.25;"/>
<line x1="431.900000" y1="117.000000" x2="434.900000" y2="118.000000"  transform="rotate(0.000000,434.900000,118.000000)" style="stroke: black; stroke-width:0.25;"/>
<line x1="431.900000" y1="119.000000" x2="434.900000" y2="118.000000"  transform="rotate(0.000000,434.900000,118.000000)" style="stroke: black; stroke-width:0.25;"/>
<line x1="15.000000" y1="15.000000" x2="15.000000" y2="213.000000"  style="stroke: black; stroke-linecap:round; stroke-width:0.25; stroke-dasharray:3,3;"/>
<line x1="15.000000" y1="213.000000" x2="475.900000" y2="213.000000"  style="stroke: black; stroke-linecap:round; stroke-width:0.25; stroke-dasharray:3,3;"/>
<line x1="475.900000" y1="213.000000" x2="475.900000" y2="15.000000"  style="stroke: black; stroke-linecap:round; stroke-width:0.25; stroke-dasharray:3,3;"/>
<line x1="15.000000" y1="15.000000" x2="20.000000" y2="15.000000"  style="stroke: black; stroke-linecap:round; stroke-width:0.25; stroke-dasharray:3,3;"/>
<line x1="61.925000" y1="15.000000" x2="475.900000" y2="15.000000"  style="stroke: black; stroke-linecap:round; stroke-width:0.25; stroke-dasharray:3,3;"/>
<text x="20.000000" y="17.000000" font-family="Arial" font-size="7">partial(14)</text>
<line x1="477.900000" y1="113.000000" x2="480.900000" y2="114.000000"  transform="rotate(0.000000,480.900000,114.000000)" style="stroke: black; stroke-width:0.25;"/>
<line x1="477.900000" y1="115.000000" x2="480.900000" y2="114.000000"  transform="rotate(0.000000,480.900000,114.000000)" style="stroke: black; stroke-width:0.25;"/>
<line x1="10.000000" y1="114.000000" x2="20.000000" y2="114.000000"  style="stroke:black; stroke-linecap:round; stroke-width:0.25;"/>
<line x1="20.000000" y1="114.000000" x2="24.000000" y2="114.000000"  style="stroke:black; stroke-linecap:round; stroke-width:0.25;"/>
<line x1="24.000000" y1="114.000000" x2="28.000000" y2="114.000000"  style="stroke:black; stroke-linecap:round; stroke-width:0.25;"/>
<line x1="28.000000" y1="114.000000" x2="36.000000" y2="114.000000"  style="stroke:black; stroke-linecap:round; stroke-width:0.25;"/>
<line x1="36.000000" y1="114.000000" x2="36.000000" y2="182.000000"  style="stroke:black; stroke-linecap:round; stroke-width:0.25;"/>
<line x1="36.000000" y1="182.000000" x2="36.000000" y2="182.000000"  style="stroke:black; stroke-linecap:round; stroke-width:0.25;"/>
<line x1="36.000000" y1="182.000000" x2="196.100000" y2="182.000000"  style="stroke:black; stroke-linecap:round; stroke-width:0.25;"/>
<line x1="196.100000" y1="182.000000" x2="206.100000" y2="182.000000"  style="stroke:black; stroke-linecap:round; stroke-width:0.25;"/>
<line x1="206.100000" y1="182.000000" x2="210.100000" y2="182.000000"  style="stroke:black; stroke-linecap:round; stroke-width:0.25;"/>
<line x1="248.800000" y1="182.000000" x2="252.800000" y2="182.000000"  style="stroke:black; stroke-linecap:round; stroke-width:0.25;"/>
<line x1="252.800000" y1="182.000000" x2="262.800000" y2="182.000000"  style="stroke:black; stroke-linecap:round; stroke-width:0.25;"/>
<line x1="253.950000" y1="36.000000" x2="257.950000" y2="36.000000"  style="stroke:black; stroke-linecap:round; stroke-width:0.25;"/>
<line x1="257.950000" y1="36.000000" x2="342.900000" y2="36.000000"  style="stroke:black; stroke-linecap:round; stroke-width:0.25;"/>
<line x1="262.800000" y1="182.000000" x2="422.900000" y2="182.000000"  style="stroke:black; stroke-linecap:round; stroke-width:0.25;"/>
<line x1="276.400000" y1="130.000000" x2="280.400000" y2="130.000000"  style="stroke:black; stroke-linecap:round; stroke-width:0.25;"/>
<line x1="280.400000" y1="130.000000" x2="280.400000" y2="130.000000"  style="stroke:black; stroke-linecap:round; stroke-width:0.25;"/>
<line x1="280.400000" y1="130.000000" x2="284.400000" y2="130.000000"  style="stroke:black; stroke-linecap:round; stroke-width:0.25;"/>
<line x1="295.100000" y1="78.000000" x2="299.100000" y2="78.000000"  style="stroke:black; stroke-linecap:round; stroke-width:0.25;"/>
<line x1="299.100000" y1="78.000000" x2="299.100000" y2="78.000000"  style="stroke:black; stroke-linecap:round; stroke-width:0.25;"/>
<line x1="299.100000" y1="78.000000" x2="303.100000" y2="78.000000"  style="stroke:black; stroke-linecap:round; stroke-width:0.25;"/>
<line x1="310.200000" y1="130.000000" x2="314.200000" y2="130.000000"  style="stroke:black; stroke-linecap:round; stroke-width:0.25;"/>
<line x1="314.200000" y1="130.000000" x2="324.200000" y2="130.000000"  style="stroke:black; stroke-linecap:round; stroke-width:0.25;"/>
<line x1="324.200000" y1="130.000000" x2="382.900000" y2="130.000000"  style="stroke:black; stroke-linecap:round; stroke-width:0.25;"/>
<line x1="328.900000" y1="78.000000" x2="332.900000" y2="78.000000"  style="stroke:black; stroke-linecap:round; stroke-width:0.25;"/>
<line x1="332.900000" y1="78.000000" x2="342.900000" y2="78.000000"  style="stroke:black; stroke-linecap:round; stroke-width:0.25;"/>
<line x1="342.900000" y1="36.000000" x2="350.900000" y2="36.000000"  style="stroke:black; stroke-linecap:round; stroke-width:0.25;"/>
<line x1="342.900000" y1="66.000000" x2="350.900000" y2="66.000000"  style="stroke:black; stroke-linecap:round; stroke-width:0.25;"/>
<line x1="342.900000" y1="78.000000" x2="342.900000" y2="66.000000"  style="stroke:black; stroke-linecap:round; stroke-width:0.25;"/>
<line x1="342.900000" y1="78.000000" x2="342.900000" y2="78.000000"  style="stroke:black; stroke-linecap:round; stroke-width:0.25;"/>
<line x1="350.900000" y1="36.000000" x2="350.900000" y2="58.000000"  style="stroke:black; stroke-linecap:round; stroke-width:0.25;"/>
<line x1="350.900000" y1="58.000000" x2="350.900000" y2="58.000000"  style="stroke:black; stroke-linecap:round; stroke-width:0.25;"/>
<line x1="350.900000" y1="58.000000" x2="354.900000" y2="58.000000"  style="stroke:black; stroke-linecap:round; stroke-width:0.25;"/>
<line x1="350.900000" y1="66.000000" x2="354.900000" y2="66.000000"  style="stroke:black; stroke-linecap:round; stroke-width:0.25;"/>
<line x1="378.900000" y1="62.000000" x2="382.900000" y2="62.000000"  style="stroke:black; stroke-linecap:round; stroke-width:0.25;"/>
<line x1="382.900000" y1="62.000000" x2="390.900000" y2="62.000000"  style="stroke:black; stroke-linecap:round; stroke-width:0.25;"/>
<line x1="382.900000" y1="92.000000" x2="390.900000" y2="92.000000"  style="stroke:black; stroke-linecap:round; stroke-width:0.25;"/>
<line x1="382.900000" y1="130.000000" x2="382.900000" y2="92.000000"  style="stroke:black; stroke-linecap:round; stroke-width:0.25;"/>
<line x1="382.900000" y1="130.000000" x2="382.900000" y2="130.000000"  style="stroke:black; stroke-linecap:round; stroke-width:0.25;"/>
<line x1="390.900000" y1="62.000000" x2="390.900000" y2="84.000000"  style="stroke:black; stroke-linecap:round; stroke-width:0.25;"/>
<line x1="390.900000" y1="84.000000" x2="390.900000" y2="84.000000"  style="stroke:black; stroke-linecap:round; stroke-width:0.25;"/>
<line x1="390.900000" y1="84.000000" x2="394.900000" y2="84.000000"  style="stroke:black; stroke-linecap:round; stroke-width:0.25;"/>
<line x1="390.900000" y1="92.000000" x2="394.900000" y2="92.000000"  style="stroke:black; stroke-linecap:round; stroke-width:0.25;"/>
<line x1="418.900000" y1="88.000000" x2="422.900000" y2="88.000000"  style="stroke:black; stroke-linecap:round; stroke-width:0.25;"/>
<line x1="422.900000" y1="88.000000" x2="430.900000" y2="88.000000"  style="stroke:black; stroke-linecap:round; stroke-width:0.25;"/>
<line x1="422.900000" y1="118.000000" x2="430.900000" y2="118.000000"  style="stroke:black; stroke-linecap:round; stroke-width:0.25;"/>
<line x1="422.900000" y1="182.000000" x2="422.900000" y2="118.000000"  style="stroke:black; stroke-linecap:round; stroke-width:0.25;"/>
<line x1="422.900000" y1="182.000000" x2="422.900000" y2="182.000000"  style="stroke:black; stroke-linecap:round; stroke-width:0.25;"/>
<line x1="430.900000" y1="88.000000" x2="430.900000" y2="110.000000"  style="stroke:black; stroke-linecap:round; stroke-width:0.25;"/>
<line x1="430.900000" y1="110.000000" x2="430.900000" y2="110.000000"  style="stroke:black; stroke-linecap:round; stroke-width:0.25;"/>
<line x1="430.900000" y1="110.000000" x2="434.900000" y2="110.000000"  style="stroke:black; stroke-linecap:round; stroke-width:0.25;"/>
<line x1="430.900000" y1="118.000000" x2="434.900000" y2="118.000000"  style="stroke:black; stroke-linecap:round; stroke-width:0.25;"/>
<line x1="458.900000" y1="114.000000" x2="462.900000" y2="114.000000"  style="stroke:black; stroke-linecap:round; stroke-width:0.25;"/>
<line x1="462.900000" y1="114.000000" x2="462.900000" y2="114.000000"  style="stroke:black; stroke-linecap:round; stroke-width:0.25;"/>
<line x1="462.900000" y1="114.000000" x2="466.900000" y2="114.000000"  style="stroke:black; stroke-linecap:round; stroke-width:0.25;"/>
<line x1="466.900000" y1="114.000000" x2="470.900000" y2="114.000000"  style="stroke:black; stroke-linecap:round; stroke-width:0.25;"/>
<line x1="470.900000" y1="114.000000" x2="480.900000" y2="114.000000"  style="stroke:black; stroke-linecap:round; stroke-width:0.25;"/>
</svg>
