<?xml version="1.0"?>
<svg xmlns="http://www.w3.org/2000/svg" xmlns:xlink="http://www.w3.org/1999/xlink" viewBox="0 0 434.900000 176.000000" width="217.450000mm" height="88.000000mm" version="1.1">
<defs>
   <filter id="filter" filterRes="18" x="0" y="0">
     <feGaussianBlur in="SourceGraphic" stdDeviation="1.55" result="blur"/>
     <feOffset in="blur" dx="3" dy="3"/>
   </filter>
</defs>
<a xlink:href="process.svg">
<rect x="1.000000" y="1.000000" width="433.900000" height="175.000000" rx="0.1" ry="0.1" style="stroke:none;fill:#aaaaaa;;filter:url(#filter);"/>
<rect x="0.000000" y="0.000000" width="433.900000" height="175.000000" rx="0" ry="0" style="stroke:none;fill:#ffffff;"/>
</a>
<text x="10.000000" y="7.000000" font-family="Arial" font-size="7"></text>
<a xlink:href="osc-0x7f49542baec0.svg">
<rect x="109.950000" y="25.000000" width="129.000000" height="24.000000" rx="0.1" ry="0.1" style="stroke:none;fill:#aaaaaa;;filter:url(#filter);"/>
<rect x="108.950000" y="24.000000" width="129.000000" height="24.000000" rx="0" ry="0" style="stroke:none;fill:#003366;"/>
</a>
<a xlink:href="osc-0x7f49542baec0.svg">
<text x="173.450000" y="38.000000" font-family="Arial" font-size="7" text-anchor="middle" fill="#FFFFFF">osc(hgroup(&quot;f...0.999f : *)))</text>
</a>
<circle cx="110.950000" cy="26.000000" r="1"/>
<rect x="35.000000" y="67.000000" width="245.100000" height="24.000000" rx="0.1" ry="0.1" style="stroke:none;fill:#aaaaaa;;filter:url(#filter);"/>
<rect x="34.000000" y="66.000000" width="245.100000" height="24.000000" rx="0" ry="0" style="stroke:none;fill:#477881;"/>
<text x="156.550000" y="80.000000" font-family="Arial" font-size="7" text-anchor="middle" fill="#FFFFFF">vslider(gain12, 0.0f, 0.0f, 1.0f, 0.10000000000000001f)</text>
<circle cx="36.000000" cy="68.000000" r="1"/>
<a xlink:href="smoo-0x7f49540325f0.svg">
<rect x="288.100000" y="67.000000" width="25.800000" height="24.000000" rx="0.1" ry="0.1" style="stroke:none;fill:#aaaaaa;;filter:url(#filter);"/>
<rect x="287.100000" y="66.000000" width="25.800000" height="24.000000" rx="0" ry="0" style="stroke:none;fill:#003366;"/>
</a>
<a xlink:href="smoo-0x7f49540325f0.svg">
<text x="300.000000" y="80.000000" font-family="Arial" font-size="7" text-anchor="middle" fill="#FFFFFF">smoo</text>
</a>
<circle cx="289.100000" cy="68.000000" r="1"/>
<line x1="284.100000" y1="77.000000" x2="287.100000" y2="78.000000"  transform="rotate(0.000000,287.100000,78.000000)" style="stroke: black; stroke-width:0.25;"/>
<line x1="284.100000" y1="79.000000" x2="287.100000" y2="78.000000"  transform="rotate(0.000000,287.100000,78.000000)" style="stroke: black; stroke-width:0.25;"/>
<line x1="25.000000" y1="57.000000" x2="25.000000" y2="99.000000"  style="stroke: black; stroke-linecap:round; stroke-width:0.25; stroke-dasharray:3,3;"/>
<line x1="25.000000" y1="99.000000" x2="321.900000" y2="99.000000"  style="stroke: black; stroke-linecap:round; stroke-width:0.25; stroke-dasharray:3,3;"/>
<line x1="321.900000" y1="99.000000" x2="321.900000" y2="57.000000"  style="stroke: black; stroke-linecap:round; stroke-width:0.25; stroke-dasharray:3,3;"/>
<line x1="25.000000" y1="57.000000" x2="30.000000" y2="57.000000"  style="stroke: black; stroke-linecap:round; stroke-width:0.25; stroke-dasharray:3,3;"/>
<line x1="75.150000" y1="57.000000" x2="321.900000" y2="57.000000"  style="stroke: black; stroke-linecap:round; stroke-width:0.25; stroke-dasharray:3,3;"/>
<text x="30.000000" y="59.000000" font-family="Arial" font-size="7">hgroup(gain)</text>
<rect x="339.900000" y="51.000000" width="24.000000" height="24.000000" rx="0.1" ry="0.1" style="stroke:none;fill:#aaaaaa;;filter:url(#filter);"/>
<rect x="338.900000" y="50.000000" width="24.000000" height="24.000000" rx="0" ry="0" style="stroke:none;fill:#4B71A1;"/>
<text x="350.900000" y="64.000000" font-family="Arial" font-size="7" text-anchor="middle" fill="#FFFFFF">*</text>
<circle cx="340.900000" cy="52.000000" r="1"/>
<line x1="335.900000" y1="57.000000" x2="338.900000" y2="58.000000"  transform="rotate(0.000000,338.900000,58.000000)" style="stroke: black; stroke-width:0.25;"/>
<line x1="335.900000" y1="59.000000" x2="338.900000" y2="58.000000"  transform="rotate(0.000000,338.900000,58.000000)" style="stroke: black; stroke-width:0.25;"/>
<line x1="335.900000" y1="65.000000" x2="338.900000" y2="66.000000"  transform="rotate(0.000000,338.900000,66.000000)" style="stroke: black; stroke-width:0.25;"/>
<line x1="335.900000" y1="67.000000" x2="338.900000" y2="66.000000"  transform="rotate(0.000000,338.900000,66.000000)" style="stroke: black; stroke-width:0.25;"/>
<rect x="93.700000" y="119.000000" width="167.700000" height="24.000000" rx="0.1" ry="0.1" style="stroke:none;fill:#aaaaaa;;filter:url(#filter);"/>
<rect x="92.700000" y="118.000000" width="167.700000" height="24.000000" rx="0" ry="0" style="stroke:none;fill:#477881;"/>
<text x="176.550000" y="132.000000" font-family="Arial" font-size="7" text-anchor="middle" fill="#FFFFFF">nentry(gate12, 0.0f, 0.0f, 1.0f, 1.0f)</text>
<circle cx="94.700000" cy="120.000000" r="1"/>
<a xlink:href="smoo-0x7f49540325f0.svg">
<rect x="269.400000" y="119.000000" width="25.800000" height="24.000000" rx="0.1" ry="0.1" style="stroke:none;fill:#aaaaaa;;filter:url(#filter);"/>
<rect x="268.400000" y="118.000000" width="25.800000" height="24.000000" rx="0" ry="0" style="stroke:none;fill:#003366;"/>
</a>
<a xlink:href="smoo-0x7f49540325f0.svg">
<text x="281.300000" y="132.000000" font-family="Arial" font-size="7" text-anchor="middle" fill="#FFFFFF">smoo</text>
</a>
<circle cx="270.400000" cy="120.000000" r="1"/>
<line x1="265.400000" y1="129.000000" x2="268.400000" y2="130.000000"  transform="rotate(0.000000,268.400000,130.000000)" style="stroke: black; stroke-width:0.25;"/>
<line x1="265.400000" y1="131.000000" x2="268.400000" y2="130.000000"  transform="rotate(0.000000,268.400000,130.000000)" style="stroke: black; stroke-width:0.25;"/>
<line x1="83.700000" y1="109.000000" x2="83.700000" y2="151.000000"  style="stroke: black; stroke-linecap:round; stroke-width:0.25; stroke-dasharray:3,3;"/>
<line x1="83.700000" y1="151.000000" x2="303.200000" y2="151.000000"  style="stroke: black; stroke-linecap:round; stroke-width:0.25; stroke-dasharray:3,3;"/>
<line x1="303.200000" y1="151.000000" x2="303.200000" y2="109.000000"  style="stroke: black; stroke-linecap:round; stroke-width:0.25; stroke-dasharray:3,3;"/>
<line x1="83.700000" y1="109.000000" x2="88.700000" y2="109.000000"  style="stroke: black; stroke-linecap:round; stroke-width:0.25; stroke-dasharray:3,3;"/>
<line x1="133.850000" y1="109.000000" x2="303.200000" y2="109.000000"  style="stroke: black; stroke-linecap:round; stroke-width:0.25; stroke-dasharray:3,3;"/>
<text x="88.700000" y="111.000000" font-family="Arial" font-size="7">hgroup(gate)</text>
<rect x="379.900000" y="77.000000" width="24.000000" height="24.000000" rx="0.1" ry="0.1" style="stroke:none;fill:#aaaaaa;;filter:url(#filter);"/>
<rect x="378.900000" y="76.000000" width="24.000000" height="24.000000" rx="0" ry="0" style="stroke:none;fill:#4B71A1;"/>
<text x="390.900000" y="90.000000" font-family="Arial" font-size="7" text-anchor="middle" fill="#FFFFFF">*</text>
<circle cx="380.900000" cy="78.000000" r="1"/>
<line x1="375.900000" y1="83.000000" x2="378.900000" y2="84.000000"  transform="rotate(0.000000,378.900000,84.000000)" style="stroke: black; stroke-width:0.25;"/>
<line x1="375.900000" y1="85.000000" x2="378.900000" y2="84.000000"  transform="rotate(0.000000,378.900000,84.000000)" style="stroke: black; stroke-width:0.25;"/>
<line x1="375.900000" y1="91.000000" x2="378.900000" y2="92.000000"  transform="rotate(0.000000,378.900000,92.000000)" style="stroke: black; stroke-width:0.25;"/>
<line x1="375.900000" y1="93.000000" x2="378.900000" y2="92.000000"  transform="rotate(0.000000,378.900000,92.000000)" style="stroke: black; stroke-width:0.25;"/>
<line x1="15.000000" y1="15.000000" x2="15.000000" y2="161.000000"  style="stroke: black; stroke-linecap:round; stroke-width:0.25; stroke-dasharray:3,3;"/>
<line x1="15.000000" y1="161.000000" x2="419.900000" y2="161.000000"  style="stroke: black; stroke-linecap:round; stroke-width:0.25; stroke-dasharray:3,3;"/>
<line x1="419.900000" y1="161.000000" x2="419.900000" y2="15.000000"  style="stroke: black; stroke-linecap:round; stroke-width:0.25; stroke-dasharray:3,3;"/>
<line x1="15.000000" y1="15.000000" x2="20.000000" y2="15.000000"  style="stroke: black; stroke-linecap:round; stroke-width:0.25; stroke-dasharray:3,3;"/>
<line x1="61.925000" y1="15.000000" x2="419.900000" y2="15.000000"  style="stroke: black; stroke-linecap:round; stroke-width:0.25; stroke-dasharray:3,3;"/>
<text x="20.000000" y="17.000000" font-family="Arial" font-size="7">partial(12)</text>
<line x1="421.900000" y1="87.000000" x2="424.900000" y2="88.000000"  transform="rotate(0.000000,424.900000,88.000000)" style="stroke: black; stroke-width:0.25;"/>
<line x1="421.900000" y1="89.000000" x2="424.900000" y2="88.000000"  transform="rotate(0.000000,424.900000,88.000000)" style="stroke: black; stroke-width:0.25;"/>
<line x1="237.950000" y1="36.000000" x2="241.950000" y2="36.000000"  style="stroke:black; stroke-linecap:round; stroke-width:0.25;"/>
<line x1="241.950000" y1="36.000000" x2="326.900000" y2="36.000000"  style="stroke:black; stroke-linecap:round; stroke-width:0.25;"/>
<line x1="260.400000" y1="130.000000" x2="264.400000" y2="130.000000"  style="stroke:black; stroke-linecap:round; stroke-width:0.25;"/>
<line x1="264.400000" y1="130.000000" x2="264.400000" y2="130.000000"  style="stroke:black; stroke-linecap:round; stroke-width:0.25;"/>
<line x1="264.400000" y1="130.000000" x2="268.400000" y2="130.000000"  style="stroke:black; stroke-linecap:round; stroke-width:0.25;"/>
<line x1="279.100000" y1="78.000000" x2="283.100000" y2="78.000000"  style="stroke:black; stroke-linecap:round; stroke-width:0.25;"/>
<line x1="283.100000" y1="78.000000" x2="283.100000" y2="78.000000"  style="stroke:black; stroke-linecap:round; stroke-width:0.25;"/>
<line x1="283.100000" y1="78.000000" x2="287.100000" y2="78.000000"  style="stroke:black; stroke-linecap:round; stroke-width:0.25;"/>
<line x1="294.200000" y1="130.000000" x2="298.200000" y2="130.000000"  style="stroke:black; stroke-linecap:round; stroke-width:0.25;"/>
<line x1="298.200000" y1="130.000000" x2="308.200000" y2="130.000000"  style="stroke:black; stroke-linecap:round; stroke-width:0.25;"/>
<line x1="308.200000" y1="130.000000" x2="366.900000" y2="130.000000"  style="stroke:black; stroke-linecap:round; stroke-width:0.25;"/>
<line x1="312.900000" y1="78.000000" x2="316.900000" y2="78.000000"  style="stroke:black; stroke-linecap:round; stroke-width:0.25;"/>
<line x1="316.900000" y1="78.000000" x2="326.900000" y2="78.000000"  style="stroke:black; stroke-linecap:round; stroke-width:0.25;"/>
<line x1="326.900000" y1="36.000000" x2="334.900000" y2="36.000000"  style="stroke:black; stroke-linecap:round; stroke-width:0.25;"/>
<line x1="326.900000" y1="66.000000" x2="334.900000" y2="66.000000"  style="stroke:black; stroke-linecap:round; stroke-width:0.25;"/>
<line x1="326.900000" y1="78.000000" x2="326.900000" y2="66.000000"  style="stroke:black; stroke-linecap:round; stroke-width:0.25;"/>
<line x1="326.900000" y1="78.000000" x2="326.900000" y2="78.000000"  style="stroke:black; stroke-linecap:round; stroke-width:0.25;"/>
<line x1="334.900000" y1="36.000000" x2="334.900000" y2="58.000000"  style="stroke:black; stroke-linecap:round; stroke-width:0.25;"/>
<line x1="334.900000" y1="58.000000" x2="334.900000" y2="58.000000"  style="stroke:black; stroke-linecap:round; stroke-width:0.25;"/>
<line x1="334.900000" y1="58.000000" x2="338.900000" y2="58.000000"  style="stroke:black; stroke-linecap:round; stroke-width:0.25;"/>
<line x1="334.900000" y1="66.000000" x2="338.900000" y2="66.000000"  style="stroke:black; stroke-linecap:round; stroke-width:0.25;"/>
<line x1="362.900000" y1="62.000000" x2="366.900000" y2="62.000000"  style="stroke:black; stroke-linecap:round; stroke-width:0.25;"/>
<line x1="366.900000" y1="62.000000" x2="374.900000" y2="62.000000"  style="stroke:black; stroke-linecap:round; stroke-width:0.25;"/>
<line x1="366.900000" y1="92.000000" x2="374.900000" y2="92.000000"  style="stroke:black; stroke-linecap:round; stroke-width:0.25;"/>
<line x1="366.900000" y1="130.000000" x2="366.900000" y2="92.000000"  style="stroke:black; stroke-linecap:round; stroke-width:0.25;"/>
<line x1="366.900000" y1="130.000000" x2="366.900000" y2="130.000000"  style="stroke:black; stroke-linecap:round; stroke-width:0.25;"/>
<line x1="374.900000" y1="62.000000" x2="374.900000" y2="84.000000"  style="stroke:black; stroke-linecap:round; stroke-width:0.25;"/>
<line x1="374.900000" y1="84.000000" x2="374.900000" y2="84.000000"  style="stroke:black; stroke-linecap:round; stroke-width:0.25;"/>
<line x1="374.900000" y1="84.000000" x2="378.900000" y2="84.000000"  style="stroke:black; stroke-linecap:round; stroke-width:0.25;"/>
<line x1="374.900000" y1="92.000000" x2="378.900000" y2="92.000000"  style="stroke:black; stroke-linecap:round; stroke-width:0.25;"/>
<line x1="402.900000" y1="88.000000" x2="406.900000" y2="88.000000"  style="stroke:black; stroke-linecap:round; stroke-width:0.25;"/>
<line x1="406.900000" y1="88.000000" x2="406.900000" y2="88.000000"  style="stroke:black; stroke-linecap:round; stroke-width:0.25;"/>
<line x1="406.900000" y1="88.000000" x2="410.900000" y2="88.000000"  style="stroke:black; stroke-linecap:round; stroke-width:0.25;"/>
<line x1="410.900000" y1="88.000000" x2="414.900000" y2="88.000000"  style="stroke:black; stroke-linecap:round; stroke-width:0.25;"/>
<line x1="414.900000" y1="88.000000" x2="424.900000" y2="88.000000"  style="stroke:black; stroke-linecap:round; stroke-width:0.25;"/>
</svg>
