<?xml version="1.0"?>
<svg xmlns="http://www.w3.org/2000/svg" xmlns:xlink="http://www.w3.org/1999/xlink" viewBox="0 0 422.000000 176.000000" width="211.000000mm" height="88.000000mm" version="1.1">
<defs>
   <filter id="filter" filterRes="18" x="0" y="0">
     <feGaussianBlur in="SourceGraphic" stdDeviation="1.55" result="blur"/>
     <feOffset in="blur" dx="3" dy="3"/>
   </filter>
</defs>
<a xlink:href="process.svg">
<rect x="1.000000" y="1.000000" width="421.000000" height="175.000000" rx="0.1" ry="0.1" style="stroke:none;fill:#aaaaaa;;filter:url(#filter);"/>
<rect x="0.000000" y="0.000000" width="421.000000" height="175.000000" rx="0" ry="0" style="stroke:none;fill:#ffffff;"/>
</a>
<text x="10.000000" y="7.000000" font-family="Arial" font-size="7"></text>
<a xlink:href="osc-0x7fed685a9270.svg">
<rect x="103.500000" y="25.000000" width="129.000000" height="24.000000" rx="0.1" ry="0.1" style="stroke:none;fill:#aaaaaa;;filter:url(#filter);"/>
<rect x="102.500000" y="24.000000" width="129.000000" height="24.000000" rx="0" ry="0" style="stroke:none;fill:#003366;"/>
</a>
<a xlink:href="osc-0x7fed685a9270.svg">
<text x="167.000000" y="38.000000" font-family="Arial" font-size="7" text-anchor="middle" fill="#FFFFFF">osc(hgroup(&quot;f...0.999f : *)))</text>
</a>
<circle cx="104.500000" cy="26.000000" r="1"/>
<rect x="35.000000" y="67.000000" width="232.200000" height="24.000000" rx="0.1" ry="0.1" style="stroke:none;fill:#aaaaaa;;filter:url(#filter);"/>
<rect x="34.000000" y="66.000000" width="232.200000" height="24.000000" rx="0" ry="0" style="stroke:none;fill:#477881;"/>
<text x="150.100000" y="80.000000" font-family="Arial" font-size="7" text-anchor="middle" fill="#FFFFFF">vslider(gain6, 0.0f, 0.0f, 1.0f, 0.10000000000000001f)</text>
<circle cx="36.000000" cy="68.000000" r="1"/>
<a xlink:href="smoo-0x7fed68031eb0.svg">
<rect x="275.200000" y="67.000000" width="25.800000" height="24.000000" rx="0.1" ry="0.1" style="stroke:none;fill:#aaaaaa;;filter:url(#filter);"/>
<rect x="274.200000" y="66.000000" width="25.800000" height="24.000000" rx="0" ry="0" style="stroke:none;fill:#003366;"/>
</a>
<a xlink:href="smoo-0x7fed68031eb0.svg">
<text x="287.100000" y="80.000000" font-family="Arial" font-size="7" text-anchor="middle" fill="#FFFFFF">smoo</text>
</a>
<circle cx="276.200000" cy="68.000000" r="1"/>
<line x1="271.200000" y1="77.000000" x2="274.200000" y2="78.000000"  transform="rotate(0.000000,274.200000,78.000000)" style="stroke: black; stroke-width:0.25;"/>
<line x1="271.200000" y1="79.000000" x2="274.200000" y2="78.000000"  transform="rotate(0.000000,274.200000,78.000000)" style="stroke: black; stroke-width:0.25;"/>
<line x1="25.000000" y1="57.000000" x2="25.000000" y2="99.000000"  style="stroke: black; stroke-linecap:round; stroke-width:0.25; stroke-dasharray:3,3;"/>
<line x1="25.000000" y1="99.000000" x2="309.000000" y2="99.000000"  style="stroke: black; stroke-linecap:round; stroke-width:0.25; stroke-dasharray:3,3;"/>
<line x1="309.000000" y1="99.000000" x2="309.000000" y2="57.000000"  style="stroke: black; stroke-linecap:round; stroke-width:0.25; stroke-dasharray:3,3;"/>
<line x1="25.000000" y1="57.000000" x2="30.000000" y2="57.000000"  style="stroke: black; stroke-linecap:round; stroke-width:0.25; stroke-dasharray:3,3;"/>
<line x1="75.150000" y1="57.000000" x2="309.000000" y2="57.000000"  style="stroke: black; stroke-linecap:round; stroke-width:0.25; stroke-dasharray:3,3;"/>
<text x="30.000000" y="59.000000" font-family="Arial" font-size="7">hgroup(gain)</text>
<rect x="327.000000" y="51.000000" width="24.000000" height="24.000000" rx="0.1" ry="0.1" style="stroke:none;fill:#aaaaaa;;filter:url(#filter);"/>
<rect x="326.000000" y="50.000000" width="24.000000" height="24.000000" rx="0" ry="0" style="stroke:none;fill:#4B71A1;"/>
<text x="338.000000" y="64.000000" font-family="Arial" font-size="7" text-anchor="middle" fill="#FFFFFF">*</text>
<circle cx="328.000000" cy="52.000000" r="1"/>
<line x1="323.000000" y1="57.000000" x2="326.000000" y2="58.000000"  transform="rotate(0.000000,326.000000,58.000000)" style="stroke: black; stroke-width:0.25;"/>
<line x1="323.000000" y1="59.000000" x2="326.000000" y2="58.000000"  transform="rotate(0.000000,326.000000,58.000000)" style="stroke: black; stroke-width:0.25;"/>
<line x1="323.000000" y1="65.000000" x2="326.000000" y2="66.000000"  transform="rotate(0.000000,326.000000,66.000000)" style="stroke: black; stroke-width:0.25;"/>
<line x1="323.000000" y1="67.000000" x2="326.000000" y2="66.000000"  transform="rotate(0.000000,326.000000,66.000000)" style="stroke: black; stroke-width:0.25;"/>
<a xlink:href="adsr-0x7fed6836dcb0.svg">
<rect x="123.500000" y="119.000000" width="129.000000" height="24.000000" rx="0.1" ry="0.1" style="stroke:none;fill:#aaaaaa;;filter:url(#filter);"/>
<rect x="122.500000" y="118.000000" width="129.000000" height="24.000000" rx="0" ry="0" style="stroke:none;fill:#003366;"/>
</a>
<a xlink:href="adsr-0x7fed6836dcb0.svg">
<text x="187.000000" y="132.000000" font-family="Arial" font-size="7" text-anchor="middle" fill="#FFFFFF">adsr(vslider(...,0.999f : *))</text>
</a>
<circle cx="124.500000" cy="120.000000" r="1"/>
<line x1="113.500000" y1="109.000000" x2="113.500000" y2="151.000000"  style="stroke: black; stroke-linecap:round; stroke-width:0.25; stroke-dasharray:3,3;"/>
<line x1="113.500000" y1="151.000000" x2="260.500000" y2="151.000000"  style="stroke: black; stroke-linecap:round; stroke-width:0.25; stroke-dasharray:3,3;"/>
<line x1="260.500000" y1="151.000000" x2="260.500000" y2="109.000000"  style="stroke: black; stroke-linecap:round; stroke-width:0.25; stroke-dasharray:3,3;"/>
<line x1="113.500000" y1="109.000000" x2="118.500000" y2="109.000000"  style="stroke: black; stroke-linecap:round; stroke-width:0.25; stroke-dasharray:3,3;"/>
<line x1="176.550000" y1="109.000000" x2="260.500000" y2="109.000000"  style="stroke: black; stroke-linecap:round; stroke-width:0.25; stroke-dasharray:3,3;"/>
<text x="118.500000" y="111.000000" font-family="Arial" font-size="7">hgroup(envelope)</text>
<rect x="367.000000" y="77.000000" width="24.000000" height="24.000000" rx="0.1" ry="0.1" style="stroke:none;fill:#aaaaaa;;filter:url(#filter);"/>
<rect x="366.000000" y="76.000000" width="24.000000" height="24.000000" rx="0" ry="0" style="stroke:none;fill:#4B71A1;"/>
<text x="378.000000" y="90.000000" font-family="Arial" font-size="7" text-anchor="middle" fill="#FFFFFF">*</text>
<circle cx="368.000000" cy="78.000000" r="1"/>
<line x1="363.000000" y1="83.000000" x2="366.000000" y2="84.000000"  transform="rotate(0.000000,366.000000,84.000000)" style="stroke: black; stroke-width:0.25;"/>
<line x1="363.000000" y1="85.000000" x2="366.000000" y2="84.000000"  transform="rotate(0.000000,366.000000,84.000000)" style="stroke: black; stroke-width:0.25;"/>
<line x1="363.000000" y1="91.000000" x2="366.000000" y2="92.000000"  transform="rotate(0.000000,366.000000,92.000000)" style="stroke: black; stroke-width:0.25;"/>
<line x1="363.000000" y1="93.000000" x2="366.000000" y2="92.000000"  transform="rotate(0.000000,366.000000,92.000000)" style="stroke: black; stroke-width:0.25;"/>
<line x1="15.000000" y1="15.000000" x2="15.000000" y2="161.000000"  style="stroke: black; stroke-linecap:round; stroke-width:0.25; stroke-dasharray:3,3;"/>
<line x1="15.000000" y1="161.000000" x2="407.000000" y2="161.000000"  style="stroke: black; stroke-linecap:round; stroke-width:0.25; stroke-dasharray:3,3;"/>
<line x1="407.000000" y1="161.000000" x2="407.000000" y2="15.000000"  style="stroke: black; stroke-linecap:round; stroke-width:0.25; stroke-dasharray:3,3;"/>
<line x1="15.000000" y1="15.000000" x2="20.000000" y2="15.000000"  style="stroke: black; stroke-linecap:round; stroke-width:0.25; stroke-dasharray:3,3;"/>
<line x1="58.700000" y1="15.000000" x2="407.000000" y2="15.000000"  style="stroke: black; stroke-linecap:round; stroke-width:0.25; stroke-dasharray:3,3;"/>
<text x="20.000000" y="17.000000" font-family="Arial" font-size="7">partial(6)</text>
<line x1="409.000000" y1="87.000000" x2="412.000000" y2="88.000000"  transform="rotate(0.000000,412.000000,88.000000)" style="stroke: black; stroke-width:0.25;"/>
<line x1="409.000000" y1="89.000000" x2="412.000000" y2="88.000000"  transform="rotate(0.000000,412.000000,88.000000)" style="stroke: black; stroke-width:0.25;"/>
<line x1="231.500000" y1="36.000000" x2="235.500000" y2="36.000000"  style="stroke:black; stroke-linecap:round; stroke-width:0.25;"/>
<line x1="235.500000" y1="36.000000" x2="314.000000" y2="36.000000"  style="stroke:black; stroke-linecap:round; stroke-width:0.25;"/>
<line x1="251.500000" y1="130.000000" x2="255.500000" y2="130.000000"  style="stroke:black; stroke-linecap:round; stroke-width:0.25;"/>
<line x1="255.500000" y1="130.000000" x2="265.500000" y2="130.000000"  style="stroke:black; stroke-linecap:round; stroke-width:0.25;"/>
<line x1="265.500000" y1="130.000000" x2="354.000000" y2="130.000000"  style="stroke:black; stroke-linecap:round; stroke-width:0.25;"/>
<line x1="266.200000" y1="78.000000" x2="270.200000" y2="78.000000"  style="stroke:black; stroke-linecap:round; stroke-width:0.25;"/>
<line x1="270.200000" y1="78.000000" x2="270.200000" y2="78.000000"  style="stroke:black; stroke-linecap:round; stroke-width:0.25;"/>
<line x1="270.200000" y1="78.000000" x2="274.200000" y2="78.000000"  style="stroke:black; stroke-linecap:round; stroke-width:0.25;"/>
<line x1="300.000000" y1="78.000000" x2="304.000000" y2="78.000000"  style="stroke:black; stroke-linecap:round; stroke-width:0.25;"/>
<line x1="304.000000" y1="78.000000" x2="314.000000" y2="78.000000"  style="stroke:black; stroke-linecap:round; stroke-width:0.25;"/>
<line x1="314.000000" y1="36.000000" x2="322.000000" y2="36.000000"  style="stroke:black; stroke-linecap:round; stroke-width:0.25;"/>
<line x1="314.000000" y1="66.000000" x2="322.000000" y2="66.000000"  style="stroke:black; stroke-linecap:round; stroke-width:0.25;"/>
<line x1="314.000000" y1="78.000000" x2="314.000000" y2="66.000000"  style="stroke:black; stroke-linecap:round; stroke-width:0.25;"/>
<line x1="314.000000" y1="78.000000" x2="314.000000" y2="78.000000"  style="stroke:black; stroke-linecap:round; stroke-width:0.25;"/>
<line x1="322.000000" y1="36.000000" x2="322.000000" y2="58.000000"  style="stroke:black; stroke-linecap:round; stroke-width:0.25;"/>
<line x1="322.000000" y1="58.000000" x2="322.000000" y2="58.000000"  style="stroke:black; stroke-linecap:round; stroke-width:0.25;"/>
<line x1="322.000000" y1="58.000000" x2="326.000000" y2="58.000000"  style="stroke:black; stroke-linecap:round; stroke-width:0.25;"/>
<line x1="322.000000" y1="66.000000" x2="326.000000" y2="66.000000"  style="stroke:black; stroke-linecap:round; stroke-width:0.25;"/>
<line x1="350.000000" y1="62.000000" x2="354.000000" y2="62.000000"  style="stroke:black; stroke-linecap:round; stroke-width:0.25;"/>
<line x1="354.000000" y1="62.000000" x2="362.000000" y2="62.000000"  style="stroke:black; stroke-linecap:round; stroke-width:0.25;"/>
<line x1="354.000000" y1="92.000000" x2="362.000000" y2="92.000000"  style="stroke:black; stroke-linecap:round; stroke-width:0.25;"/>
<line x1="354.000000" y1="130.000000" x2="354.000000" y2="92.000000"  style="stroke:black; stroke-linecap:round; stroke-width:0.25;"/>
<line x1="354.000000" y1="130.000000" x2="354.000000" y2="130.000000"  style="stroke:black; stroke-linecap:round; stroke-width:0.25;"/>
<line x1="362.000000" y1="62.000000" x2="362.000000" y2="84.000000"  style="stroke:black; stroke-linecap:round; stroke-width:0.25;"/>
<line x1="362.000000" y1="84.000000" x2="362.000000" y2="84.000000"  style="stroke:black; stroke-linecap:round; stroke-width:0.25;"/>
<line x1="362.000000" y1="84.000000" x2="366.000000" y2="84.000000"  style="stroke:black; stroke-linecap:round; stroke-width:0.25;"/>
<line x1="362.000000" y1="92.000000" x2="366.000000" y2="92.000000"  style="stroke:black; stroke-linecap:round; stroke-width:0.25;"/>
<line x1="390.000000" y1="88.000000" x2="394.000000" y2="88.000000"  style="stroke:black; stroke-linecap:round; stroke-width:0.25;"/>
<line x1="394.000000" y1="88.000000" x2="394.000000" y2="88.000000"  style="stroke:black; stroke-linecap:round; stroke-width:0.25;"/>
<line x1="394.000000" y1="88.000000" x2="398.000000" y2="88.000000"  style="stroke:black; stroke-linecap:round; stroke-width:0.25;"/>
<line x1="398.000000" y1="88.000000" x2="402.000000" y2="88.000000"  style="stroke:black; stroke-linecap:round; stroke-width:0.25;"/>
<line x1="402.000000" y1="88.000000" x2="412.000000" y2="88.000000"  style="stroke:black; stroke-linecap:round; stroke-width:0.25;"/>
</svg>
