<?xml version="1.0"?>
<svg xmlns="http://www.w3.org/2000/svg" xmlns:xlink="http://www.w3.org/1999/xlink" viewBox="0 0 594.500000 124.000000" width="297.250000mm" height="62.000000mm" version="1.1">
<defs>
   <filter id="filter" filterRes="18" x="0" y="0">
     <feGaussianBlur in="SourceGraphic" stdDeviation="1.55" result="blur"/>
     <feOffset in="blur" dx="3" dy="3"/>
   </filter>
</defs>
<a xlink:href="osc-0x7f31082b8f40.svg">
<rect x="1.000000" y="1.000000" width="593.500000" height="123.000000" rx="0.1" ry="0.1" style="stroke:none;fill:#aaaaaa;;filter:url(#filter);"/>
<rect x="0.000000" y="0.000000" width="593.500000" height="123.000000" rx="0" ry="0" style="stroke:none;fill:#ffffff;"/>
</a>
<text x="10.000000" y="7.000000" font-family="Arial" font-size="7"></text>
<rect x="35.000000" y="35.000000" width="206.400000" height="24.000000" rx="0.1" ry="0.1" style="stroke:none;fill:#aaaaaa;;filter:url(#filter);"/>
<rect x="34.000000" y="34.000000" width="206.400000" height="24.000000" rx="0" ry="0" style="stroke:none;fill:#477881;"/>
<text x="137.200000" y="48.000000" font-family="Arial" font-size="7" text-anchor="middle" fill="#FFFFFF">nentry(freq10, 200.0f, 60.0f, 10000.0f, 0.01f)</text>
<circle cx="36.000000" cy="36.000000" r="1"/>
<a xlink:href="smoo-0x7f31080322e0.svg">
<rect x="249.400000" y="35.000000" width="25.800000" height="24.000000" rx="0.1" ry="0.1" style="stroke:none;fill:#aaaaaa;;filter:url(#filter);"/>
<rect x="248.400000" y="34.000000" width="25.800000" height="24.000000" rx="0" ry="0" style="stroke:none;fill:#003366;"/>
</a>
<a xlink:href="smoo-0x7f31080322e0.svg">
<text x="261.300000" y="48.000000" font-family="Arial" font-size="7" text-anchor="middle" fill="#FFFFFF">smoo</text>
</a>
<circle cx="250.400000" cy="36.000000" r="1"/>
<line x1="245.400000" y1="45.000000" x2="248.400000" y2="46.000000"  transform="rotate(0.000000,248.400000,46.000000)" style="stroke: black; stroke-width:0.25;"/>
<line x1="245.400000" y1="47.000000" x2="248.400000" y2="46.000000"  transform="rotate(0.000000,248.400000,46.000000)" style="stroke: black; stroke-width:0.25;"/>
<line x1="25.000000" y1="25.000000" x2="25.000000" y2="67.000000"  style="stroke: black; stroke-linecap:round; stroke-width:0.25; stroke-dasharray:3,3;"/>
<line x1="25.000000" y1="67.000000" x2="283.200000" y2="67.000000"  style="stroke: black; stroke-linecap:round; stroke-width:0.25; stroke-dasharray:3,3;"/>
<line x1="283.200000" y1="67.000000" x2="283.200000" y2="25.000000"  style="stroke: black; stroke-linecap:round; stroke-width:0.25; stroke-dasharray:3,3;"/>
<line x1="25.000000" y1="25.000000" x2="30.000000" y2="25.000000"  style="stroke: black; stroke-linecap:round; stroke-width:0.25; stroke-dasharray:3,3;"/>
<line x1="75.150000" y1="25.000000" x2="283.200000" y2="25.000000"  style="stroke: black; stroke-linecap:round; stroke-width:0.25; stroke-dasharray:3,3;"/>
<text x="30.000000" y="27.000000" font-family="Arial" font-size="7">hgroup(freq)</text>
<a xlink:href="SR-0x7f3108119ea0.svg">
<rect x="126.200000" y="77.000000" width="24.000000" height="24.000000" rx="0.1" ry="0.1" style="stroke:none;fill:#aaaaaa;;filter:url(#filter);"/>
<rect x="125.200000" y="76.000000" width="24.000000" height="24.000000" rx="0" ry="0" style="stroke:none;fill:#003366;"/>
</a>
<a xlink:href="SR-0x7f3108119ea0.svg">
<text x="137.200000" y="90.000000" font-family="Arial" font-size="7" text-anchor="middle" fill="#FFFFFF">SR</text>
</a>
<circle cx="127.200000" cy="78.000000" r="1"/>
<rect x="158.200000" y="77.000000" width="25.800000" height="24.000000" rx="0.1" ry="0.1" style="stroke:none;fill:#aaaaaa;;filter:url(#filter);"/>
<rect x="157.200000" y="76.000000" width="25.800000" height="24.000000" rx="0" ry="0" style="stroke:none;fill:#4B71A1;"/>
<text x="170.100000" y="90.000000" font-family="Arial" font-size="7" text-anchor="middle" fill="#FFFFFF">float</text>
<circle cx="159.200000" cy="78.000000" r="1"/>
<line x1="154.200000" y1="87.000000" x2="157.200000" y2="88.000000"  transform="rotate(0.000000,157.200000,88.000000)" style="stroke: black; stroke-width:0.25;"/>
<line x1="154.200000" y1="89.000000" x2="157.200000" y2="88.000000"  transform="rotate(0.000000,157.200000,88.000000)" style="stroke: black; stroke-width:0.25;"/>
<rect x="301.200000" y="51.000000" width="24.000000" height="24.000000" rx="0.1" ry="0.1" style="stroke:none;fill:#aaaaaa;;filter:url(#filter);"/>
<rect x="300.200000" y="50.000000" width="24.000000" height="24.000000" rx="0" ry="0" style="stroke:none;fill:#4B71A1;"/>
<text x="312.200000" y="64.000000" font-family="Arial" font-size="7" text-anchor="middle" fill="#FFFFFF">/</text>
<circle cx="302.200000" cy="52.000000" r="1"/>
<line x1="297.200000" y1="57.000000" x2="300.200000" y2="58.000000"  transform="rotate(0.000000,300.200000,58.000000)" style="stroke: black; stroke-width:0.25;"/>
<line x1="297.200000" y1="59.000000" x2="300.200000" y2="58.000000"  transform="rotate(0.000000,300.200000,58.000000)" style="stroke: black; stroke-width:0.25;"/>
<line x1="297.200000" y1="65.000000" x2="300.200000" y2="66.000000"  transform="rotate(0.000000,300.200000,66.000000)" style="stroke: black; stroke-width:0.25;"/>
<line x1="297.200000" y1="67.000000" x2="300.200000" y2="66.000000"  transform="rotate(0.000000,300.200000,66.000000)" style="stroke: black; stroke-width:0.25;"/>
<rect x="349.200000" y="55.000000" width="24.000000" height="24.000000" rx="0.1" ry="0.1" style="stroke:none;fill:#aaaaaa;;filter:url(#filter);"/>
<rect x="348.200000" y="54.000000" width="24.000000" height="24.000000" rx="0" ry="0" style="stroke:none;fill:#4B71A1;"/>
<text x="360.200000" y="68.000000" font-family="Arial" font-size="7" text-anchor="middle" fill="#FFFFFF">+</text>
<circle cx="350.200000" cy="56.000000" r="1"/>
<line x1="345.200000" y1="61.000000" x2="348.200000" y2="62.000000"  transform="rotate(0.000000,348.200000,62.000000)" style="stroke: black; stroke-width:0.25;"/>
<line x1="345.200000" y1="63.000000" x2="348.200000" y2="62.000000"  transform="rotate(0.000000,348.200000,62.000000)" style="stroke: black; stroke-width:0.25;"/>
<line x1="345.200000" y1="69.000000" x2="348.200000" y2="70.000000"  transform="rotate(0.000000,348.200000,70.000000)" style="stroke: black; stroke-width:0.25;"/>
<line x1="345.200000" y1="71.000000" x2="348.200000" y2="70.000000"  transform="rotate(0.000000,348.200000,70.000000)" style="stroke: black; stroke-width:0.25;"/>
<a xlink:href="decimal-0x7f31081202e0.svg">
<rect x="381.200000" y="55.000000" width="38.700000" height="24.000000" rx="0.1" ry="0.1" style="stroke:none;fill:#aaaaaa;;filter:url(#filter);"/>
<rect x="380.200000" y="54.000000" width="38.700000" height="24.000000" rx="0" ry="0" style="stroke:none;fill:#003366;"/>
</a>
<a xlink:href="decimal-0x7f31081202e0.svg">
<text x="399.550000" y="68.000000" font-family="Arial" font-size="7" text-anchor="middle" fill="#FFFFFF">decimal</text>
</a>
<circle cx="382.200000" cy="56.000000" r="1"/>
<line x1="377.200000" y1="65.000000" x2="380.200000" y2="66.000000"  transform="rotate(0.000000,380.200000,66.000000)" style="stroke: black; stroke-width:0.25;"/>
<line x1="377.200000" y1="67.000000" x2="380.200000" y2="66.000000"  transform="rotate(0.000000,380.200000,66.000000)" style="stroke: black; stroke-width:0.25;"/>
<line x1="420.900000" y1="66.000000" x2="420.900000" y2="62.000000"  style="stroke:black; stroke-linecap:round; stroke-width:0.25;"/>
<line x1="420.900000" y1="62.000000" x2="424.900000" y2="62.000000"  style="stroke:black; stroke-linecap:round; stroke-width:0.25;"/>
<line x1="424.900000" y1="62.000000" x2="424.900000" y2="66.000000"  style="stroke:black; stroke-linecap:round; stroke-width:0.25;"/>
<rect x="453.900000" y="55.000000" width="25.800000" height="24.000000" rx="0.1" ry="0.1" style="stroke:none;fill:#aaaaaa;;filter:url(#filter);"/>
<rect x="452.900000" y="54.000000" width="25.800000" height="24.000000" rx="0" ry="0" style="stroke:none;fill:#f44800;"/>
<text x="465.800000" y="68.000000" font-family="Arial" font-size="7" text-anchor="middle" fill="#FFFFFF">65536</text>
<circle cx="454.900000" cy="56.000000" r="1"/>
<line x1="443.900000" y1="45.000000" x2="443.900000" y2="87.000000"  style="stroke: black; stroke-linecap:round; stroke-width:0.25; stroke-dasharray:3,3;"/>
<line x1="443.900000" y1="87.000000" x2="487.700000" y2="87.000000"  style="stroke: black; stroke-linecap:round; stroke-width:0.25; stroke-dasharray:3,3;"/>
<line x1="487.700000" y1="87.000000" x2="487.700000" y2="45.000000"  style="stroke: black; stroke-linecap:round; stroke-width:0.25; stroke-dasharray:3,3;"/>
<line x1="443.900000" y1="45.000000" x2="448.900000" y2="45.000000"  style="stroke: black; stroke-linecap:round; stroke-width:0.25; stroke-dasharray:3,3;"/>
<line x1="484.375000" y1="45.000000" x2="487.700000" y2="45.000000"  style="stroke: black; stroke-linecap:round; stroke-width:0.25; stroke-dasharray:3,3;"/>
<text x="448.900000" y="47.000000" font-family="Arial" font-size="7">tablesize</text>
<rect x="497.700000" y="55.000000" width="25.800000" height="24.000000" rx="0.1" ry="0.1" style="stroke:none;fill:#aaaaaa;;filter:url(#filter);"/>
<rect x="496.700000" y="54.000000" width="25.800000" height="24.000000" rx="0" ry="0" style="stroke:none;fill:#4B71A1;"/>
<text x="509.600000" y="68.000000" font-family="Arial" font-size="7" text-anchor="middle" fill="#FFFFFF">float</text>
<circle cx="498.700000" cy="56.000000" r="1"/>
<line x1="493.700000" y1="65.000000" x2="496.700000" y2="66.000000"  transform="rotate(0.000000,496.700000,66.000000)" style="stroke: black; stroke-width:0.25;"/>
<line x1="493.700000" y1="67.000000" x2="496.700000" y2="66.000000"  transform="rotate(0.000000,496.700000,66.000000)" style="stroke: black; stroke-width:0.25;"/>
<rect x="539.500000" y="51.000000" width="24.000000" height="24.000000" rx="0.1" ry="0.1" style="stroke:none;fill:#aaaaaa;;filter:url(#filter);"/>
<rect x="538.500000" y="50.000000" width="24.000000" height="24.000000" rx="0" ry="0" style="stroke:none;fill:#4B71A1;"/>
<text x="550.500000" y="64.000000" font-family="Arial" font-size="7" text-anchor="middle" fill="#FFFFFF">*</text>
<circle cx="540.500000" cy="52.000000" r="1"/>
<line x1="535.500000" y1="57.000000" x2="538.500000" y2="58.000000"  transform="rotate(0.000000,538.500000,58.000000)" style="stroke: black; stroke-width:0.25;"/>
<line x1="535.500000" y1="59.000000" x2="538.500000" y2="58.000000"  transform="rotate(0.000000,538.500000,58.000000)" style="stroke: black; stroke-width:0.25;"/>
<line x1="535.500000" y1="65.000000" x2="538.500000" y2="66.000000"  transform="rotate(0.000000,538.500000,66.000000)" style="stroke: black; stroke-width:0.25;"/>
<line x1="535.500000" y1="67.000000" x2="538.500000" y2="66.000000"  transform="rotate(0.000000,538.500000,66.000000)" style="stroke: black; stroke-width:0.25;"/>
<line x1="15.000000" y1="15.000000" x2="15.000000" y2="109.000000"  style="stroke: black; stroke-linecap:round; stroke-width:0.25; stroke-dasharray:3,3;"/>
<line x1="15.000000" y1="109.000000" x2="579.500000" y2="109.000000"  style="stroke: black; stroke-linecap:round; stroke-width:0.25; stroke-dasharray:3,3;"/>
<line x1="579.500000" y1="109.000000" x2="579.500000" y2="15.000000"  style="stroke: black; stroke-linecap:round; stroke-width:0.25; stroke-dasharray:3,3;"/>
<line x1="15.000000" y1="15.000000" x2="20.000000" y2="15.000000"  style="stroke: black; stroke-linecap:round; stroke-width:0.25; stroke-dasharray:3,3;"/>
<line x1="119.975000" y1="15.000000" x2="579.500000" y2="15.000000"  style="stroke: black; stroke-linecap:round; stroke-width:0.25; stroke-dasharray:3,3;"/>
<text x="20.000000" y="17.000000" font-family="Arial" font-size="7">phasor(65536)...0.999f : *)))</text>
<line x1="581.500000" y1="61.000000" x2="584.500000" y2="62.000000"  transform="rotate(0.000000,584.500000,62.000000)" style="stroke: black; stroke-width:0.25;"/>
<line x1="581.500000" y1="63.000000" x2="584.500000" y2="62.000000"  transform="rotate(0.000000,584.500000,62.000000)" style="stroke: black; stroke-width:0.25;"/>
<line x1="149.200000" y1="88.000000" x2="153.200000" y2="88.000000"  style="stroke:black; stroke-linecap:round; stroke-width:0.25;"/>
<line x1="153.200000" y1="88.000000" x2="153.200000" y2="88.000000"  style="stroke:black; stroke-linecap:round; stroke-width:0.25;"/>
<line x1="153.200000" y1="88.000000" x2="157.200000" y2="88.000000"  style="stroke:black; stroke-linecap:round; stroke-width:0.25;"/>
<line x1="183.000000" y1="88.000000" x2="187.000000" y2="88.000000"  style="stroke:black; stroke-linecap:round; stroke-width:0.25;"/>
<line x1="187.000000" y1="88.000000" x2="288.200000" y2="88.000000"  style="stroke:black; stroke-linecap:round; stroke-width:0.25;"/>
<line x1="240.400000" y1="46.000000" x2="244.400000" y2="46.000000"  style="stroke:black; stroke-linecap:round; stroke-width:0.25;"/>
<line x1="244.400000" y1="46.000000" x2="244.400000" y2="46.000000"  style="stroke:black; stroke-linecap:round; stroke-width:0.25;"/>
<line x1="244.400000" y1="46.000000" x2="248.400000" y2="46.000000"  style="stroke:black; stroke-linecap:round; stroke-width:0.25;"/>
<line x1="274.200000" y1="46.000000" x2="278.200000" y2="46.000000"  style="stroke:black; stroke-linecap:round; stroke-width:0.25;"/>
<line x1="278.200000" y1="46.000000" x2="288.200000" y2="46.000000"  style="stroke:black; stroke-linecap:round; stroke-width:0.25;"/>
<line x1="288.200000" y1="46.000000" x2="296.200000" y2="46.000000"  style="stroke:black; stroke-linecap:round; stroke-width:0.25;"/>
<line x1="288.200000" y1="66.000000" x2="296.200000" y2="66.000000"  style="stroke:black; stroke-linecap:round; stroke-width:0.25;"/>
<line x1="288.200000" y1="88.000000" x2="288.200000" y2="66.000000"  style="stroke:black; stroke-linecap:round; stroke-width:0.25;"/>
<line x1="288.200000" y1="88.000000" x2="288.200000" y2="88.000000"  style="stroke:black; stroke-linecap:round; stroke-width:0.25;"/>
<line x1="296.200000" y1="46.000000" x2="296.200000" y2="58.000000"  style="stroke:black; stroke-linecap:round; stroke-width:0.25;"/>
<line x1="296.200000" y1="58.000000" x2="296.200000" y2="58.000000"  style="stroke:black; stroke-linecap:round; stroke-width:0.25;"/>
<line x1="296.200000" y1="58.000000" x2="300.200000" y2="58.000000"  style="stroke:black; stroke-linecap:round; stroke-width:0.25;"/>
<line x1="296.200000" y1="66.000000" x2="300.200000" y2="66.000000"  style="stroke:black; stroke-linecap:round; stroke-width:0.25;"/>
<line x1="324.200000" y1="62.000000" x2="328.200000" y2="62.000000"  style="stroke:black; stroke-linecap:round; stroke-width:0.25;"/>
<line x1="328.200000" y1="62.000000" x2="336.200000" y2="62.000000"  style="stroke:black; stroke-linecap:round; stroke-width:0.25;"/>
<line x1="336.200000" y1="62.000000" x2="336.200000" y2="70.000000"  style="stroke:black; stroke-linecap:round; stroke-width:0.25;"/>
<line x1="336.200000" y1="70.000000" x2="336.200000" y2="70.000000"  style="stroke:black; stroke-linecap:round; stroke-width:0.25;"/>
<line x1="336.200000" y1="70.000000" x2="344.200000" y2="70.000000"  style="stroke:black; stroke-linecap:round; stroke-width:0.25;"/>
<line x1="344.200000" y1="46.000000" x2="344.200000" y2="46.000000"  style="stroke:black; stroke-linecap:round; stroke-width:0.25;"/>
<line x1="344.200000" y1="46.000000" x2="344.200000" y2="62.000000"  style="stroke:black; stroke-linecap:round; stroke-width:0.25;"/>
<line x1="344.200000" y1="62.000000" x2="344.200000" y2="62.000000"  style="stroke:black; stroke-linecap:round; stroke-width:0.25;"/>
<line x1="344.200000" y1="62.000000" x2="348.200000" y2="62.000000"  style="stroke:black; stroke-linecap:round; stroke-width:0.25;"/>
<line x1="344.200000" y1="70.000000" x2="348.200000" y2="70.000000"  style="stroke:black; stroke-linecap:round; stroke-width:0.25;"/>
<line x1="372.200000" y1="66.000000" x2="376.200000" y2="66.000000"  style="stroke:black; stroke-linecap:round; stroke-width:0.25;"/>
<line x1="376.200000" y1="66.000000" x2="376.200000" y2="66.000000"  style="stroke:black; stroke-linecap:round; stroke-width:0.25;"/>
<line x1="376.200000" y1="66.000000" x2="380.200000" y2="66.000000"  style="stroke:black; stroke-linecap:round; stroke-width:0.25;"/>
<line x1="383.550000" y1="46.000000" x2="344.200000" y2="46.000000"  style="stroke:black; stroke-linecap:round; stroke-width:0.25;"/>
<line x1="418.900000" y1="66.000000" x2="422.900000" y2="66.000000"  style="stroke:black; stroke-linecap:round; stroke-width:0.25;"/>
<line x1="422.900000" y1="46.000000" x2="383.550000" y2="46.000000"  style="stroke:black; stroke-linecap:round; stroke-width:0.25;"/>
<line x1="422.900000" y1="46.000000" x2="422.900000" y2="46.000000"  style="stroke:black; stroke-linecap:round; stroke-width:0.25;"/>
<line x1="422.900000" y1="62.000000" x2="422.900000" y2="46.000000"  style="stroke:black; stroke-linecap:round; stroke-width:0.25;"/>
<line x1="422.900000" y1="66.000000" x2="424.900000" y2="66.000000"  style="stroke:black; stroke-linecap:round; stroke-width:0.25;"/>
<line x1="424.900000" y1="66.000000" x2="430.900000" y2="66.000000"  style="stroke:black; stroke-linecap:round; stroke-width:0.25;"/>
<line x1="430.900000" y1="36.000000" x2="438.900000" y2="36.000000"  style="stroke:black; stroke-linecap:round; stroke-width:0.25;"/>
<line x1="430.900000" y1="66.000000" x2="430.900000" y2="36.000000"  style="stroke:black; stroke-linecap:round; stroke-width:0.25;"/>
<line x1="430.900000" y1="66.000000" x2="430.900000" y2="66.000000"  style="stroke:black; stroke-linecap:round; stroke-width:0.25;"/>
<line x1="438.900000" y1="36.000000" x2="482.700000" y2="36.000000"  style="stroke:black; stroke-linecap:round; stroke-width:0.25;"/>
<line x1="478.700000" y1="66.000000" x2="482.700000" y2="66.000000"  style="stroke:black; stroke-linecap:round; stroke-width:0.25;"/>
<line x1="482.700000" y1="36.000000" x2="526.500000" y2="36.000000"  style="stroke:black; stroke-linecap:round; stroke-width:0.25;"/>
<line x1="482.700000" y1="66.000000" x2="492.700000" y2="66.000000"  style="stroke:black; stroke-linecap:round; stroke-width:0.25;"/>
<line x1="492.700000" y1="66.000000" x2="492.700000" y2="66.000000"  style="stroke:black; stroke-linecap:round; stroke-width:0.25;"/>
<line x1="492.700000" y1="66.000000" x2="496.700000" y2="66.000000"  style="stroke:black; stroke-linecap:round; stroke-width:0.25;"/>
<line x1="522.500000" y1="66.000000" x2="526.500000" y2="66.000000"  style="stroke:black; stroke-linecap:round; stroke-width:0.25;"/>
<line x1="526.500000" y1="36.000000" x2="534.500000" y2="36.000000"  style="stroke:black; stroke-linecap:round; stroke-width:0.25;"/>
<line x1="526.500000" y1="66.000000" x2="534.500000" y2="66.000000"  style="stroke:black; stroke-linecap:round; stroke-width:0.25;"/>
<line x1="534.500000" y1="36.000000" x2="534.500000" y2="58.000000"  style="stroke:black; stroke-linecap:round; stroke-width:0.25;"/>
<line x1="534.500000" y1="58.000000" x2="534.500000" y2="58.000000"  style="stroke:black; stroke-linecap:round; stroke-width:0.25;"/>
<line x1="534.500000" y1="58.000000" x2="538.500000" y2="58.000000"  style="stroke:black; stroke-linecap:round; stroke-width:0.25;"/>
<line x1="534.500000" y1="66.000000" x2="538.500000" y2="66.000000"  style="stroke:black; stroke-linecap:round; stroke-width:0.25;"/>
<line x1="562.500000" y1="62.000000" x2="566.500000" y2="62.000000"  style="stroke:black; stroke-linecap:round; stroke-width:0.25;"/>
<line x1="566.500000" y1="62.000000" x2="566.500000" y2="62.000000"  style="stroke:black; stroke-linecap:round; stroke-width:0.25;"/>
<line x1="566.500000" y1="62.000000" x2="570.500000" y2="62.000000"  style="stroke:black; stroke-linecap:round; stroke-width:0.25;"/>
<line x1="570.500000" y1="62.000000" x2="574.500000" y2="62.000000"  style="stroke:black; stroke-linecap:round; stroke-width:0.25;"/>
<line x1="574.500000" y1="62.000000" x2="584.500000" y2="62.000000"  style="stroke:black; stroke-linecap:round; stroke-width:0.25;"/>
</svg>
