<?xml version="1.0"?>
<svg xmlns="http://www.w3.org/2000/svg" xmlns:xlink="http://www.w3.org/1999/xlink" viewBox="0 0 581.600000 124.000000" width="290.800000mm" height="62.000000mm" version="1.1">
<defs>
   <filter id="filter" filterRes="18" x="0" y="0">
     <feGaussianBlur in="SourceGraphic" stdDeviation="1.55" result="blur"/>
     <feOffset in="blur" dx="3" dy="3"/>
   </filter>
</defs>
<a xlink:href="osc-0x7fd16c2babe0.svg">
<rect x="1.000000" y="1.000000" width="580.600000" height="123.000000" rx="0.1" ry="0.1" style="stroke:none;fill:#aaaaaa;;filter:url(#filter);"/>
<rect x="0.000000" y="0.000000" width="580.600000" height="123.000000" rx="0" ry="0" style="stroke:none;fill:#ffffff;"/>
</a>
<text x="10.000000" y="7.000000" font-family="Arial" font-size="7"></text>
<rect x="35.000000" y="35.000000" width="193.500000" height="24.000000" rx="0.1" ry="0.1" style="stroke:none;fill:#aaaaaa;;filter:url(#filter);"/>
<rect x="34.000000" y="34.000000" width="193.500000" height="24.000000" rx="0" ry="0" style="stroke:none;fill:#477881;"/>
<text x="130.750000" y="48.000000" font-family="Arial" font-size="7" text-anchor="middle" fill="#FFFFFF">nentry(freq11, 200.0f, 60.0f, 1000.0f, 0.01f)</text>
<circle cx="36.000000" cy="36.000000" r="1"/>
<a xlink:href="smoo-0x7fd16c032fe0.svg">
<rect x="236.500000" y="35.000000" width="25.800000" height="24.000000" rx="0.1" ry="0.1" style="stroke:none;fill:#aaaaaa;;filter:url(#filter);"/>
<rect x="235.500000" y="34.000000" width="25.800000" height="24.000000" rx="0" ry="0" style="stroke:none;fill:#003366;"/>
</a>
<a xlink:href="smoo-0x7fd16c032fe0.svg">
<text x="248.400000" y="48.000000" font-family="Arial" font-size="7" text-anchor="middle" fill="#FFFFFF">smoo</text>
</a>
<circle cx="237.500000" cy="36.000000" r="1"/>
<line x1="232.500000" y1="45.000000" x2="235.500000" y2="46.000000"  transform="rotate(0.000000,235.500000,46.000000)" style="stroke: black; stroke-width:0.25;"/>
<line x1="232.500000" y1="47.000000" x2="235.500000" y2="46.000000"  transform="rotate(0.000000,235.500000,46.000000)" style="stroke: black; stroke-width:0.25;"/>
<line x1="25.000000" y1="25.000000" x2="25.000000" y2="67.000000"  style="stroke: black; stroke-linecap:round; stroke-width:0.25; stroke-dasharray:3,3;"/>
<line x1="25.000000" y1="67.000000" x2="270.300000" y2="67.000000"  style="stroke: black; stroke-linecap:round; stroke-width:0.25; stroke-dasharray:3,3;"/>
<line x1="270.300000" y1="67.000000" x2="270.300000" y2="25.000000"  style="stroke: black; stroke-linecap:round; stroke-width:0.25; stroke-dasharray:3,3;"/>
<line x1="25.000000" y1="25.000000" x2="30.000000" y2="25.000000"  style="stroke: black; stroke-linecap:round; stroke-width:0.25; stroke-dasharray:3,3;"/>
<line x1="75.150000" y1="25.000000" x2="270.300000" y2="25.000000"  style="stroke: black; stroke-linecap:round; stroke-width:0.25; stroke-dasharray:3,3;"/>
<text x="30.000000" y="27.000000" font-family="Arial" font-size="7">hgroup(freq)</text>
<a xlink:href="SR-0x7fd16c11ad40.svg">
<rect x="119.750000" y="77.000000" width="24.000000" height="24.000000" rx="0.1" ry="0.1" style="stroke:none;fill:#aaaaaa;;filter:url(#filter);"/>
<rect x="118.750000" y="76.000000" width="24.000000" height="24.000000" rx="0" ry="0" style="stroke:none;fill:#003366;"/>
</a>
<a xlink:href="SR-0x7fd16c11ad40.svg">
<text x="130.750000" y="90.000000" font-family="Arial" font-size="7" text-anchor="middle" fill="#FFFFFF">SR</text>
</a>
<circle cx="120.750000" cy="78.000000" r="1"/>
<rect x="151.750000" y="77.000000" width="25.800000" height="24.000000" rx="0.1" ry="0.1" style="stroke:none;fill:#aaaaaa;;filter:url(#filter);"/>
<rect x="150.750000" y="76.000000" width="25.800000" height="24.000000" rx="0" ry="0" style="stroke:none;fill:#4B71A1;"/>
<text x="163.650000" y="90.000000" font-family="Arial" font-size="7" text-anchor="middle" fill="#FFFFFF">float</text>
<circle cx="152.750000" cy="78.000000" r="1"/>
<line x1="147.750000" y1="87.000000" x2="150.750000" y2="88.000000"  transform="rotate(0.000000,150.750000,88.000000)" style="stroke: black; stroke-width:0.25;"/>
<line x1="147.750000" y1="89.000000" x2="150.750000" y2="88.000000"  transform="rotate(0.000000,150.750000,88.000000)" style="stroke: black; stroke-width:0.25;"/>
<rect x="288.300000" y="51.000000" width="24.000000" height="24.000000" rx="0.1" ry="0.1" style="stroke:none;fill:#aaaaaa;;filter:url(#filter);"/>
<rect x="287.300000" y="50.000000" width="24.000000" height="24.000000" rx="0" ry="0" style="stroke:none;fill:#4B71A1;"/>
<text x="299.300000" y="64.000000" font-family="Arial" font-size="7" text-anchor="middle" fill="#FFFFFF">/</text>
<circle cx="289.300000" cy="52.000000" r="1"/>
<line x1="284.300000" y1="57.000000" x2="287.300000" y2="58.000000"  transform="rotate(0.000000,287.300000,58.000000)" style="stroke: black; stroke-width:0.25;"/>
<line x1="284.300000" y1="59.000000" x2="287.300000" y2="58.000000"  transform="rotate(0.000000,287.300000,58.000000)" style="stroke: black; stroke-width:0.25;"/>
<line x1="284.300000" y1="65.000000" x2="287.300000" y2="66.000000"  transform="rotate(0.000000,287.300000,66.000000)" style="stroke: black; stroke-width:0.25;"/>
<line x1="284.300000" y1="67.000000" x2="287.300000" y2="66.000000"  transform="rotate(0.000000,287.300000,66.000000)" style="stroke: black; stroke-width:0.25;"/>
<rect x="336.300000" y="55.000000" width="24.000000" height="24.000000" rx="0.1" ry="0.1" style="stroke:none;fill:#aaaaaa;;filter:url(#filter);"/>
<rect x="335.300000" y="54.000000" width="24.000000" height="24.000000" rx="0" ry="0" style="stroke:none;fill:#4B71A1;"/>
<text x="347.300000" y="68.000000" font-family="Arial" font-size="7" text-anchor="middle" fill="#FFFFFF">+</text>
<circle cx="337.300000" cy="56.000000" r="1"/>
<line x1="332.300000" y1="61.000000" x2="335.300000" y2="62.000000"  transform="rotate(0.000000,335.300000,62.000000)" style="stroke: black; stroke-width:0.25;"/>
<line x1="332.300000" y1="63.000000" x2="335.300000" y2="62.000000"  transform="rotate(0.000000,335.300000,62.000000)" style="stroke: black; stroke-width:0.25;"/>
<line x1="332.300000" y1="69.000000" x2="335.300000" y2="70.000000"  transform="rotate(0.000000,335.300000,70.000000)" style="stroke: black; stroke-width:0.25;"/>
<line x1="332.300000" y1="71.000000" x2="335.300000" y2="70.000000"  transform="rotate(0.000000,335.300000,70.000000)" style="stroke: black; stroke-width:0.25;"/>
<a xlink:href="decimal-0x7fd16c121220.svg">
<rect x="368.300000" y="55.000000" width="38.700000" height="24.000000" rx="0.1" ry="0.1" style="stroke:none;fill:#aaaaaa;;filter:url(#filter);"/>
<rect x="367.300000" y="54.000000" width="38.700000" height="24.000000" rx="0" ry="0" style="stroke:none;fill:#003366;"/>
</a>
<a xlink:href="decimal-0x7fd16c121220.svg">
<text x="386.650000" y="68.000000" font-family="Arial" font-size="7" text-anchor="middle" fill="#FFFFFF">decimal</text>
</a>
<circle cx="369.300000" cy="56.000000" r="1"/>
<line x1="364.300000" y1="65.000000" x2="367.300000" y2="66.000000"  transform="rotate(0.000000,367.300000,66.000000)" style="stroke: black; stroke-width:0.25;"/>
<line x1="364.300000" y1="67.000000" x2="367.300000" y2="66.000000"  transform="rotate(0.000000,367.300000,66.000000)" style="stroke: black; stroke-width:0.25;"/>
<line x1="408.000000" y1="66.000000" x2="408.000000" y2="62.000000"  style="stroke:black; stroke-linecap:round; stroke-width:0.25;"/>
<line x1="408.000000" y1="62.000000" x2="412.000000" y2="62.000000"  style="stroke:black; stroke-linecap:round; stroke-width:0.25;"/>
<line x1="412.000000" y1="62.000000" x2="412.000000" y2="66.000000"  style="stroke:black; stroke-linecap:round; stroke-width:0.25;"/>
<rect x="441.000000" y="55.000000" width="25.800000" height="24.000000" rx="0.1" ry="0.1" style="stroke:none;fill:#aaaaaa;;filter:url(#filter);"/>
<rect x="440.000000" y="54.000000" width="25.800000" height="24.000000" rx="0" ry="0" style="stroke:none;fill:#f44800;"/>
<text x="452.900000" y="68.000000" font-family="Arial" font-size="7" text-anchor="middle" fill="#FFFFFF">65536</text>
<circle cx="442.000000" cy="56.000000" r="1"/>
<line x1="431.000000" y1="45.000000" x2="431.000000" y2="87.000000"  style="stroke: black; stroke-linecap:round; stroke-width:0.25; stroke-dasharray:3,3;"/>
<line x1="431.000000" y1="87.000000" x2="474.800000" y2="87.000000"  style="stroke: black; stroke-linecap:round; stroke-width:0.25; stroke-dasharray:3,3;"/>
<line x1="474.800000" y1="87.000000" x2="474.800000" y2="45.000000"  style="stroke: black; stroke-linecap:round; stroke-width:0.25; stroke-dasharray:3,3;"/>
<line x1="431.000000" y1="45.000000" x2="436.000000" y2="45.000000"  style="stroke: black; stroke-linecap:round; stroke-width:0.25; stroke-dasharray:3,3;"/>
<line x1="471.475000" y1="45.000000" x2="474.800000" y2="45.000000"  style="stroke: black; stroke-linecap:round; stroke-width:0.25; stroke-dasharray:3,3;"/>
<text x="436.000000" y="47.000000" font-family="Arial" font-size="7">tablesize</text>
<rect x="484.800000" y="55.000000" width="25.800000" height="24.000000" rx="0.1" ry="0.1" style="stroke:none;fill:#aaaaaa;;filter:url(#filter);"/>
<rect x="483.800000" y="54.000000" width="25.800000" height="24.000000" rx="0" ry="0" style="stroke:none;fill:#4B71A1;"/>
<text x="496.700000" y="68.000000" font-family="Arial" font-size="7" text-anchor="middle" fill="#FFFFFF">float</text>
<circle cx="485.800000" cy="56.000000" r="1"/>
<line x1="480.800000" y1="65.000000" x2="483.800000" y2="66.000000"  transform="rotate(0.000000,483.800000,66.000000)" style="stroke: black; stroke-width:0.25;"/>
<line x1="480.800000" y1="67.000000" x2="483.800000" y2="66.000000"  transform="rotate(0.000000,483.800000,66.000000)" style="stroke: black; stroke-width:0.25;"/>
<rect x="526.600000" y="51.000000" width="24.000000" height="24.000000" rx="0.1" ry="0.1" style="stroke:none;fill:#aaaaaa;;filter:url(#filter);"/>
<rect x="525.600000" y="50.000000" width="24.000000" height="24.000000" rx="0" ry="0" style="stroke:none;fill:#4B71A1;"/>
<text x="537.600000" y="64.000000" font-family="Arial" font-size="7" text-anchor="middle" fill="#FFFFFF">*</text>
<circle cx="527.600000" cy="52.000000" r="1"/>
<line x1="522.600000" y1="57.000000" x2="525.600000" y2="58.000000"  transform="rotate(0.000000,525.600000,58.000000)" style="stroke: black; stroke-width:0.25;"/>
<line x1="522.600000" y1="59.000000" x2="525.600000" y2="58.000000"  transform="rotate(0.000000,525.600000,58.000000)" style="stroke: black; stroke-width:0.25;"/>
<line x1="522.600000" y1="65.000000" x2="525.600000" y2="66.000000"  transform="rotate(0.000000,525.600000,66.000000)" style="stroke: black; stroke-width:0.25;"/>
<line x1="522.600000" y1="67.000000" x2="525.600000" y2="66.000000"  transform="rotate(0.000000,525.600000,66.000000)" style="stroke: black; stroke-width:0.25;"/>
<line x1="15.000000" y1="15.000000" x2="15.000000" y2="109.000000"  style="stroke: black; stroke-linecap:round; stroke-width:0.25; stroke-dasharray:3,3;"/>
<line x1="15.000000" y1="109.000000" x2="566.600000" y2="109.000000"  style="stroke: black; stroke-linecap:round; stroke-width:0.25; stroke-dasharray:3,3;"/>
<line x1="566.600000" y1="109.000000" x2="566.600000" y2="15.000000"  style="stroke: black; stroke-linecap:round; stroke-width:0.25; stroke-dasharray:3,3;"/>
<line x1="15.000000" y1="15.000000" x2="20.000000" y2="15.000000"  style="stroke: black; stroke-linecap:round; stroke-width:0.25; stroke-dasharray:3,3;"/>
<line x1="119.975000" y1="15.000000" x2="566.600000" y2="15.000000"  style="stroke: black; stroke-linecap:round; stroke-width:0.25; stroke-dasharray:3,3;"/>
<text x="20.000000" y="17.000000" font-family="Arial" font-size="7">phasor(65536)...0.999f : *)))</text>
<line x1="568.600000" y1="61.000000" x2="571.600000" y2="62.000000"  transform="rotate(0.000000,571.600000,62.000000)" style="stroke: black; stroke-width:0.25;"/>
<line x1="568.600000" y1="63.000000" x2="571.600000" y2="62.000000"  transform="rotate(0.000000,571.600000,62.000000)" style="stroke: black; stroke-width:0.25;"/>
<line x1="142.750000" y1="88.000000" x2="146.750000" y2="88.000000"  style="stroke:black; stroke-linecap:round; stroke-width:0.25;"/>
<line x1="146.750000" y1="88.000000" x2="146.750000" y2="88.000000"  style="stroke:black; stroke-linecap:round; stroke-width:0.25;"/>
<line x1="146.750000" y1="88.000000" x2="150.750000" y2="88.000000"  style="stroke:black; stroke-linecap:round; stroke-width:0.25;"/>
<line x1="176.550000" y1="88.000000" x2="180.550000" y2="88.000000"  style="stroke:black; stroke-linecap:round; stroke-width:0.25;"/>
<line x1="180.550000" y1="88.000000" x2="275.300000" y2="88.000000"  style="stroke:black; stroke-linecap:round; stroke-width:0.25;"/>
<line x1="227.500000" y1="46.000000" x2="231.500000" y2="46.000000"  style="stroke:black; stroke-linecap:round; stroke-width:0.25;"/>
<line x1="231.500000" y1="46.000000" x2="231.500000" y2="46.000000"  style="stroke:black; stroke-linecap:round; stroke-width:0.25;"/>
<line x1="231.500000" y1="46.000000" x2="235.500000" y2="46.000000"  style="stroke:black; stroke-linecap:round; stroke-width:0.25;"/>
<line x1="261.300000" y1="46.000000" x2="265.300000" y2="46.000000"  style="stroke:black; stroke-linecap:round; stroke-width:0.25;"/>
<line x1="265.300000" y1="46.000000" x2="275.300000" y2="46.000000"  style="stroke:black; stroke-linecap:round; stroke-width:0.25;"/>
<line x1="275.300000" y1="46.000000" x2="283.300000" y2="46.000000"  style="stroke:black; stroke-linecap:round; stroke-width:0.25;"/>
<line x1="275.300000" y1="66.000000" x2="283.300000" y2="66.000000"  style="stroke:black; stroke-linecap:round; stroke-width:0.25;"/>
<line x1="275.300000" y1="88.000000" x2="275.300000" y2="66.000000"  style="stroke:black; stroke-linecap:round; stroke-width:0.25;"/>
<line x1="275.300000" y1="88.000000" x2="275.300000" y2="88.000000"  style="stroke:black; stroke-linecap:round; stroke-width:0.25;"/>
<line x1="283.300000" y1="46.000000" x2="283.300000" y2="58.000000"  style="stroke:black; stroke-linecap:round; stroke-width:0.25;"/>
<line x1="283.300000" y1="58.000000" x2="283.300000" y2="58.000000"  style="stroke:black; stroke-linecap:round; stroke-width:0.25;"/>
<line x1="283.300000" y1="58.000000" x2="287.300000" y2="58.000000"  style="stroke:black; stroke-linecap:round; stroke-width:0.25;"/>
<line x1="283.300000" y1="66.000000" x2="287.300000" y2="66.000000"  style="stroke:black; stroke-linecap:round; stroke-width:0.25;"/>
<line x1="311.300000" y1="62.000000" x2="315.300000" y2="62.000000"  style="stroke:black; stroke-linecap:round; stroke-width:0.25;"/>
<line x1="315.300000" y1="62.000000" x2="323.300000" y2="62.000000"  style="stroke:black; stroke-linecap:round; stroke-width:0.25;"/>
<line x1="323.300000" y1="62.000000" x2="323.300000" y2="70.000000"  style="stroke:black; stroke-linecap:round; stroke-width:0.25;"/>
<line x1="323.300000" y1="70.000000" x2="323.300000" y2="70.000000"  style="stroke:black; stroke-linecap:round; stroke-width:0.25;"/>
<line x1="323.300000" y1="70.000000" x2="331.300000" y2="70.000000"  style="stroke:black; stroke-linecap:round; stroke-width:0.25;"/>
<line x1="331.300000" y1="46.000000" x2="331.300000" y2="46.000000"  style="stroke:black; stroke-linecap:round; stroke-width:0.25;"/>
<line x1="331.300000" y1="46.000000" x2="331.300000" y2="62.000000"  style="stroke:black; stroke-linecap:round; stroke-width:0.25;"/>
<line x1="331.300000" y1="62.000000" x2="331.300000" y2="62.000000"  style="stroke:black; stroke-linecap:round; stroke-width:0.25;"/>
<line x1="331.300000" y1="62.000000" x2="335.300000" y2="62.000000"  style="stroke:black; stroke-linecap:round; stroke-width:0.25;"/>
<line x1="331.300000" y1="70.000000" x2="335.300000" y2="70.000000"  style="stroke:black; stroke-linecap:round; stroke-width:0.25;"/>
<line x1="359.300000" y1="66.000000" x2="363.300000" y2="66.000000"  style="stroke:black; stroke-linecap:round; stroke-width:0.25;"/>
<line x1="363.300000" y1="66.000000" x2="363.300000" y2="66.000000"  style="stroke:black; stroke-linecap:round; stroke-width:0.25;"/>
<line x1="363.300000" y1="66.000000" x2="367.300000" y2="66.000000"  style="stroke:black; stroke-linecap:round; stroke-width:0.25;"/>
<line x1="370.650000" y1="46.000000" x2="331.300000" y2="46.000000"  style="stroke:black; stroke-linecap:round; stroke-width:0.25;"/>
<line x1="406.000000" y1="66.000000" x2="410.000000" y2="66.000000"  style="stroke:black; stroke-linecap:round; stroke-width:0.25;"/>
<line x1="410.000000" y1="46.000000" x2="370.650000" y2="46.000000"  style="stroke:black; stroke-linecap:round; stroke-width:0.25;"/>
<line x1="410.000000" y1="46.000000" x2="410.000000" y2="46.000000"  style="stroke:black; stroke-linecap:round; stroke-width:0.25;"/>
<line x1="410.000000" y1="62.000000" x2="410.000000" y2="46.000000"  style="stroke:black; stroke-linecap:round; stroke-width:0.25;"/>
<line x1="410.000000" y1="66.000000" x2="412.000000" y2="66.000000"  style="stroke:black; stroke-linecap:round; stroke-width:0.25;"/>
<line x1="412.000000" y1="66.000000" x2="418.000000" y2="66.000000"  style="stroke:black; stroke-linecap:round; stroke-width:0.25;"/>
<line x1="418.000000" y1="36.000000" x2="426.000000" y2="36.000000"  style="stroke:black; stroke-linecap:round; stroke-width:0.25;"/>
<line x1="418.000000" y1="66.000000" x2="418.000000" y2="36.000000"  style="stroke:black; stroke-linecap:round; stroke-width:0.25;"/>
<line x1="418.000000" y1="66.000000" x2="418.000000" y2="66.000000"  style="stroke:black; stroke-linecap:round; stroke-width:0.25;"/>
<line x1="426.000000" y1="36.000000" x2="469.800000" y2="36.000000"  style="stroke:black; stroke-linecap:round; stroke-width:0.25;"/>
<line x1="465.800000" y1="66.000000" x2="469.800000" y2="66.000000"  style="stroke:black; stroke-linecap:round; stroke-width:0.25;"/>
<line x1="469.800000" y1="36.000000" x2="513.600000" y2="36.000000"  style="stroke:black; stroke-linecap:round; stroke-width:0.25;"/>
<line x1="469.800000" y1="66.000000" x2="479.800000" y2="66.000000"  style="stroke:black; stroke-linecap:round; stroke-width:0.25;"/>
<line x1="479.800000" y1="66.000000" x2="479.800000" y2="66.000000"  style="stroke:black; stroke-linecap:round; stroke-width:0.25;"/>
<line x1="479.800000" y1="66.000000" x2="483.800000" y2="66.000000"  style="stroke:black; stroke-linecap:round; stroke-width:0.25;"/>
<line x1="509.600000" y1="66.000000" x2="513.600000" y2="66.000000"  style="stroke:black; stroke-linecap:round; stroke-width:0.25;"/>
<line x1="513.600000" y1="36.000000" x2="521.600000" y2="36.000000"  style="stroke:black; stroke-linecap:round; stroke-width:0.25;"/>
<line x1="513.600000" y1="66.000000" x2="521.600000" y2="66.000000"  style="stroke:black; stroke-linecap:round; stroke-width:0.25;"/>
<line x1="521.600000" y1="36.000000" x2="521.600000" y2="58.000000"  style="stroke:black; stroke-linecap:round; stroke-width:0.25;"/>
<line x1="521.600000" y1="58.000000" x2="521.600000" y2="58.000000"  style="stroke:black; stroke-linecap:round; stroke-width:0.25;"/>
<line x1="521.600000" y1="58.000000" x2="525.600000" y2="58.000000"  style="stroke:black; stroke-linecap:round; stroke-width:0.25;"/>
<line x1="521.600000" y1="66.000000" x2="525.600000" y2="66.000000"  style="stroke:black; stroke-linecap:round; stroke-width:0.25;"/>
<line x1="549.600000" y1="62.000000" x2="553.600000" y2="62.000000"  style="stroke:black; stroke-linecap:round; stroke-width:0.25;"/>
<line x1="553.600000" y1="62.000000" x2="553.600000" y2="62.000000"  style="stroke:black; stroke-linecap:round; stroke-width:0.25;"/>
<line x1="553.600000" y1="62.000000" x2="557.600000" y2="62.000000"  style="stroke:black; stroke-linecap:round; stroke-width:0.25;"/>
<line x1="557.600000" y1="62.000000" x2="561.600000" y2="62.000000"  style="stroke:black; stroke-linecap:round; stroke-width:0.25;"/>
<line x1="561.600000" y1="62.000000" x2="571.600000" y2="62.000000"  style="stroke:black; stroke-linecap:round; stroke-width:0.25;"/>
</svg>
