<?xml version="1.0"?>
<svg xmlns="http://www.w3.org/2000/svg" xmlns:xlink="http://www.w3.org/1999/xlink" viewBox="0 0 375.300000 156.000000" width="187.650000mm" height="78.000000mm" version="1.1">
<defs>
   <filter id="filter" filterRes="18" x="0" y="0">
     <feGaussianBlur in="SourceGraphic" stdDeviation="1.55" result="blur"/>
     <feOffset in="blur" dx="3" dy="3"/>
   </filter>
</defs>
<a xlink:href="partial-0x7f0fe9969690.svg">
<rect x="1.000000" y="1.000000" width="374.300000" height="155.000000" rx="0.1" ry="0.1" style="stroke:none;fill:#aaaaaa;;filter:url(#filter);"/>
<rect x="0.000000" y="0.000000" width="374.300000" height="155.000000" rx="0" ry="0" style="stroke:none;fill:#ffffff;"/>
</a>
<text x="10.000000" y="7.000000" font-family="Arial" font-size="7"></text>
<rect x="176.650000" y="109.000000" width="24.000000" height="24.000000" rx="0.1" ry="0.1" style="stroke:none;fill:#aaaaaa;;filter:url(#filter);"/>
<rect x="175.650000" y="108.000000" width="24.000000" height="24.000000" rx="0" ry="0" style="stroke:none;fill:#4B71A1;"/>
<text x="187.650000" y="122.000000" font-family="Arial" font-size="7" text-anchor="middle" fill="#FFFFFF">+</text>
<circle cx="177.650000" cy="110.000000" r="1"/>
<line x1="172.650000" y1="115.000000" x2="175.650000" y2="116.000000"  transform="rotate(0.000000,175.650000,116.000000)" style="stroke: black; stroke-width:0.25;"/>
<line x1="172.650000" y1="117.000000" x2="175.650000" y2="116.000000"  transform="rotate(0.000000,175.650000,116.000000)" style="stroke: black; stroke-width:0.25;"/>
<line x1="172.650000" y1="123.000000" x2="175.650000" y2="124.000000"  transform="rotate(0.000000,175.650000,124.000000)" style="stroke: black; stroke-width:0.25;"/>
<line x1="172.650000" y1="125.000000" x2="175.650000" y2="124.000000"  transform="rotate(0.000000,175.650000,124.000000)" style="stroke: black; stroke-width:0.25;"/>
<a xlink:href="delay-0x7f0fe99690e0.svg">
<rect x="144.150000" y="77.000000" width="129.000000" height="24.000000" rx="0.1" ry="0.1" style="stroke:none;fill:#aaaaaa;;filter:url(#filter);"/>
<rect x="143.150000" y="76.000000" width="129.000000" height="24.000000" rx="0" ry="0" style="stroke:none;fill:#003366;"/>
</a>
<a xlink:href="delay-0x7f0fe99690e0.svg">
<text x="207.650000" y="90.000000" font-family="Arial" font-size="7" text-anchor="middle" fill="#FFFFFF">delay((192000...000001f) : *)</text>
</a>
<circle cx="270.150000" cy="98.000000" r="1"/>
<line x1="275.150000" y1="87.000000" x2="272.150000" y2="88.000000"  transform="rotate(0.000000,272.150000,88.000000)" style="stroke: black; stroke-width:0.25;"/>
<line x1="275.150000" y1="89.000000" x2="272.150000" y2="88.000000"  transform="rotate(0.000000,272.150000,88.000000)" style="stroke: black; stroke-width:0.25;"/>
<rect x="99.000000" y="35.000000" width="219.300000" height="24.000000" rx="0.1" ry="0.1" style="stroke:none;fill:#aaaaaa;;filter:url(#filter);"/>
<rect x="98.000000" y="34.000000" width="219.300000" height="24.000000" rx="0" ry="0" style="stroke:none;fill:#477881;"/>
<text x="207.650000" y="48.000000" font-family="Arial" font-size="7" text-anchor="middle" fill="#FFFFFF">nentry(fb, 0.0f, 0.0f, 1.0f, 0.10000000000000001f)</text>
<circle cx="315.300000" cy="56.000000" r="1"/>
<line x1="89.000000" y1="25.000000" x2="89.000000" y2="67.000000"  style="stroke: black; stroke-linecap:round; stroke-width:0.25; stroke-dasharray:3,3;"/>
<line x1="89.000000" y1="67.000000" x2="326.300000" y2="67.000000"  style="stroke: black; stroke-linecap:round; stroke-width:0.25; stroke-dasharray:3,3;"/>
<line x1="326.300000" y1="67.000000" x2="326.300000" y2="25.000000"  style="stroke: black; stroke-linecap:round; stroke-width:0.25; stroke-dasharray:3,3;"/>
<line x1="89.000000" y1="25.000000" x2="94.000000" y2="25.000000"  style="stroke: black; stroke-linecap:round; stroke-width:0.25; stroke-dasharray:3,3;"/>
<line x1="106.900000" y1="25.000000" x2="326.300000" y2="25.000000"  style="stroke: black; stroke-linecap:round; stroke-width:0.25; stroke-dasharray:3,3;"/>
<text x="94.000000" y="27.000000" font-family="Arial" font-size="7">fb</text>
<rect x="49.000000" y="51.000000" width="24.000000" height="24.000000" rx="0.1" ry="0.1" style="stroke:none;fill:#aaaaaa;;filter:url(#filter);"/>
<rect x="48.000000" y="50.000000" width="24.000000" height="24.000000" rx="0" ry="0" style="stroke:none;fill:#4B71A1;"/>
<text x="60.000000" y="64.000000" font-family="Arial" font-size="7" text-anchor="middle" fill="#FFFFFF">*</text>
<circle cx="70.000000" cy="72.000000" r="1"/>
<line x1="75.000000" y1="65.000000" x2="72.000000" y2="66.000000"  transform="rotate(0.000000,72.000000,66.000000)" style="stroke: black; stroke-width:0.25;"/>
<line x1="75.000000" y1="67.000000" x2="72.000000" y2="66.000000"  transform="rotate(0.000000,72.000000,66.000000)" style="stroke: black; stroke-width:0.25;"/>
<line x1="75.000000" y1="57.000000" x2="72.000000" y2="58.000000"  transform="rotate(0.000000,72.000000,58.000000)" style="stroke: black; stroke-width:0.25;"/>
<line x1="75.000000" y1="59.000000" x2="72.000000" y2="58.000000"  transform="rotate(0.000000,72.000000,58.000000)" style="stroke: black; stroke-width:0.25;"/>
<line x1="329.300000" y1="120.000000" x2="329.300000" y2="116.000000"  style="stroke:black; stroke-linecap:round; stroke-width:0.25;"/>
<line x1="329.300000" y1="116.000000" x2="333.300000" y2="116.000000"  style="stroke:black; stroke-linecap:round; stroke-width:0.25;"/>
<line x1="333.300000" y1="116.000000" x2="333.300000" y2="120.000000"  style="stroke:black; stroke-linecap:round; stroke-width:0.25;"/>
<line x1="15.000000" y1="15.000000" x2="15.000000" y2="141.000000"  style="stroke: black; stroke-linecap:round; stroke-width:0.25; stroke-dasharray:3,3;"/>
<line x1="15.000000" y1="141.000000" x2="360.300000" y2="141.000000"  style="stroke: black; stroke-linecap:round; stroke-width:0.25; stroke-dasharray:3,3;"/>
<line x1="360.300000" y1="141.000000" x2="360.300000" y2="15.000000"  style="stroke: black; stroke-linecap:round; stroke-width:0.25; stroke-dasharray:3,3;"/>
<line x1="15.000000" y1="15.000000" x2="20.000000" y2="15.000000"  style="stroke: black; stroke-linecap:round; stroke-width:0.25; stroke-dasharray:3,3;"/>
<line x1="119.975000" y1="15.000000" x2="360.300000" y2="15.000000"  style="stroke: black; stroke-linecap:round; stroke-width:0.25; stroke-dasharray:3,3;"/>
<text x="20.000000" y="17.000000" font-family="Arial" font-size="7">echo(nentry(&quot;...0000000001f))</text>
<line x1="362.300000" y1="77.000000" x2="365.300000" y2="78.000000"  transform="rotate(0.000000,365.300000,78.000000)" style="stroke: black; stroke-width:0.25;"/>
<line x1="362.300000" y1="79.000000" x2="365.300000" y2="78.000000"  transform="rotate(0.000000,365.300000,78.000000)" style="stroke: black; stroke-width:0.25;"/>
<line x1="10.000000" y1="78.000000" x2="20.000000" y2="78.000000"  style="stroke:black; stroke-linecap:round; stroke-width:0.25;"/>
<line x1="20.000000" y1="78.000000" x2="24.000000" y2="78.000000"  style="stroke:black; stroke-linecap:round; stroke-width:0.25;"/>
<line x1="24.000000" y1="78.000000" x2="28.000000" y2="78.000000"  style="stroke:black; stroke-linecap:round; stroke-width:0.25;"/>
<line x1="28.000000" y1="78.000000" x2="36.000000" y2="78.000000"  style="stroke:black; stroke-linecap:round; stroke-width:0.25;"/>
<line x1="36.000000" y1="78.000000" x2="36.000000" y2="124.000000"  style="stroke:black; stroke-linecap:round; stroke-width:0.25;"/>
<line x1="36.000000" y1="124.000000" x2="36.000000" y2="124.000000"  style="stroke:black; stroke-linecap:round; stroke-width:0.25;"/>
<line x1="36.000000" y1="124.000000" x2="44.000000" y2="124.000000"  style="stroke:black; stroke-linecap:round; stroke-width:0.25;"/>
<line x1="44.000000" y1="62.000000" x2="44.000000" y2="62.000000"  style="stroke:black; stroke-linecap:round; stroke-width:0.25;"/>
<line x1="44.000000" y1="62.000000" x2="44.000000" y2="116.000000"  style="stroke:black; stroke-linecap:round; stroke-width:0.25;"/>
<line x1="44.000000" y1="116.000000" x2="44.000000" y2="116.000000"  style="stroke:black; stroke-linecap:round; stroke-width:0.25;"/>
<line x1="44.000000" y1="116.000000" x2="171.650000" y2="116.000000"  style="stroke:black; stroke-linecap:round; stroke-width:0.25;"/>
<line x1="44.000000" y1="124.000000" x2="171.650000" y2="124.000000"  style="stroke:black; stroke-linecap:round; stroke-width:0.25;"/>
<line x1="48.000000" y1="62.000000" x2="44.000000" y2="62.000000"  style="stroke:black; stroke-linecap:round; stroke-width:0.25;"/>
<line x1="76.000000" y1="66.000000" x2="76.000000" y2="66.000000"  style="stroke:black; stroke-linecap:round; stroke-width:0.25;"/>
<line x1="76.000000" y1="88.000000" x2="76.000000" y2="66.000000"  style="stroke:black; stroke-linecap:round; stroke-width:0.25;"/>
<line x1="76.000000" y1="58.000000" x2="72.000000" y2="58.000000"  style="stroke:black; stroke-linecap:round; stroke-width:0.25;"/>
<line x1="76.000000" y1="66.000000" x2="72.000000" y2="66.000000"  style="stroke:black; stroke-linecap:round; stroke-width:0.25;"/>
<line x1="84.000000" y1="88.000000" x2="76.000000" y2="88.000000"  style="stroke:black; stroke-linecap:round; stroke-width:0.25;"/>
<line x1="84.000000" y1="46.000000" x2="84.000000" y2="46.000000"  style="stroke:black; stroke-linecap:round; stroke-width:0.25;"/>
<line x1="84.000000" y1="46.000000" x2="84.000000" y2="58.000000"  style="stroke:black; stroke-linecap:round; stroke-width:0.25;"/>
<line x1="84.000000" y1="58.000000" x2="76.000000" y2="58.000000"  style="stroke:black; stroke-linecap:round; stroke-width:0.25;"/>
<line x1="94.000000" y1="46.000000" x2="84.000000" y2="46.000000"  style="stroke:black; stroke-linecap:round; stroke-width:0.25;"/>
<line x1="98.000000" y1="46.000000" x2="94.000000" y2="46.000000"  style="stroke:black; stroke-linecap:round; stroke-width:0.25;"/>
<line x1="139.150000" y1="88.000000" x2="84.000000" y2="88.000000"  style="stroke:black; stroke-linecap:round; stroke-width:0.25;"/>
<line x1="143.150000" y1="88.000000" x2="139.150000" y2="88.000000"  style="stroke:black; stroke-linecap:round; stroke-width:0.25;"/>
<line x1="171.650000" y1="116.000000" x2="175.650000" y2="116.000000"  style="stroke:black; stroke-linecap:round; stroke-width:0.25;"/>
<line x1="171.650000" y1="124.000000" x2="175.650000" y2="124.000000"  style="stroke:black; stroke-linecap:round; stroke-width:0.25;"/>
<line x1="199.650000" y1="120.000000" x2="203.650000" y2="120.000000"  style="stroke:black; stroke-linecap:round; stroke-width:0.25;"/>
<line x1="203.650000" y1="120.000000" x2="331.300000" y2="120.000000"  style="stroke:black; stroke-linecap:round; stroke-width:0.25;"/>
<line x1="276.150000" y1="88.000000" x2="272.150000" y2="88.000000"  style="stroke:black; stroke-linecap:round; stroke-width:0.25;"/>
<line x1="331.300000" y1="88.000000" x2="276.150000" y2="88.000000"  style="stroke:black; stroke-linecap:round; stroke-width:0.25;"/>
<line x1="331.300000" y1="88.000000" x2="331.300000" y2="88.000000"  style="stroke:black; stroke-linecap:round; stroke-width:0.25;"/>
<line x1="331.300000" y1="116.000000" x2="331.300000" y2="88.000000"  style="stroke:black; stroke-linecap:round; stroke-width:0.25;"/>
<line x1="331.300000" y1="120.000000" x2="333.300000" y2="120.000000"  style="stroke:black; stroke-linecap:round; stroke-width:0.25;"/>
<line x1="333.300000" y1="120.000000" x2="339.300000" y2="120.000000"  style="stroke:black; stroke-linecap:round; stroke-width:0.25;"/>
<line x1="339.300000" y1="78.000000" x2="347.300000" y2="78.000000"  style="stroke:black; stroke-linecap:round; stroke-width:0.25;"/>
<line x1="339.300000" y1="120.000000" x2="339.300000" y2="78.000000"  style="stroke:black; stroke-linecap:round; stroke-width:0.25;"/>
<line x1="339.300000" y1="120.000000" x2="339.300000" y2="120.000000"  style="stroke:black; stroke-linecap:round; stroke-width:0.25;"/>
<line x1="347.300000" y1="78.000000" x2="351.300000" y2="78.000000"  style="stroke:black; stroke-linecap:round; stroke-width:0.25;"/>
<line x1="351.300000" y1="78.000000" x2="355.300000" y2="78.000000"  style="stroke:black; stroke-linecap:round; stroke-width:0.25;"/>
<line x1="355.300000" y1="78.000000" x2="365.300000" y2="78.000000"  style="stroke:black; stroke-linecap:round; stroke-width:0.25;"/>
</svg>
