<?xml version="1.0"?>
<svg xmlns="http://www.w3.org/2000/svg" xmlns:xlink="http://www.w3.org/1999/xlink" viewBox="0 0 559.000000 156.000000" width="279.500000mm" height="78.000000mm" version="1.1">
<defs>
   <filter id="filter" filterRes="18" x="0" y="0">
     <feGaussianBlur in="SourceGraphic" stdDeviation="1.55" result="blur"/>
     <feOffset in="blur" dx="3" dy="3"/>
   </filter>
</defs>
<a xlink:href="process.svg">
<rect x="1.000000" y="1.000000" width="558.000000" height="155.000000" rx="0.1" ry="0.1" style="stroke:none;fill:#aaaaaa;;filter:url(#filter);"/>
<rect x="0.000000" y="0.000000" width="558.000000" height="155.000000" rx="0" ry="0" style="stroke:none;fill:#ffffff;"/>
</a>
<text x="10.000000" y="7.000000" font-family="Arial" font-size="7"></text>
<a xlink:href="pulsetrain-0x7f65c590dc10.svg">
<rect x="35.000000" y="35.000000" width="129.000000" height="24.000000" rx="0.1" ry="0.1" style="stroke:none;fill:#aaaaaa;;filter:url(#filter);"/>
<rect x="34.000000" y="34.000000" width="129.000000" height="24.000000" rx="0" ry="0" style="stroke:none;fill:#003366;"/>
</a>
<a xlink:href="pulsetrain-0x7f65c590dc10.svg">
<text x="98.500000" y="48.000000" font-family="Arial" font-size="7" text-anchor="middle" fill="#FFFFFF">pulsetrain(ne...,0.999f : *))</text>
</a>
<circle cx="36.000000" cy="36.000000" r="1"/>
<a xlink:href="lowpass-0x7f65c58e3f10.svg">
<rect x="172.000000" y="35.000000" width="129.000000" height="24.000000" rx="0.1" ry="0.1" style="stroke:none;fill:#aaaaaa;;filter:url(#filter);"/>
<rect x="171.000000" y="34.000000" width="129.000000" height="24.000000" rx="0" ry="0" style="stroke:none;fill:#003366;"/>
</a>
<a xlink:href="lowpass-0x7f65c58e3f10.svg">
<text x="235.500000" y="48.000000" font-family="Arial" font-size="7" text-anchor="middle" fill="#FFFFFF">lowpass(6)(vs...,0.999f : *))</text>
</a>
<circle cx="173.000000" cy="36.000000" r="1"/>
<line x1="168.000000" y1="45.000000" x2="171.000000" y2="46.000000"  transform="rotate(0.000000,171.000000,46.000000)" style="stroke: black; stroke-width:0.25;"/>
<line x1="168.000000" y1="47.000000" x2="171.000000" y2="46.000000"  transform="rotate(0.000000,171.000000,46.000000)" style="stroke: black; stroke-width:0.25;"/>
<a xlink:href="gain-0x7f65c58e5480.svg">
<rect x="155.100000" y="67.000000" width="25.800000" height="24.000000" rx="0.1" ry="0.1" style="stroke:none;fill:#aaaaaa;;filter:url(#filter);"/>
<rect x="154.100000" y="66.000000" width="25.800000" height="24.000000" rx="0" ry="0" style="stroke:none;fill:#003366;"/>
</a>
<a xlink:href="gain-0x7f65c58e5480.svg">
<text x="167.000000" y="80.000000" font-family="Arial" font-size="7" text-anchor="middle" fill="#FFFFFF">gain</text>
</a>
<circle cx="156.100000" cy="68.000000" r="1"/>
<rect x="317.000000" y="51.000000" width="24.000000" height="24.000000" rx="0.1" ry="0.1" style="stroke:none;fill:#aaaaaa;;filter:url(#filter);"/>
<rect x="316.000000" y="50.000000" width="24.000000" height="24.000000" rx="0" ry="0" style="stroke:none;fill:#4B71A1;"/>
<text x="328.000000" y="64.000000" font-family="Arial" font-size="7" text-anchor="middle" fill="#FFFFFF">*</text>
<circle cx="318.000000" cy="52.000000" r="1"/>
<line x1="313.000000" y1="57.000000" x2="316.000000" y2="58.000000"  transform="rotate(0.000000,316.000000,58.000000)" style="stroke: black; stroke-width:0.25;"/>
<line x1="313.000000" y1="59.000000" x2="316.000000" y2="58.000000"  transform="rotate(0.000000,316.000000,58.000000)" style="stroke: black; stroke-width:0.25;"/>
<line x1="313.000000" y1="65.000000" x2="316.000000" y2="66.000000"  transform="rotate(0.000000,316.000000,66.000000)" style="stroke: black; stroke-width:0.25;"/>
<line x1="313.000000" y1="67.000000" x2="316.000000" y2="66.000000"  transform="rotate(0.000000,316.000000,66.000000)" style="stroke: black; stroke-width:0.25;"/>
<a xlink:href="env-0x7f65c590e350.svg">
<rect x="176.000000" y="99.000000" width="24.000000" height="24.000000" rx="0.1" ry="0.1" style="stroke:none;fill:#aaaaaa;;filter:url(#filter);"/>
<rect x="175.000000" y="98.000000" width="24.000000" height="24.000000" rx="0" ry="0" style="stroke:none;fill:#003366;"/>
</a>
<a xlink:href="env-0x7f65c590e350.svg">
<text x="187.000000" y="112.000000" font-family="Arial" font-size="7" text-anchor="middle" fill="#FFFFFF">env</text>
</a>
<circle cx="177.000000" cy="100.000000" r="1"/>
<rect x="357.000000" y="67.000000" width="24.000000" height="24.000000" rx="0.1" ry="0.1" style="stroke:none;fill:#aaaaaa;;filter:url(#filter);"/>
<rect x="356.000000" y="66.000000" width="24.000000" height="24.000000" rx="0" ry="0" style="stroke:none;fill:#4B71A1;"/>
<text x="368.000000" y="80.000000" font-family="Arial" font-size="7" text-anchor="middle" fill="#FFFFFF">*</text>
<circle cx="358.000000" cy="68.000000" r="1"/>
<line x1="353.000000" y1="73.000000" x2="356.000000" y2="74.000000"  transform="rotate(0.000000,356.000000,74.000000)" style="stroke: black; stroke-width:0.25;"/>
<line x1="353.000000" y1="75.000000" x2="356.000000" y2="74.000000"  transform="rotate(0.000000,356.000000,74.000000)" style="stroke: black; stroke-width:0.25;"/>
<line x1="353.000000" y1="81.000000" x2="356.000000" y2="82.000000"  transform="rotate(0.000000,356.000000,82.000000)" style="stroke: black; stroke-width:0.25;"/>
<line x1="353.000000" y1="83.000000" x2="356.000000" y2="82.000000"  transform="rotate(0.000000,356.000000,82.000000)" style="stroke: black; stroke-width:0.25;"/>
<a xlink:href="echo-0x7f65c5911060.svg">
<rect x="389.000000" y="67.000000" width="129.000000" height="24.000000" rx="0.1" ry="0.1" style="stroke:none;fill:#aaaaaa;;filter:url(#filter);"/>
<rect x="388.000000" y="66.000000" width="129.000000" height="24.000000" rx="0" ry="0" style="stroke:none;fill:#003366;"/>
</a>
<a xlink:href="echo-0x7f65c5911060.svg">
<text x="452.500000" y="80.000000" font-family="Arial" font-size="7" text-anchor="middle" fill="#FFFFFF">echo(nentry(&quot;...0000000001f))</text>
</a>
<circle cx="390.000000" cy="68.000000" r="1"/>
<line x1="385.000000" y1="77.000000" x2="388.000000" y2="78.000000"  transform="rotate(0.000000,388.000000,78.000000)" style="stroke: black; stroke-width:0.25;"/>
<line x1="385.000000" y1="79.000000" x2="388.000000" y2="78.000000"  transform="rotate(0.000000,388.000000,78.000000)" style="stroke: black; stroke-width:0.25;"/>
<line x1="25.000000" y1="25.000000" x2="25.000000" y2="131.000000"  style="stroke: black; stroke-linecap:round; stroke-width:0.25; stroke-dasharray:3,3;"/>
<line x1="25.000000" y1="131.000000" x2="526.000000" y2="131.000000"  style="stroke: black; stroke-linecap:round; stroke-width:0.25; stroke-dasharray:3,3;"/>
<line x1="526.000000" y1="131.000000" x2="526.000000" y2="25.000000"  style="stroke: black; stroke-linecap:round; stroke-width:0.25; stroke-dasharray:3,3;"/>
<line x1="25.000000" y1="25.000000" x2="30.000000" y2="25.000000"  style="stroke: black; stroke-linecap:round; stroke-width:0.25; stroke-dasharray:3,3;"/>
<line x1="71.925000" y1="25.000000" x2="526.000000" y2="25.000000"  style="stroke: black; stroke-linecap:round; stroke-width:0.25; stroke-dasharray:3,3;"/>
<text x="30.000000" y="27.000000" font-family="Arial" font-size="7">vgroup(BL4)</text>
<line x1="15.000000" y1="15.000000" x2="15.000000" y2="141.000000"  style="stroke: black; stroke-linecap:round; stroke-width:0.25; stroke-dasharray:3,3;"/>
<line x1="15.000000" y1="141.000000" x2="544.000000" y2="141.000000"  style="stroke: black; stroke-linecap:round; stroke-width:0.25; stroke-dasharray:3,3;"/>
<line x1="544.000000" y1="141.000000" x2="544.000000" y2="15.000000"  style="stroke: black; stroke-linecap:round; stroke-width:0.25; stroke-dasharray:3,3;"/>
<line x1="15.000000" y1="15.000000" x2="20.000000" y2="15.000000"  style="stroke: black; stroke-linecap:round; stroke-width:0.25; stroke-dasharray:3,3;"/>
<line x1="58.700000" y1="15.000000" x2="544.000000" y2="15.000000"  style="stroke: black; stroke-linecap:round; stroke-width:0.25; stroke-dasharray:3,3;"/>
<text x="20.000000" y="17.000000" font-family="Arial" font-size="7">partial(4)</text>
<line x1="546.000000" y1="77.000000" x2="549.000000" y2="78.000000"  transform="rotate(0.000000,549.000000,78.000000)" style="stroke: black; stroke-width:0.25;"/>
<line x1="546.000000" y1="79.000000" x2="549.000000" y2="78.000000"  transform="rotate(0.000000,549.000000,78.000000)" style="stroke: black; stroke-width:0.25;"/>
<line x1="163.000000" y1="46.000000" x2="167.000000" y2="46.000000"  style="stroke:black; stroke-linecap:round; stroke-width:0.25;"/>
<line x1="167.000000" y1="46.000000" x2="167.000000" y2="46.000000"  style="stroke:black; stroke-linecap:round; stroke-width:0.25;"/>
<line x1="167.000000" y1="46.000000" x2="171.000000" y2="46.000000"  style="stroke:black; stroke-linecap:round; stroke-width:0.25;"/>
<line x1="179.900000" y1="78.000000" x2="183.900000" y2="78.000000"  style="stroke:black; stroke-linecap:round; stroke-width:0.25;"/>
<line x1="183.900000" y1="78.000000" x2="304.000000" y2="78.000000"  style="stroke:black; stroke-linecap:round; stroke-width:0.25;"/>
<line x1="199.000000" y1="110.000000" x2="203.000000" y2="110.000000"  style="stroke:black; stroke-linecap:round; stroke-width:0.25;"/>
<line x1="203.000000" y1="110.000000" x2="344.000000" y2="110.000000"  style="stroke:black; stroke-linecap:round; stroke-width:0.25;"/>
<line x1="300.000000" y1="46.000000" x2="304.000000" y2="46.000000"  style="stroke:black; stroke-linecap:round; stroke-width:0.25;"/>
<line x1="304.000000" y1="46.000000" x2="312.000000" y2="46.000000"  style="stroke:black; stroke-linecap:round; stroke-width:0.25;"/>
<line x1="304.000000" y1="66.000000" x2="312.000000" y2="66.000000"  style="stroke:black; stroke-linecap:round; stroke-width:0.25;"/>
<line x1="304.000000" y1="78.000000" x2="304.000000" y2="66.000000"  style="stroke:black; stroke-linecap:round; stroke-width:0.25;"/>
<line x1="304.000000" y1="78.000000" x2="304.000000" y2="78.000000"  style="stroke:black; stroke-linecap:round; stroke-width:0.25;"/>
<line x1="312.000000" y1="46.000000" x2="312.000000" y2="58.000000"  style="stroke:black; stroke-linecap:round; stroke-width:0.25;"/>
<line x1="312.000000" y1="58.000000" x2="312.000000" y2="58.000000"  style="stroke:black; stroke-linecap:round; stroke-width:0.25;"/>
<line x1="312.000000" y1="58.000000" x2="316.000000" y2="58.000000"  style="stroke:black; stroke-linecap:round; stroke-width:0.25;"/>
<line x1="312.000000" y1="66.000000" x2="316.000000" y2="66.000000"  style="stroke:black; stroke-linecap:round; stroke-width:0.25;"/>
<line x1="340.000000" y1="62.000000" x2="344.000000" y2="62.000000"  style="stroke:black; stroke-linecap:round; stroke-width:0.25;"/>
<line x1="344.000000" y1="62.000000" x2="352.000000" y2="62.000000"  style="stroke:black; stroke-linecap:round; stroke-width:0.25;"/>
<line x1="344.000000" y1="82.000000" x2="352.000000" y2="82.000000"  style="stroke:black; stroke-linecap:round; stroke-width:0.25;"/>
<line x1="344.000000" y1="110.000000" x2="344.000000" y2="82.000000"  style="stroke:black; stroke-linecap:round; stroke-width:0.25;"/>
<line x1="344.000000" y1="110.000000" x2="344.000000" y2="110.000000"  style="stroke:black; stroke-linecap:round; stroke-width:0.25;"/>
<line x1="352.000000" y1="62.000000" x2="352.000000" y2="74.000000"  style="stroke:black; stroke-linecap:round; stroke-width:0.25;"/>
<line x1="352.000000" y1="74.000000" x2="352.000000" y2="74.000000"  style="stroke:black; stroke-linecap:round; stroke-width:0.25;"/>
<line x1="352.000000" y1="74.000000" x2="356.000000" y2="74.000000"  style="stroke:black; stroke-linecap:round; stroke-width:0.25;"/>
<line x1="352.000000" y1="82.000000" x2="356.000000" y2="82.000000"  style="stroke:black; stroke-linecap:round; stroke-width:0.25;"/>
<line x1="380.000000" y1="78.000000" x2="384.000000" y2="78.000000"  style="stroke:black; stroke-linecap:round; stroke-width:0.25;"/>
<line x1="384.000000" y1="78.000000" x2="384.000000" y2="78.000000"  style="stroke:black; stroke-linecap:round; stroke-width:0.25;"/>
<line x1="384.000000" y1="78.000000" x2="388.000000" y2="78.000000"  style="stroke:black; stroke-linecap:round; stroke-width:0.25;"/>
<line x1="517.000000" y1="78.000000" x2="521.000000" y2="78.000000"  style="stroke:black; stroke-linecap:round; stroke-width:0.25;"/>
<line x1="521.000000" y1="78.000000" x2="531.000000" y2="78.000000"  style="stroke:black; stroke-linecap:round; stroke-width:0.25;"/>
<line x1="531.000000" y1="78.000000" x2="531.000000" y2="78.000000"  style="stroke:black; stroke-linecap:round; stroke-width:0.25;"/>
<line x1="531.000000" y1="78.000000" x2="535.000000" y2="78.000000"  style="stroke:black; stroke-linecap:round; stroke-width:0.25;"/>
<line x1="535.000000" y1="78.000000" x2="539.000000" y2="78.000000"  style="stroke:black; stroke-linecap:round; stroke-width:0.25;"/>
<line x1="539.000000" y1="78.000000" x2="549.000000" y2="78.000000"  style="stroke:black; stroke-linecap:round; stroke-width:0.25;"/>
</svg>
