<?xml version="1.0"?>
<svg xmlns="http://www.w3.org/2000/svg" xmlns:xlink="http://www.w3.org/1999/xlink" viewBox="0 0 462.000000 188.000000" width="231.000000mm" height="94.000000mm" version="1.1">
<defs>
   <filter id="filter" filterRes="18" x="0" y="0">
     <feGaussianBlur in="SourceGraphic" stdDeviation="1.55" result="blur"/>
     <feOffset in="blur" dx="3" dy="3"/>
   </filter>
</defs>
<a xlink:href="process.svg">
<rect x="1.000000" y="1.000000" width="461.000000" height="187.000000" rx="0.1" ry="0.1" style="stroke:none;fill:#aaaaaa;;filter:url(#filter);"/>
<rect x="0.000000" y="0.000000" width="461.000000" height="187.000000" rx="0" ry="0" style="stroke:none;fill:#ffffff;"/>
</a>
<text x="10.000000" y="7.000000" font-family="Arial" font-size="7"></text>
<a xlink:href="osc-0x7f2db48c4080.svg">
<rect x="35.000000" y="35.000000" width="129.000000" height="24.000000" rx="0.1" ry="0.1" style="stroke:none;fill:#aaaaaa;;filter:url(#filter);"/>
<rect x="34.000000" y="34.000000" width="129.000000" height="24.000000" rx="0" ry="0" style="stroke:none;fill:#003366;"/>
</a>
<a xlink:href="osc-0x7f2db48c4080.svg">
<text x="98.500000" y="48.000000" font-family="Arial" font-size="7" text-anchor="middle" fill="#FFFFFF">osc(nentry(&quot;[...,0.999f : *))</text>
</a>
<circle cx="36.000000" cy="36.000000" r="1"/>
<a xlink:href="noise-0x7f2db48c8560.svg">
<rect x="86.600000" y="67.000000" width="25.800000" height="24.000000" rx="0.1" ry="0.1" style="stroke:none;fill:#aaaaaa;;filter:url(#filter);"/>
<rect x="85.600000" y="66.000000" width="25.800000" height="24.000000" rx="0" ry="0" style="stroke:none;fill:#003366;"/>
</a>
<a xlink:href="noise-0x7f2db48c8560.svg">
<text x="98.500000" y="80.000000" font-family="Arial" font-size="7" text-anchor="middle" fill="#FFFFFF">noise</text>
</a>
<circle cx="87.600000" cy="68.000000" r="1"/>
<rect x="180.000000" y="51.000000" width="24.000000" height="24.000000" rx="0.1" ry="0.1" style="stroke:none;fill:#aaaaaa;;filter:url(#filter);"/>
<rect x="179.000000" y="50.000000" width="24.000000" height="24.000000" rx="0" ry="0" style="stroke:none;fill:#4B71A1;"/>
<text x="191.000000" y="64.000000" font-family="Arial" font-size="7" text-anchor="middle" fill="#FFFFFF">+</text>
<circle cx="181.000000" cy="52.000000" r="1"/>
<line x1="176.000000" y1="57.000000" x2="179.000000" y2="58.000000"  transform="rotate(0.000000,179.000000,58.000000)" style="stroke: black; stroke-width:0.25;"/>
<line x1="176.000000" y1="59.000000" x2="179.000000" y2="58.000000"  transform="rotate(0.000000,179.000000,58.000000)" style="stroke: black; stroke-width:0.25;"/>
<line x1="176.000000" y1="65.000000" x2="179.000000" y2="66.000000"  transform="rotate(0.000000,179.000000,66.000000)" style="stroke: black; stroke-width:0.25;"/>
<line x1="176.000000" y1="67.000000" x2="179.000000" y2="66.000000"  transform="rotate(0.000000,179.000000,66.000000)" style="stroke: black; stroke-width:0.25;"/>
<a xlink:href="gain-0x7f2db48c9bc0.svg">
<rect x="106.600000" y="99.000000" width="25.800000" height="24.000000" rx="0.1" ry="0.1" style="stroke:none;fill:#aaaaaa;;filter:url(#filter);"/>
<rect x="105.600000" y="98.000000" width="25.800000" height="24.000000" rx="0" ry="0" style="stroke:none;fill:#003366;"/>
</a>
<a xlink:href="gain-0x7f2db48c9bc0.svg">
<text x="118.500000" y="112.000000" font-family="Arial" font-size="7" text-anchor="middle" fill="#FFFFFF">gain</text>
</a>
<circle cx="107.600000" cy="100.000000" r="1"/>
<rect x="220.000000" y="67.000000" width="24.000000" height="24.000000" rx="0.1" ry="0.1" style="stroke:none;fill:#aaaaaa;;filter:url(#filter);"/>
<rect x="219.000000" y="66.000000" width="24.000000" height="24.000000" rx="0" ry="0" style="stroke:none;fill:#4B71A1;"/>
<text x="231.000000" y="80.000000" font-family="Arial" font-size="7" text-anchor="middle" fill="#FFFFFF">*</text>
<circle cx="221.000000" cy="68.000000" r="1"/>
<line x1="216.000000" y1="73.000000" x2="219.000000" y2="74.000000"  transform="rotate(0.000000,219.000000,74.000000)" style="stroke: black; stroke-width:0.25;"/>
<line x1="216.000000" y1="75.000000" x2="219.000000" y2="74.000000"  transform="rotate(0.000000,219.000000,74.000000)" style="stroke: black; stroke-width:0.25;"/>
<line x1="216.000000" y1="81.000000" x2="219.000000" y2="82.000000"  transform="rotate(0.000000,219.000000,82.000000)" style="stroke: black; stroke-width:0.25;"/>
<line x1="216.000000" y1="83.000000" x2="219.000000" y2="82.000000"  transform="rotate(0.000000,219.000000,82.000000)" style="stroke: black; stroke-width:0.25;"/>
<a xlink:href="env-0x7f2db48d7d70.svg">
<rect x="127.500000" y="131.000000" width="24.000000" height="24.000000" rx="0.1" ry="0.1" style="stroke:none;fill:#aaaaaa;;filter:url(#filter);"/>
<rect x="126.500000" y="130.000000" width="24.000000" height="24.000000" rx="0" ry="0" style="stroke:none;fill:#003366;"/>
</a>
<a xlink:href="env-0x7f2db48d7d70.svg">
<text x="138.500000" y="144.000000" font-family="Arial" font-size="7" text-anchor="middle" fill="#FFFFFF">env</text>
</a>
<circle cx="128.500000" cy="132.000000" r="1"/>
<rect x="260.000000" y="83.000000" width="24.000000" height="24.000000" rx="0.1" ry="0.1" style="stroke:none;fill:#aaaaaa;;filter:url(#filter);"/>
<rect x="259.000000" y="82.000000" width="24.000000" height="24.000000" rx="0" ry="0" style="stroke:none;fill:#4B71A1;"/>
<text x="271.000000" y="96.000000" font-family="Arial" font-size="7" text-anchor="middle" fill="#FFFFFF">*</text>
<circle cx="261.000000" cy="84.000000" r="1"/>
<line x1="256.000000" y1="89.000000" x2="259.000000" y2="90.000000"  transform="rotate(0.000000,259.000000,90.000000)" style="stroke: black; stroke-width:0.25;"/>
<line x1="256.000000" y1="91.000000" x2="259.000000" y2="90.000000"  transform="rotate(0.000000,259.000000,90.000000)" style="stroke: black; stroke-width:0.25;"/>
<line x1="256.000000" y1="97.000000" x2="259.000000" y2="98.000000"  transform="rotate(0.000000,259.000000,98.000000)" style="stroke: black; stroke-width:0.25;"/>
<line x1="256.000000" y1="99.000000" x2="259.000000" y2="98.000000"  transform="rotate(0.000000,259.000000,98.000000)" style="stroke: black; stroke-width:0.25;"/>
<a xlink:href="echo-0x7f2db48da970.svg">
<rect x="292.000000" y="83.000000" width="129.000000" height="24.000000" rx="0.1" ry="0.1" style="stroke:none;fill:#aaaaaa;;filter:url(#filter);"/>
<rect x="291.000000" y="82.000000" width="129.000000" height="24.000000" rx="0" ry="0" style="stroke:none;fill:#003366;"/>
</a>
<a xlink:href="echo-0x7f2db48da970.svg">
<text x="355.500000" y="96.000000" font-family="Arial" font-size="7" text-anchor="middle" fill="#FFFFFF">echo(nentry(&quot;...0000000001f))</text>
</a>
<circle cx="293.000000" cy="84.000000" r="1"/>
<line x1="288.000000" y1="93.000000" x2="291.000000" y2="94.000000"  transform="rotate(0.000000,291.000000,94.000000)" style="stroke: black; stroke-width:0.25;"/>
<line x1="288.000000" y1="95.000000" x2="291.000000" y2="94.000000"  transform="rotate(0.000000,291.000000,94.000000)" style="stroke: black; stroke-width:0.25;"/>
<line x1="25.000000" y1="25.000000" x2="25.000000" y2="163.000000"  style="stroke: black; stroke-linecap:round; stroke-width:0.25; stroke-dasharray:3,3;"/>
<line x1="25.000000" y1="163.000000" x2="429.000000" y2="163.000000"  style="stroke: black; stroke-linecap:round; stroke-width:0.25; stroke-dasharray:3,3;"/>
<line x1="429.000000" y1="163.000000" x2="429.000000" y2="25.000000"  style="stroke: black; stroke-linecap:round; stroke-width:0.25; stroke-dasharray:3,3;"/>
<line x1="25.000000" y1="25.000000" x2="30.000000" y2="25.000000"  style="stroke: black; stroke-linecap:round; stroke-width:0.25; stroke-dasharray:3,3;"/>
<line x1="71.925000" y1="25.000000" x2="429.000000" y2="25.000000"  style="stroke: black; stroke-linecap:round; stroke-width:0.25; stroke-dasharray:3,3;"/>
<text x="30.000000" y="27.000000" font-family="Arial" font-size="7">vgroup(BL4)</text>
<line x1="15.000000" y1="15.000000" x2="15.000000" y2="173.000000"  style="stroke: black; stroke-linecap:round; stroke-width:0.25; stroke-dasharray:3,3;"/>
<line x1="15.000000" y1="173.000000" x2="447.000000" y2="173.000000"  style="stroke: black; stroke-linecap:round; stroke-width:0.25; stroke-dasharray:3,3;"/>
<line x1="447.000000" y1="173.000000" x2="447.000000" y2="15.000000"  style="stroke: black; stroke-linecap:round; stroke-width:0.25; stroke-dasharray:3,3;"/>
<line x1="15.000000" y1="15.000000" x2="20.000000" y2="15.000000"  style="stroke: black; stroke-linecap:round; stroke-width:0.25; stroke-dasharray:3,3;"/>
<line x1="58.700000" y1="15.000000" x2="447.000000" y2="15.000000"  style="stroke: black; stroke-linecap:round; stroke-width:0.25; stroke-dasharray:3,3;"/>
<text x="20.000000" y="17.000000" font-family="Arial" font-size="7">partial(4)</text>
<line x1="449.000000" y1="93.000000" x2="452.000000" y2="94.000000"  transform="rotate(0.000000,452.000000,94.000000)" style="stroke: black; stroke-width:0.25;"/>
<line x1="449.000000" y1="95.000000" x2="452.000000" y2="94.000000"  transform="rotate(0.000000,452.000000,94.000000)" style="stroke: black; stroke-width:0.25;"/>
<line x1="111.400000" y1="78.000000" x2="115.400000" y2="78.000000"  style="stroke:black; stroke-linecap:round; stroke-width:0.25;"/>
<line x1="115.400000" y1="78.000000" x2="167.000000" y2="78.000000"  style="stroke:black; stroke-linecap:round; stroke-width:0.25;"/>
<line x1="131.400000" y1="110.000000" x2="135.400000" y2="110.000000"  style="stroke:black; stroke-linecap:round; stroke-width:0.25;"/>
<line x1="135.400000" y1="110.000000" x2="207.000000" y2="110.000000"  style="stroke:black; stroke-linecap:round; stroke-width:0.25;"/>
<line x1="150.500000" y1="142.000000" x2="154.500000" y2="142.000000"  style="stroke:black; stroke-linecap:round; stroke-width:0.25;"/>
<line x1="154.500000" y1="142.000000" x2="247.000000" y2="142.000000"  style="stroke:black; stroke-linecap:round; stroke-width:0.25;"/>
<line x1="163.000000" y1="46.000000" x2="167.000000" y2="46.000000"  style="stroke:black; stroke-linecap:round; stroke-width:0.25;"/>
<line x1="167.000000" y1="46.000000" x2="175.000000" y2="46.000000"  style="stroke:black; stroke-linecap:round; stroke-width:0.25;"/>
<line x1="167.000000" y1="66.000000" x2="175.000000" y2="66.000000"  style="stroke:black; stroke-linecap:round; stroke-width:0.25;"/>
<line x1="167.000000" y1="78.000000" x2="167.000000" y2="66.000000"  style="stroke:black; stroke-linecap:round; stroke-width:0.25;"/>
<line x1="167.000000" y1="78.000000" x2="167.000000" y2="78.000000"  style="stroke:black; stroke-linecap:round; stroke-width:0.25;"/>
<line x1="175.000000" y1="46.000000" x2="175.000000" y2="58.000000"  style="stroke:black; stroke-linecap:round; stroke-width:0.25;"/>
<line x1="175.000000" y1="58.000000" x2="175.000000" y2="58.000000"  style="stroke:black; stroke-linecap:round; stroke-width:0.25;"/>
<line x1="175.000000" y1="58.000000" x2="179.000000" y2="58.000000"  style="stroke:black; stroke-linecap:round; stroke-width:0.25;"/>
<line x1="175.000000" y1="66.000000" x2="179.000000" y2="66.000000"  style="stroke:black; stroke-linecap:round; stroke-width:0.25;"/>
<line x1="203.000000" y1="62.000000" x2="207.000000" y2="62.000000"  style="stroke:black; stroke-linecap:round; stroke-width:0.25;"/>
<line x1="207.000000" y1="82.000000" x2="215.000000" y2="82.000000"  style="stroke:black; stroke-linecap:round; stroke-width:0.25;"/>
<line x1="207.000000" y1="110.000000" x2="207.000000" y2="82.000000"  style="stroke:black; stroke-linecap:round; stroke-width:0.25;"/>
<line x1="207.000000" y1="110.000000" x2="207.000000" y2="110.000000"  style="stroke:black; stroke-linecap:round; stroke-width:0.25;"/>
<line x1="207.000000" y1="62.000000" x2="215.000000" y2="62.000000"  style="stroke:black; stroke-linecap:round; stroke-width:0.25;"/>
<line x1="215.000000" y1="62.000000" x2="215.000000" y2="74.000000"  style="stroke:black; stroke-linecap:round; stroke-width:0.25;"/>
<line x1="215.000000" y1="74.000000" x2="215.000000" y2="74.000000"  style="stroke:black; stroke-linecap:round; stroke-width:0.25;"/>
<line x1="215.000000" y1="74.000000" x2="219.000000" y2="74.000000"  style="stroke:black; stroke-linecap:round; stroke-width:0.25;"/>
<line x1="215.000000" y1="82.000000" x2="219.000000" y2="82.000000"  style="stroke:black; stroke-linecap:round; stroke-width:0.25;"/>
<line x1="243.000000" y1="78.000000" x2="247.000000" y2="78.000000"  style="stroke:black; stroke-linecap:round; stroke-width:0.25;"/>
<line x1="247.000000" y1="78.000000" x2="255.000000" y2="78.000000"  style="stroke:black; stroke-linecap:round; stroke-width:0.25;"/>
<line x1="247.000000" y1="98.000000" x2="255.000000" y2="98.000000"  style="stroke:black; stroke-linecap:round; stroke-width:0.25;"/>
<line x1="247.000000" y1="142.000000" x2="247.000000" y2="98.000000"  style="stroke:black; stroke-linecap:round; stroke-width:0.25;"/>
<line x1="247.000000" y1="142.000000" x2="247.000000" y2="142.000000"  style="stroke:black; stroke-linecap:round; stroke-width:0.25;"/>
<line x1="255.000000" y1="78.000000" x2="255.000000" y2="90.000000"  style="stroke:black; stroke-linecap:round; stroke-width:0.25;"/>
<line x1="255.000000" y1="90.000000" x2="255.000000" y2="90.000000"  style="stroke:black; stroke-linecap:round; stroke-width:0.25;"/>
<line x1="255.000000" y1="90.000000" x2="259.000000" y2="90.000000"  style="stroke:black; stroke-linecap:round; stroke-width:0.25;"/>
<line x1="255.000000" y1="98.000000" x2="259.000000" y2="98.000000"  style="stroke:black; stroke-linecap:round; stroke-width:0.25;"/>
<line x1="283.000000" y1="94.000000" x2="287.000000" y2="94.000000"  style="stroke:black; stroke-linecap:round; stroke-width:0.25;"/>
<line x1="287.000000" y1="94.000000" x2="287.000000" y2="94.000000"  style="stroke:black; stroke-linecap:round; stroke-width:0.25;"/>
<line x1="287.000000" y1="94.000000" x2="291.000000" y2="94.000000"  style="stroke:black; stroke-linecap:round; stroke-width:0.25;"/>
<line x1="420.000000" y1="94.000000" x2="424.000000" y2="94.000000"  style="stroke:black; stroke-linecap:round; stroke-width:0.25;"/>
<line x1="424.000000" y1="94.000000" x2="434.000000" y2="94.000000"  style="stroke:black; stroke-linecap:round; stroke-width:0.25;"/>
<line x1="434.000000" y1="94.000000" x2="434.000000" y2="94.000000"  style="stroke:black; stroke-linecap:round; stroke-width:0.25;"/>
<line x1="434.000000" y1="94.000000" x2="438.000000" y2="94.000000"  style="stroke:black; stroke-linecap:round; stroke-width:0.25;"/>
<line x1="438.000000" y1="94.000000" x2="442.000000" y2="94.000000"  style="stroke:black; stroke-linecap:round; stroke-width:0.25;"/>
<line x1="442.000000" y1="94.000000" x2="452.000000" y2="94.000000"  style="stroke:black; stroke-linecap:round; stroke-width:0.25;"/>
</svg>
