<?xml version="1.0"?>
<svg xmlns="http://www.w3.org/2000/svg" xmlns:xlink="http://www.w3.org/1999/xlink" viewBox="0 0 335.300000 124.000000" width="167.650000mm" height="62.000000mm" version="1.1">
<defs>
   <filter id="filter" filterRes="18" x="0" y="0">
     <feGaussianBlur in="SourceGraphic" stdDeviation="1.55" result="blur"/>
     <feOffset in="blur" dx="3" dy="3"/>
   </filter>
</defs>
<a xlink:href="delay-0x7f70488f9180.svg">
<rect x="1.000000" y="1.000000" width="334.300000" height="123.000000" rx="0.1" ry="0.1" style="stroke:none;fill:#aaaaaa;;filter:url(#filter);"/>
<rect x="0.000000" y="0.000000" width="334.300000" height="123.000000" rx="0" ry="0" style="stroke:none;fill:#ffffff;"/>
</a>
<text x="10.000000" y="7.000000" font-family="Arial" font-size="7"></text>
<a xlink:href="SR-0x7f70480a01a0.svg">
<rect x="132.650000" y="25.000000" width="24.000000" height="24.000000" rx="0.1" ry="0.1" style="stroke:none;fill:#aaaaaa;;filter:url(#filter);"/>
<rect x="131.650000" y="24.000000" width="24.000000" height="24.000000" rx="0" ry="0" style="stroke:none;fill:#003366;"/>
</a>
<a xlink:href="SR-0x7f70480a01a0.svg">
<text x="143.650000" y="38.000000" font-family="Arial" font-size="7" text-anchor="middle" fill="#FFFFFF">SR</text>
</a>
<circle cx="133.650000" cy="26.000000" r="1"/>
<rect x="35.000000" y="67.000000" width="219.300000" height="24.000000" rx="0.1" ry="0.1" style="stroke:none;fill:#aaaaaa;;filter:url(#filter);"/>
<rect x="34.000000" y="66.000000" width="219.300000" height="24.000000" rx="0" ry="0" style="stroke:none;fill:#477881;"/>
<text x="143.650000" y="80.000000" font-family="Arial" font-size="7" text-anchor="middle" fill="#FFFFFF">nentry(dur, 0.0f, 0.0f, 3.0f, 0.10000000000000001f)</text>
<circle cx="36.000000" cy="68.000000" r="1"/>
<line x1="25.000000" y1="57.000000" x2="25.000000" y2="99.000000"  style="stroke: black; stroke-linecap:round; stroke-width:0.25; stroke-dasharray:3,3;"/>
<line x1="25.000000" y1="99.000000" x2="262.300000" y2="99.000000"  style="stroke: black; stroke-linecap:round; stroke-width:0.25; stroke-dasharray:3,3;"/>
<line x1="262.300000" y1="99.000000" x2="262.300000" y2="57.000000"  style="stroke: black; stroke-linecap:round; stroke-width:0.25; stroke-dasharray:3,3;"/>
<line x1="25.000000" y1="57.000000" x2="30.000000" y2="57.000000"  style="stroke: black; stroke-linecap:round; stroke-width:0.25; stroke-dasharray:3,3;"/>
<line x1="46.125000" y1="57.000000" x2="262.300000" y2="57.000000"  style="stroke: black; stroke-linecap:round; stroke-width:0.25; stroke-dasharray:3,3;"/>
<text x="30.000000" y="59.000000" font-family="Arial" font-size="7">dur</text>
<rect x="280.300000" y="51.000000" width="24.000000" height="24.000000" rx="0.1" ry="0.1" style="stroke:none;fill:#aaaaaa;;filter:url(#filter);"/>
<rect x="279.300000" y="50.000000" width="24.000000" height="24.000000" rx="0" ry="0" style="stroke:none;fill:#4B71A1;"/>
<text x="291.300000" y="64.000000" font-family="Arial" font-size="7" text-anchor="middle" fill="#FFFFFF">*</text>
<circle cx="281.300000" cy="52.000000" r="1"/>
<line x1="276.300000" y1="57.000000" x2="279.300000" y2="58.000000"  transform="rotate(0.000000,279.300000,58.000000)" style="stroke: black; stroke-width:0.25;"/>
<line x1="276.300000" y1="59.000000" x2="279.300000" y2="58.000000"  transform="rotate(0.000000,279.300000,58.000000)" style="stroke: black; stroke-width:0.25;"/>
<line x1="276.300000" y1="65.000000" x2="279.300000" y2="66.000000"  transform="rotate(0.000000,279.300000,66.000000)" style="stroke: black; stroke-width:0.25;"/>
<line x1="276.300000" y1="67.000000" x2="279.300000" y2="66.000000"  transform="rotate(0.000000,279.300000,66.000000)" style="stroke: black; stroke-width:0.25;"/>
<line x1="15.000000" y1="15.000000" x2="15.000000" y2="109.000000"  style="stroke: black; stroke-linecap:round; stroke-width:0.25; stroke-dasharray:3,3;"/>
<line x1="15.000000" y1="109.000000" x2="320.300000" y2="109.000000"  style="stroke: black; stroke-linecap:round; stroke-width:0.25; stroke-dasharray:3,3;"/>
<line x1="320.300000" y1="109.000000" x2="320.300000" y2="15.000000"  style="stroke: black; stroke-linecap:round; stroke-width:0.25; stroke-dasharray:3,3;"/>
<line x1="15.000000" y1="15.000000" x2="20.000000" y2="15.000000"  style="stroke: black; stroke-linecap:round; stroke-width:0.25; stroke-dasharray:3,3;"/>
<line x1="36.125000" y1="15.000000" x2="320.300000" y2="15.000000"  style="stroke: black; stroke-linecap:round; stroke-width:0.25; stroke-dasharray:3,3;"/>
<text x="20.000000" y="17.000000" font-family="Arial" font-size="7">del</text>
<line x1="322.300000" y1="61.000000" x2="325.300000" y2="62.000000"  transform="rotate(0.000000,325.300000,62.000000)" style="stroke: black; stroke-width:0.25;"/>
<line x1="322.300000" y1="63.000000" x2="325.300000" y2="62.000000"  transform="rotate(0.000000,325.300000,62.000000)" style="stroke: black; stroke-width:0.25;"/>
<line x1="155.650000" y1="36.000000" x2="159.650000" y2="36.000000"  style="stroke:black; stroke-linecap:round; stroke-width:0.25;"/>
<line x1="159.650000" y1="36.000000" x2="267.300000" y2="36.000000"  style="stroke:black; stroke-linecap:round; stroke-width:0.25;"/>
<line x1="253.300000" y1="78.000000" x2="257.300000" y2="78.000000"  style="stroke:black; stroke-linecap:round; stroke-width:0.25;"/>
<line x1="257.300000" y1="78.000000" x2="267.300000" y2="78.000000"  style="stroke:black; stroke-linecap:round; stroke-width:0.25;"/>
<line x1="267.300000" y1="36.000000" x2="275.300000" y2="36.000000"  style="stroke:black; stroke-linecap:round; stroke-width:0.25;"/>
<line x1="267.300000" y1="66.000000" x2="275.300000" y2="66.000000"  style="stroke:black; stroke-linecap:round; stroke-width:0.25;"/>
<line x1="267.300000" y1="78.000000" x2="267.300000" y2="66.000000"  style="stroke:black; stroke-linecap:round; stroke-width:0.25;"/>
<line x1="267.300000" y1="78.000000" x2="267.300000" y2="78.000000"  style="stroke:black; stroke-linecap:round; stroke-width:0.25;"/>
<line x1="275.300000" y1="36.000000" x2="275.300000" y2="58.000000"  style="stroke:black; stroke-linecap:round; stroke-width:0.25;"/>
<line x1="275.300000" y1="58.000000" x2="275.300000" y2="58.000000"  style="stroke:black; stroke-linecap:round; stroke-width:0.25;"/>
<line x1="275.300000" y1="58.000000" x2="279.300000" y2="58.000000"  style="stroke:black; stroke-linecap:round; stroke-width:0.25;"/>
<line x1="275.300000" y1="66.000000" x2="279.300000" y2="66.000000"  style="stroke:black; stroke-linecap:round; stroke-width:0.25;"/>
<line x1="303.300000" y1="62.000000" x2="307.300000" y2="62.000000"  style="stroke:black; stroke-linecap:round; stroke-width:0.25;"/>
<line x1="307.300000" y1="62.000000" x2="307.300000" y2="62.000000"  style="stroke:black; stroke-linecap:round; stroke-width:0.25;"/>
<line x1="307.300000" y1="62.000000" x2="311.300000" y2="62.000000"  style="stroke:black; stroke-linecap:round; stroke-width:0.25;"/>
<line x1="311.300000" y1="62.000000" x2="315.300000" y2="62.000000"  style="stroke:black; stroke-linecap:round; stroke-width:0.25;"/>
<line x1="315.300000" y1="62.000000" x2="325.300000" y2="62.000000"  style="stroke:black; stroke-linecap:round; stroke-width:0.25;"/>
</svg>
