<?xml version="1.0"?>
<svg xmlns="http://www.w3.org/2000/svg" xmlns:xlink="http://www.w3.org/1999/xlink" viewBox="0 0 271.700000 104.000000" width="135.850000mm" height="52.000000mm" version="1.1">
<defs>
   <filter id="filter" filterRes="18" x="0" y="0">
     <feGaussianBlur in="SourceGraphic" stdDeviation="1.55" result="blur"/>
     <feOffset in="blur" dx="3" dy="3"/>
   </filter>
</defs>
<a xlink:href="partial-0x7fcbe48f98f0.svg">
<rect x="1.000000" y="1.000000" width="270.700000" height="103.000000" rx="0.1" ry="0.1" style="stroke:none;fill:#aaaaaa;;filter:url(#filter);"/>
<rect x="0.000000" y="0.000000" width="270.700000" height="103.000000" rx="0" ry="0" style="stroke:none;fill:#ffffff;"/>
</a>
<text x="10.000000" y="7.000000" font-family="Arial" font-size="7"></text>
<a xlink:href="noiseVol-0x7fcbe419cfc0.svg">
<rect x="25.000000" y="25.000000" width="38.700000" height="24.000000" rx="0.1" ry="0.1" style="stroke:none;fill:#aaaaaa;;filter:url(#filter);"/>
<rect x="24.000000" y="24.000000" width="38.700000" height="24.000000" rx="0" ry="0" style="stroke:none;fill:#003366;"/>
</a>
<a xlink:href="noiseVol-0x7fcbe419cfc0.svg">
<text x="43.350000" y="38.000000" font-family="Arial" font-size="7" text-anchor="middle" fill="#FFFFFF">noiseVol</text>
</a>
<circle cx="26.000000" cy="26.000000" r="1"/>
<a xlink:href="noise-0x7fcbe4194ca0.svg">
<rect x="31.450000" y="57.000000" width="25.800000" height="24.000000" rx="0.1" ry="0.1" style="stroke:none;fill:#aaaaaa;;filter:url(#filter);"/>
<rect x="30.450000" y="56.000000" width="25.800000" height="24.000000" rx="0" ry="0" style="stroke:none;fill:#003366;"/>
</a>
<a xlink:href="noise-0x7fcbe4194ca0.svg">
<text x="43.350000" y="70.000000" font-family="Arial" font-size="7" text-anchor="middle" fill="#FFFFFF">noise</text>
</a>
<circle cx="32.450000" cy="58.000000" r="1"/>
<rect x="79.700000" y="41.000000" width="24.000000" height="24.000000" rx="0.1" ry="0.1" style="stroke:none;fill:#aaaaaa;;filter:url(#filter);"/>
<rect x="78.700000" y="40.000000" width="24.000000" height="24.000000" rx="0" ry="0" style="stroke:none;fill:#4B71A1;"/>
<text x="90.700000" y="54.000000" font-family="Arial" font-size="7" text-anchor="middle" fill="#FFFFFF">*</text>
<circle cx="80.700000" cy="42.000000" r="1"/>
<line x1="75.700000" y1="47.000000" x2="78.700000" y2="48.000000"  transform="rotate(0.000000,78.700000,48.000000)" style="stroke: black; stroke-width:0.25;"/>
<line x1="75.700000" y1="49.000000" x2="78.700000" y2="48.000000"  transform="rotate(0.000000,78.700000,48.000000)" style="stroke: black; stroke-width:0.25;"/>
<line x1="75.700000" y1="55.000000" x2="78.700000" y2="56.000000"  transform="rotate(0.000000,78.700000,56.000000)" style="stroke: black; stroke-width:0.25;"/>
<line x1="75.700000" y1="57.000000" x2="78.700000" y2="56.000000"  transform="rotate(0.000000,78.700000,56.000000)" style="stroke: black; stroke-width:0.25;"/>
<a xlink:href="lowpass-0x7fcbe48f3e90.svg">
<rect x="111.700000" y="41.000000" width="129.000000" height="24.000000" rx="0.1" ry="0.1" style="stroke:none;fill:#aaaaaa;;filter:url(#filter);"/>
<rect x="110.700000" y="40.000000" width="129.000000" height="24.000000" rx="0" ry="0" style="stroke:none;fill:#003366;"/>
</a>
<a xlink:href="lowpass-0x7fcbe48f3e90.svg">
<text x="175.200000" y="54.000000" font-family="Arial" font-size="7" text-anchor="middle" fill="#FFFFFF">lowpass(6)(hg...0.999f : *)))</text>
</a>
<circle cx="112.700000" cy="42.000000" r="1"/>
<line x1="107.700000" y1="51.000000" x2="110.700000" y2="52.000000"  transform="rotate(0.000000,110.700000,52.000000)" style="stroke: black; stroke-width:0.25;"/>
<line x1="107.700000" y1="53.000000" x2="110.700000" y2="52.000000"  transform="rotate(0.000000,110.700000,52.000000)" style="stroke: black; stroke-width:0.25;"/>
<line x1="15.000000" y1="15.000000" x2="15.000000" y2="89.000000"  style="stroke: black; stroke-linecap:round; stroke-width:0.25; stroke-dasharray:3,3;"/>
<line x1="15.000000" y1="89.000000" x2="256.700000" y2="89.000000"  style="stroke: black; stroke-linecap:round; stroke-width:0.25; stroke-dasharray:3,3;"/>
<line x1="256.700000" y1="89.000000" x2="256.700000" y2="15.000000"  style="stroke: black; stroke-linecap:round; stroke-width:0.25; stroke-dasharray:3,3;"/>
<line x1="15.000000" y1="15.000000" x2="20.000000" y2="15.000000"  style="stroke: black; stroke-linecap:round; stroke-width:0.25; stroke-dasharray:3,3;"/>
<line x1="42.575000" y1="15.000000" x2="256.700000" y2="15.000000"  style="stroke: black; stroke-linecap:round; stroke-width:0.25; stroke-dasharray:3,3;"/>
<text x="20.000000" y="17.000000" font-family="Arial" font-size="7">noise</text>
<line x1="258.700000" y1="51.000000" x2="261.700000" y2="52.000000"  transform="rotate(0.000000,261.700000,52.000000)" style="stroke: black; stroke-width:0.25;"/>
<line x1="258.700000" y1="53.000000" x2="261.700000" y2="52.000000"  transform="rotate(0.000000,261.700000,52.000000)" style="stroke: black; stroke-width:0.25;"/>
<line x1="56.250000" y1="68.000000" x2="60.250000" y2="68.000000"  style="stroke:black; stroke-linecap:round; stroke-width:0.25;"/>
<line x1="60.250000" y1="68.000000" x2="66.700000" y2="68.000000"  style="stroke:black; stroke-linecap:round; stroke-width:0.25;"/>
<line x1="62.700000" y1="36.000000" x2="66.700000" y2="36.000000"  style="stroke:black; stroke-linecap:round; stroke-width:0.25;"/>
<line x1="66.700000" y1="36.000000" x2="74.700000" y2="36.000000"  style="stroke:black; stroke-linecap:round; stroke-width:0.25;"/>
<line x1="66.700000" y1="56.000000" x2="74.700000" y2="56.000000"  style="stroke:black; stroke-linecap:round; stroke-width:0.25;"/>
<line x1="66.700000" y1="68.000000" x2="66.700000" y2="56.000000"  style="stroke:black; stroke-linecap:round; stroke-width:0.25;"/>
<line x1="66.700000" y1="68.000000" x2="66.700000" y2="68.000000"  style="stroke:black; stroke-linecap:round; stroke-width:0.25;"/>
<line x1="74.700000" y1="36.000000" x2="74.700000" y2="48.000000"  style="stroke:black; stroke-linecap:round; stroke-width:0.25;"/>
<line x1="74.700000" y1="48.000000" x2="74.700000" y2="48.000000"  style="stroke:black; stroke-linecap:round; stroke-width:0.25;"/>
<line x1="74.700000" y1="48.000000" x2="78.700000" y2="48.000000"  style="stroke:black; stroke-linecap:round; stroke-width:0.25;"/>
<line x1="74.700000" y1="56.000000" x2="78.700000" y2="56.000000"  style="stroke:black; stroke-linecap:round; stroke-width:0.25;"/>
<line x1="102.700000" y1="52.000000" x2="106.700000" y2="52.000000"  style="stroke:black; stroke-linecap:round; stroke-width:0.25;"/>
<line x1="106.700000" y1="52.000000" x2="106.700000" y2="52.000000"  style="stroke:black; stroke-linecap:round; stroke-width:0.25;"/>
<line x1="106.700000" y1="52.000000" x2="110.700000" y2="52.000000"  style="stroke:black; stroke-linecap:round; stroke-width:0.25;"/>
<line x1="239.700000" y1="52.000000" x2="243.700000" y2="52.000000"  style="stroke:black; stroke-linecap:round; stroke-width:0.25;"/>
<line x1="243.700000" y1="52.000000" x2="243.700000" y2="52.000000"  style="stroke:black; stroke-linecap:round; stroke-width:0.25;"/>
<line x1="243.700000" y1="52.000000" x2="247.700000" y2="52.000000"  style="stroke:black; stroke-linecap:round; stroke-width:0.25;"/>
<line x1="247.700000" y1="52.000000" x2="251.700000" y2="52.000000"  style="stroke:black; stroke-linecap:round; stroke-width:0.25;"/>
<line x1="251.700000" y1="52.000000" x2="261.700000" y2="52.000000"  style="stroke:black; stroke-linecap:round; stroke-width:0.25;"/>
</svg>
