<?xml version="1.0"?>
<svg xmlns="http://www.w3.org/2000/svg" xmlns:xlink="http://www.w3.org/1999/xlink" viewBox="0 0 637.600000 696.000000" width="318.800000mm" height="348.000000mm" version="1.1">
<defs>
   <filter id="filter" filterRes="18" x="0" y="0">
     <feGaussianBlur in="SourceGraphic" stdDeviation="1.55" result="blur"/>
     <feOffset in="blur" dx="3" dy="3"/>
   </filter>
</defs>
<rect x="1.000000" y="1.000000" width="636.600000" height="695.000000" rx="0.1" ry="0.1" style="stroke:none;fill:#aaaaaa;;filter:url(#filter);"/>
<rect x="0.000000" y="0.000000" width="636.600000" height="695.000000" rx="0" ry="0" style="stroke:none;fill:#ffffff;"/>
<text x="10.000000" y="7.000000" font-family="Arial" font-size="7"></text>
<a xlink:href="partial-0x7f68f88f9710.svg">
<rect x="35.000000" y="35.000000" width="51.600000" height="24.000000" rx="0.1" ry="0.1" style="stroke:none;fill:#aaaaaa;;filter:url(#filter);"/>
<rect x="34.000000" y="34.000000" width="51.600000" height="24.000000" rx="0" ry="0" style="stroke:none;fill:#003366;"/>
</a>
<a xlink:href="partial-0x7f68f88f9710.svg">
<text x="59.800000" y="48.000000" font-family="Arial" font-size="7" text-anchor="middle" fill="#FFFFFF">partial(0)</text>
</a>
<circle cx="36.000000" cy="36.000000" r="1"/>
<a xlink:href="partial-0x7f68f88fca60.svg">
<rect x="35.000000" y="67.000000" width="51.600000" height="24.000000" rx="0.1" ry="0.1" style="stroke:none;fill:#aaaaaa;;filter:url(#filter);"/>
<rect x="34.000000" y="66.000000" width="51.600000" height="24.000000" rx="0" ry="0" style="stroke:none;fill:#003366;"/>
</a>
<a xlink:href="partial-0x7f68f88fca60.svg">
<text x="59.800000" y="80.000000" font-family="Arial" font-size="7" text-anchor="middle" fill="#FFFFFF">partial(1)</text>
</a>
<circle cx="36.000000" cy="68.000000" r="1"/>
<a xlink:href="partial-0x7f68f88ffdb0.svg">
<rect x="35.000000" y="99.000000" width="51.600000" height="24.000000" rx="0.1" ry="0.1" style="stroke:none;fill:#aaaaaa;;filter:url(#filter);"/>
<rect x="34.000000" y="98.000000" width="51.600000" height="24.000000" rx="0" ry="0" style="stroke:none;fill:#003366;"/>
</a>
<a xlink:href="partial-0x7f68f88ffdb0.svg">
<text x="59.800000" y="112.000000" font-family="Arial" font-size="7" text-anchor="middle" fill="#FFFFFF">partial(2)</text>
</a>
<circle cx="36.000000" cy="100.000000" r="1"/>
<a xlink:href="partial-0x7f68f8903100.svg">
<rect x="35.000000" y="131.000000" width="51.600000" height="24.000000" rx="0.1" ry="0.1" style="stroke:none;fill:#aaaaaa;;filter:url(#filter);"/>
<rect x="34.000000" y="130.000000" width="51.600000" height="24.000000" rx="0" ry="0" style="stroke:none;fill:#003366;"/>
</a>
<a xlink:href="partial-0x7f68f8903100.svg">
<text x="59.800000" y="144.000000" font-family="Arial" font-size="7" text-anchor="middle" fill="#FFFFFF">partial(3)</text>
</a>
<circle cx="36.000000" cy="132.000000" r="1"/>
<a xlink:href="partial-0x7f68f8906450.svg">
<rect x="35.000000" y="163.000000" width="51.600000" height="24.000000" rx="0.1" ry="0.1" style="stroke:none;fill:#aaaaaa;;filter:url(#filter);"/>
<rect x="34.000000" y="162.000000" width="51.600000" height="24.000000" rx="0" ry="0" style="stroke:none;fill:#003366;"/>
</a>
<a xlink:href="partial-0x7f68f8906450.svg">
<text x="59.800000" y="176.000000" font-family="Arial" font-size="7" text-anchor="middle" fill="#FFFFFF">partial(4)</text>
</a>
<circle cx="36.000000" cy="164.000000" r="1"/>
<a xlink:href="partial-0x7f68f89097e0.svg">
<rect x="35.000000" y="195.000000" width="51.600000" height="24.000000" rx="0.1" ry="0.1" style="stroke:none;fill:#aaaaaa;;filter:url(#filter);"/>
<rect x="34.000000" y="194.000000" width="51.600000" height="24.000000" rx="0" ry="0" style="stroke:none;fill:#003366;"/>
</a>
<a xlink:href="partial-0x7f68f89097e0.svg">
<text x="59.800000" y="208.000000" font-family="Arial" font-size="7" text-anchor="middle" fill="#FFFFFF">partial(5)</text>
</a>
<circle cx="36.000000" cy="196.000000" r="1"/>
<a xlink:href="partial-0x7f68f890cb70.svg">
<rect x="35.000000" y="227.000000" width="51.600000" height="24.000000" rx="0.1" ry="0.1" style="stroke:none;fill:#aaaaaa;;filter:url(#filter);"/>
<rect x="34.000000" y="226.000000" width="51.600000" height="24.000000" rx="0" ry="0" style="stroke:none;fill:#003366;"/>
</a>
<a xlink:href="partial-0x7f68f890cb70.svg">
<text x="59.800000" y="240.000000" font-family="Arial" font-size="7" text-anchor="middle" fill="#FFFFFF">partial(6)</text>
</a>
<circle cx="36.000000" cy="228.000000" r="1"/>
<a xlink:href="partial-0x7f68f890ff00.svg">
<rect x="35.000000" y="259.000000" width="51.600000" height="24.000000" rx="0.1" ry="0.1" style="stroke:none;fill:#aaaaaa;;filter:url(#filter);"/>
<rect x="34.000000" y="258.000000" width="51.600000" height="24.000000" rx="0" ry="0" style="stroke:none;fill:#003366;"/>
</a>
<a xlink:href="partial-0x7f68f890ff00.svg">
<text x="59.800000" y="272.000000" font-family="Arial" font-size="7" text-anchor="middle" fill="#FFFFFF">partial(7)</text>
</a>
<circle cx="36.000000" cy="260.000000" r="1"/>
<a xlink:href="partial-0x7f68f8913290.svg">
<rect x="35.000000" y="291.000000" width="51.600000" height="24.000000" rx="0.1" ry="0.1" style="stroke:none;fill:#aaaaaa;;filter:url(#filter);"/>
<rect x="34.000000" y="290.000000" width="51.600000" height="24.000000" rx="0" ry="0" style="stroke:none;fill:#003366;"/>
</a>
<a xlink:href="partial-0x7f68f8913290.svg">
<text x="59.800000" y="304.000000" font-family="Arial" font-size="7" text-anchor="middle" fill="#FFFFFF">partial(8)</text>
</a>
<circle cx="36.000000" cy="292.000000" r="1"/>
<a xlink:href="partial-0x7f68f8916620.svg">
<rect x="35.000000" y="323.000000" width="51.600000" height="24.000000" rx="0.1" ry="0.1" style="stroke:none;fill:#aaaaaa;;filter:url(#filter);"/>
<rect x="34.000000" y="322.000000" width="51.600000" height="24.000000" rx="0" ry="0" style="stroke:none;fill:#003366;"/>
</a>
<a xlink:href="partial-0x7f68f8916620.svg">
<text x="59.800000" y="336.000000" font-family="Arial" font-size="7" text-anchor="middle" fill="#FFFFFF">partial(9)</text>
</a>
<circle cx="36.000000" cy="324.000000" r="1"/>
<a xlink:href="partial-0x7f68f89199b0.svg">
<rect x="35.000000" y="355.000000" width="51.600000" height="24.000000" rx="0.1" ry="0.1" style="stroke:none;fill:#aaaaaa;;filter:url(#filter);"/>
<rect x="34.000000" y="354.000000" width="51.600000" height="24.000000" rx="0" ry="0" style="stroke:none;fill:#003366;"/>
</a>
<a xlink:href="partial-0x7f68f89199b0.svg">
<text x="59.800000" y="368.000000" font-family="Arial" font-size="7" text-anchor="middle" fill="#FFFFFF">partial(10)</text>
</a>
<circle cx="36.000000" cy="356.000000" r="1"/>
<a xlink:href="partial-0x7f68f891cd40.svg">
<rect x="35.000000" y="387.000000" width="51.600000" height="24.000000" rx="0.1" ry="0.1" style="stroke:none;fill:#aaaaaa;;filter:url(#filter);"/>
<rect x="34.000000" y="386.000000" width="51.600000" height="24.000000" rx="0" ry="0" style="stroke:none;fill:#003366;"/>
</a>
<a xlink:href="partial-0x7f68f891cd40.svg">
<text x="59.800000" y="400.000000" font-family="Arial" font-size="7" text-anchor="middle" fill="#FFFFFF">partial(11)</text>
</a>
<circle cx="36.000000" cy="388.000000" r="1"/>
<a xlink:href="partial-0x7f68f89200d0.svg">
<rect x="35.000000" y="419.000000" width="51.600000" height="24.000000" rx="0.1" ry="0.1" style="stroke:none;fill:#aaaaaa;;filter:url(#filter);"/>
<rect x="34.000000" y="418.000000" width="51.600000" height="24.000000" rx="0" ry="0" style="stroke:none;fill:#003366;"/>
</a>
<a xlink:href="partial-0x7f68f89200d0.svg">
<text x="59.800000" y="432.000000" font-family="Arial" font-size="7" text-anchor="middle" fill="#FFFFFF">partial(12)</text>
</a>
<circle cx="36.000000" cy="420.000000" r="1"/>
<a xlink:href="partial-0x7f68f8923460.svg">
<rect x="35.000000" y="451.000000" width="51.600000" height="24.000000" rx="0.1" ry="0.1" style="stroke:none;fill:#aaaaaa;;filter:url(#filter);"/>
<rect x="34.000000" y="450.000000" width="51.600000" height="24.000000" rx="0" ry="0" style="stroke:none;fill:#003366;"/>
</a>
<a xlink:href="partial-0x7f68f8923460.svg">
<text x="59.800000" y="464.000000" font-family="Arial" font-size="7" text-anchor="middle" fill="#FFFFFF">partial(13)</text>
</a>
<circle cx="36.000000" cy="452.000000" r="1"/>
<a xlink:href="partial-0x7f68f89267f0.svg">
<rect x="35.000000" y="483.000000" width="51.600000" height="24.000000" rx="0.1" ry="0.1" style="stroke:none;fill:#aaaaaa;;filter:url(#filter);"/>
<rect x="34.000000" y="482.000000" width="51.600000" height="24.000000" rx="0" ry="0" style="stroke:none;fill:#003366;"/>
</a>
<a xlink:href="partial-0x7f68f89267f0.svg">
<text x="59.800000" y="496.000000" font-family="Arial" font-size="7" text-anchor="middle" fill="#FFFFFF">partial(14)</text>
</a>
<circle cx="36.000000" cy="484.000000" r="1"/>
<a xlink:href="partial-0x7f68f8929b60.svg">
<rect x="35.000000" y="515.000000" width="51.600000" height="24.000000" rx="0.1" ry="0.1" style="stroke:none;fill:#aaaaaa;;filter:url(#filter);"/>
<rect x="34.000000" y="514.000000" width="51.600000" height="24.000000" rx="0" ry="0" style="stroke:none;fill:#003366;"/>
</a>
<a xlink:href="partial-0x7f68f8929b60.svg">
<text x="59.800000" y="528.000000" font-family="Arial" font-size="7" text-anchor="middle" fill="#FFFFFF">partial(15)</text>
</a>
<circle cx="36.000000" cy="516.000000" r="1"/>
<line x1="25.000000" y1="25.000000" x2="25.000000" y2="547.000000"  style="stroke: black; stroke-linecap:round; stroke-width:0.25; stroke-dasharray:3,3;"/>
<line x1="25.000000" y1="547.000000" x2="94.600000" y2="547.000000"  style="stroke: black; stroke-linecap:round; stroke-width:0.25; stroke-dasharray:3,3;"/>
<line x1="94.600000" y1="547.000000" x2="94.600000" y2="25.000000"  style="stroke: black; stroke-linecap:round; stroke-width:0.25; stroke-dasharray:3,3;"/>
<line x1="25.000000" y1="25.000000" x2="30.000000" y2="25.000000"  style="stroke: black; stroke-linecap:round; stroke-width:0.25; stroke-dasharray:3,3;"/>
<line x1="78.375000" y1="25.000000" x2="94.600000" y2="25.000000"  style="stroke: black; stroke-linecap:round; stroke-width:0.25; stroke-dasharray:3,3;"/>
<text x="30.000000" y="27.000000" font-family="Arial" font-size="7">hgroup(SINUS)</text>
<rect x="262.600000" y="279.000000" width="24.000000" height="24.000000" rx="0.1" ry="0.1" style="stroke:none;fill:#aaaaaa;;filter:url(#filter);"/>
<rect x="261.600000" y="278.000000" width="24.000000" height="24.000000" rx="0" ry="0" style="stroke:none;fill:#f44800;"/>
<text x="273.600000" y="292.000000" font-family="Arial" font-size="7" text-anchor="middle" fill="#FFFFFF">2</text>
<circle cx="263.600000" cy="280.000000" r="1"/>
<line x1="252.600000" y1="269.000000" x2="252.600000" y2="311.000000"  style="stroke: black; stroke-linecap:round; stroke-width:0.25; stroke-dasharray:3,3;"/>
<line x1="252.600000" y1="311.000000" x2="294.600000" y2="311.000000"  style="stroke: black; stroke-linecap:round; stroke-width:0.25; stroke-dasharray:3,3;"/>
<line x1="294.600000" y1="311.000000" x2="294.600000" y2="269.000000"  style="stroke: black; stroke-linecap:round; stroke-width:0.25; stroke-dasharray:3,3;"/>
<line x1="252.600000" y1="269.000000" x2="257.600000" y2="269.000000"  style="stroke: black; stroke-linecap:round; stroke-width:0.25; stroke-dasharray:3,3;"/>
<line x1="267.275000" y1="269.000000" x2="294.600000" y2="269.000000"  style="stroke: black; stroke-linecap:round; stroke-width:0.25; stroke-dasharray:3,3;"/>
<text x="257.600000" y="271.000000" font-family="Arial" font-size="7">S</text>
<rect x="312.600000" y="275.000000" width="24.000000" height="24.000000" rx="0.1" ry="0.1" style="stroke:none;fill:#aaaaaa;;filter:url(#filter);"/>
<rect x="311.600000" y="274.000000" width="24.000000" height="24.000000" rx="0" ry="0" style="stroke:none;fill:#4B71A1;"/>
<text x="323.600000" y="288.000000" font-family="Arial" font-size="7" text-anchor="middle" fill="#FFFFFF">/</text>
<circle cx="313.600000" cy="276.000000" r="1"/>
<line x1="308.600000" y1="281.000000" x2="311.600000" y2="282.000000"  transform="rotate(0.000000,311.600000,282.000000)" style="stroke: black; stroke-width:0.25;"/>
<line x1="308.600000" y1="283.000000" x2="311.600000" y2="282.000000"  transform="rotate(0.000000,311.600000,282.000000)" style="stroke: black; stroke-width:0.25;"/>
<line x1="308.600000" y1="289.000000" x2="311.600000" y2="290.000000"  transform="rotate(0.000000,311.600000,290.000000)" style="stroke: black; stroke-width:0.25;"/>
<line x1="308.600000" y1="291.000000" x2="311.600000" y2="290.000000"  transform="rotate(0.000000,311.600000,290.000000)" style="stroke: black; stroke-width:0.25;"/>
<rect x="90.500000" y="577.000000" width="180.600000" height="24.000000" rx="0.1" ry="0.1" style="stroke:none;fill:#aaaaaa;;filter:url(#filter);"/>
<rect x="89.500000" y="576.000000" width="180.600000" height="24.000000" rx="0" ry="0" style="stroke:none;fill:#477881;"/>
<text x="179.800000" y="590.000000" font-family="Arial" font-size="7" text-anchor="middle" fill="#FFFFFF">vslider(volume, 0.0f, 0.0f, 1.0f, 0.01f)</text>
<circle cx="91.500000" cy="578.000000" r="1"/>
<line x1="80.500000" y1="567.000000" x2="80.500000" y2="609.000000"  style="stroke: black; stroke-linecap:round; stroke-width:0.25; stroke-dasharray:3,3;"/>
<line x1="80.500000" y1="609.000000" x2="279.100000" y2="609.000000"  style="stroke: black; stroke-linecap:round; stroke-width:0.25; stroke-dasharray:3,3;"/>
<line x1="279.100000" y1="609.000000" x2="279.100000" y2="567.000000"  style="stroke: black; stroke-linecap:round; stroke-width:0.25; stroke-dasharray:3,3;"/>
<line x1="80.500000" y1="567.000000" x2="85.500000" y2="567.000000"  style="stroke: black; stroke-linecap:round; stroke-width:0.25; stroke-dasharray:3,3;"/>
<line x1="133.875000" y1="567.000000" x2="279.100000" y2="567.000000"  style="stroke: black; stroke-linecap:round; stroke-width:0.25; stroke-dasharray:3,3;"/>
<text x="85.500000" y="569.000000" font-family="Arial" font-size="7">vgroup(Noise)</text>
<line x1="70.500000" y1="557.000000" x2="70.500000" y2="619.000000"  style="stroke: black; stroke-linecap:round; stroke-width:0.25; stroke-dasharray:3,3;"/>
<line x1="70.500000" y1="619.000000" x2="289.100000" y2="619.000000"  style="stroke: black; stroke-linecap:round; stroke-width:0.25; stroke-dasharray:3,3;"/>
<line x1="289.100000" y1="619.000000" x2="289.100000" y2="557.000000"  style="stroke: black; stroke-linecap:round; stroke-width:0.25; stroke-dasharray:3,3;"/>
<line x1="70.500000" y1="557.000000" x2="75.500000" y2="557.000000"  style="stroke: black; stroke-linecap:round; stroke-width:0.25; stroke-dasharray:3,3;"/>
<line x1="175.475000" y1="557.000000" x2="289.100000" y2="557.000000"  style="stroke: black; stroke-linecap:round; stroke-width:0.25; stroke-dasharray:3,3;"/>
<text x="75.500000" y="559.000000" font-family="Arial" font-size="7">noiseGroup(vs...1.0f, 0.01f))</text>
<rect x="352.600000" y="311.000000" width="24.000000" height="24.000000" rx="0.1" ry="0.1" style="stroke:none;fill:#aaaaaa;;filter:url(#filter);"/>
<rect x="351.600000" y="310.000000" width="24.000000" height="24.000000" rx="0" ry="0" style="stroke:none;fill:#4B71A1;"/>
<text x="363.600000" y="324.000000" font-family="Arial" font-size="7" text-anchor="middle" fill="#FFFFFF">*</text>
<circle cx="353.600000" cy="312.000000" r="1"/>
<line x1="348.600000" y1="317.000000" x2="351.600000" y2="318.000000"  transform="rotate(0.000000,351.600000,318.000000)" style="stroke: black; stroke-width:0.25;"/>
<line x1="348.600000" y1="319.000000" x2="351.600000" y2="318.000000"  transform="rotate(0.000000,351.600000,318.000000)" style="stroke: black; stroke-width:0.25;"/>
<line x1="348.600000" y1="325.000000" x2="351.600000" y2="326.000000"  transform="rotate(0.000000,351.600000,326.000000)" style="stroke: black; stroke-width:0.25;"/>
<line x1="348.600000" y1="327.000000" x2="351.600000" y2="326.000000"  transform="rotate(0.000000,351.600000,326.000000)" style="stroke: black; stroke-width:0.25;"/>
<rect x="188.800000" y="639.000000" width="24.000000" height="24.000000" rx="0.1" ry="0.1" style="stroke:none;fill:#aaaaaa;;filter:url(#filter);"/>
<rect x="187.800000" y="638.000000" width="24.000000" height="24.000000" rx="0" ry="0" style="stroke:none;fill:#f44800;"/>
<text x="199.800000" y="652.000000" font-family="Arial" font-size="7" text-anchor="middle" fill="#FFFFFF">0.4</text>
<circle cx="189.800000" cy="640.000000" r="1"/>
<line x1="178.800000" y1="629.000000" x2="178.800000" y2="671.000000"  style="stroke: black; stroke-linecap:round; stroke-width:0.25; stroke-dasharray:3,3;"/>
<line x1="178.800000" y1="671.000000" x2="220.800000" y2="671.000000"  style="stroke: black; stroke-linecap:round; stroke-width:0.25; stroke-dasharray:3,3;"/>
<line x1="220.800000" y1="671.000000" x2="220.800000" y2="629.000000"  style="stroke: black; stroke-linecap:round; stroke-width:0.25; stroke-dasharray:3,3;"/>
<line x1="178.800000" y1="629.000000" x2="183.800000" y2="629.000000"  style="stroke: black; stroke-linecap:round; stroke-width:0.25; stroke-dasharray:3,3;"/>
<line x1="216.050000" y1="629.000000" x2="220.800000" y2="629.000000"  style="stroke: black; stroke-linecap:round; stroke-width:0.25; stroke-dasharray:3,3;"/>
<text x="183.800000" y="631.000000" font-family="Arial" font-size="7">maxLevel</text>
<rect x="392.600000" y="337.000000" width="24.000000" height="24.000000" rx="0.1" ry="0.1" style="stroke:none;fill:#aaaaaa;;filter:url(#filter);"/>
<rect x="391.600000" y="336.000000" width="24.000000" height="24.000000" rx="0" ry="0" style="stroke:none;fill:#4B71A1;"/>
<text x="403.600000" y="350.000000" font-family="Arial" font-size="7" text-anchor="middle" fill="#FFFFFF">*</text>
<circle cx="393.600000" cy="338.000000" r="1"/>
<line x1="388.600000" y1="343.000000" x2="391.600000" y2="344.000000"  transform="rotate(0.000000,391.600000,344.000000)" style="stroke: black; stroke-width:0.25;"/>
<line x1="388.600000" y1="345.000000" x2="391.600000" y2="344.000000"  transform="rotate(0.000000,391.600000,344.000000)" style="stroke: black; stroke-width:0.25;"/>
<line x1="388.600000" y1="351.000000" x2="391.600000" y2="352.000000"  transform="rotate(0.000000,391.600000,352.000000)" style="stroke: black; stroke-width:0.25;"/>
<line x1="388.600000" y1="353.000000" x2="391.600000" y2="352.000000"  transform="rotate(0.000000,391.600000,352.000000)" style="stroke: black; stroke-width:0.25;"/>
<line x1="15.000000" y1="15.000000" x2="15.000000" y2="681.000000"  style="stroke: black; stroke-linecap:round; stroke-width:0.25; stroke-dasharray:3,3;"/>
<line x1="15.000000" y1="681.000000" x2="622.600000" y2="681.000000"  style="stroke: black; stroke-linecap:round; stroke-width:0.25; stroke-dasharray:3,3;"/>
<line x1="622.600000" y1="681.000000" x2="622.600000" y2="15.000000"  style="stroke: black; stroke-linecap:round; stroke-width:0.25; stroke-dasharray:3,3;"/>
<line x1="15.000000" y1="15.000000" x2="20.000000" y2="15.000000"  style="stroke: black; stroke-linecap:round; stroke-width:0.25; stroke-dasharray:3,3;"/>
<line x1="49.025000" y1="15.000000" x2="622.600000" y2="15.000000"  style="stroke: black; stroke-linecap:round; stroke-width:0.25; stroke-dasharray:3,3;"/>
<text x="20.000000" y="17.000000" font-family="Arial" font-size="7">process</text>
<line x1="624.600000" y1="343.000000" x2="627.600000" y2="344.000000"  transform="rotate(0.000000,627.600000,344.000000)" style="stroke: black; stroke-width:0.25;"/>
<line x1="624.600000" y1="345.000000" x2="627.600000" y2="344.000000"  transform="rotate(0.000000,627.600000,344.000000)" style="stroke: black; stroke-width:0.25;"/>
<line x1="624.600000" y1="351.000000" x2="627.600000" y2="352.000000"  transform="rotate(0.000000,627.600000,352.000000)" style="stroke: black; stroke-width:0.25;"/>
<line x1="624.600000" y1="353.000000" x2="627.600000" y2="352.000000"  transform="rotate(0.000000,627.600000,352.000000)" style="stroke: black; stroke-width:0.25;"/>
<line x1="85.600000" y1="46.000000" x2="89.600000" y2="46.000000"  style="stroke:black; stroke-linecap:round; stroke-width:0.25;"/>
<line x1="85.600000" y1="78.000000" x2="89.600000" y2="78.000000"  style="stroke:black; stroke-linecap:round; stroke-width:0.25;"/>
<line x1="85.600000" y1="110.000000" x2="89.600000" y2="110.000000"  style="stroke:black; stroke-linecap:round; stroke-width:0.25;"/>
<line x1="85.600000" y1="142.000000" x2="89.600000" y2="142.000000"  style="stroke:black; stroke-linecap:round; stroke-width:0.25;"/>
<line x1="85.600000" y1="174.000000" x2="89.600000" y2="174.000000"  style="stroke:black; stroke-linecap:round; stroke-width:0.25;"/>
<line x1="85.600000" y1="206.000000" x2="89.600000" y2="206.000000"  style="stroke:black; stroke-linecap:round; stroke-width:0.25;"/>
<line x1="85.600000" y1="238.000000" x2="89.600000" y2="238.000000"  style="stroke:black; stroke-linecap:round; stroke-width:0.25;"/>
<line x1="85.600000" y1="270.000000" x2="89.600000" y2="270.000000"  style="stroke:black; stroke-linecap:round; stroke-width:0.25;"/>
<line x1="85.600000" y1="302.000000" x2="89.600000" y2="302.000000"  style="stroke:black; stroke-linecap:round; stroke-width:0.25;"/>
<line x1="85.600000" y1="334.000000" x2="89.600000" y2="334.000000"  style="stroke:black; stroke-linecap:round; stroke-width:0.25;"/>
<line x1="85.600000" y1="366.000000" x2="89.600000" y2="366.000000"  style="stroke:black; stroke-linecap:round; stroke-width:0.25;"/>
<line x1="85.600000" y1="398.000000" x2="89.600000" y2="398.000000"  style="stroke:black; stroke-linecap:round; stroke-width:0.25;"/>
<line x1="85.600000" y1="430.000000" x2="89.600000" y2="430.000000"  style="stroke:black; stroke-linecap:round; stroke-width:0.25;"/>
<line x1="85.600000" y1="462.000000" x2="89.600000" y2="462.000000"  style="stroke:black; stroke-linecap:round; stroke-width:0.25;"/>
<line x1="85.600000" y1="494.000000" x2="89.600000" y2="494.000000"  style="stroke:black; stroke-linecap:round; stroke-width:0.25;"/>
<line x1="85.600000" y1="526.000000" x2="89.600000" y2="526.000000"  style="stroke:black; stroke-linecap:round; stroke-width:0.25;"/>
<line x1="89.600000" y1="46.000000" x2="99.600000" y2="46.000000"  style="stroke:black; stroke-linecap:round; stroke-width:0.25;"/>
<line x1="89.600000" y1="78.000000" x2="99.600000" y2="78.000000"  style="stroke:black; stroke-linecap:round; stroke-width:0.25;"/>
<line x1="89.600000" y1="110.000000" x2="99.600000" y2="110.000000"  style="stroke:black; stroke-linecap:round; stroke-width:0.25;"/>
<line x1="89.600000" y1="142.000000" x2="99.600000" y2="142.000000"  style="stroke:black; stroke-linecap:round; stroke-width:0.25;"/>
<line x1="89.600000" y1="174.000000" x2="99.600000" y2="174.000000"  style="stroke:black; stroke-linecap:round; stroke-width:0.25;"/>
<line x1="89.600000" y1="206.000000" x2="99.600000" y2="206.000000"  style="stroke:black; stroke-linecap:round; stroke-width:0.25;"/>
<line x1="89.600000" y1="238.000000" x2="99.600000" y2="238.000000"  style="stroke:black; stroke-linecap:round; stroke-width:0.25;"/>
<line x1="89.600000" y1="270.000000" x2="99.600000" y2="270.000000"  style="stroke:black; stroke-linecap:round; stroke-width:0.25;"/>
<line x1="89.600000" y1="302.000000" x2="99.600000" y2="302.000000"  style="stroke:black; stroke-linecap:round; stroke-width:0.25;"/>
<line x1="89.600000" y1="334.000000" x2="99.600000" y2="334.000000"  style="stroke:black; stroke-linecap:round; stroke-width:0.25;"/>
<line x1="89.600000" y1="366.000000" x2="99.600000" y2="366.000000"  style="stroke:black; stroke-linecap:round; stroke-width:0.25;"/>
<line x1="89.600000" y1="398.000000" x2="99.600000" y2="398.000000"  style="stroke:black; stroke-linecap:round; stroke-width:0.25;"/>
<line x1="89.600000" y1="430.000000" x2="99.600000" y2="430.000000"  style="stroke:black; stroke-linecap:round; stroke-width:0.25;"/>
<line x1="89.600000" y1="462.000000" x2="99.600000" y2="462.000000"  style="stroke:black; stroke-linecap:round; stroke-width:0.25;"/>
<line x1="89.600000" y1="494.000000" x2="99.600000" y2="494.000000"  style="stroke:black; stroke-linecap:round; stroke-width:0.25;"/>
<line x1="89.600000" y1="526.000000" x2="99.600000" y2="526.000000"  style="stroke:black; stroke-linecap:round; stroke-width:0.25;"/>
<line x1="99.600000" y1="46.000000" x2="247.600000" y2="260.000000"  style="stroke:black; stroke-linecap:round; stroke-width:0.25;"/>
<line x1="99.600000" y1="78.000000" x2="247.600000" y2="260.000000"  style="stroke:black; stroke-linecap:round; stroke-width:0.25;"/>
<line x1="99.600000" y1="110.000000" x2="247.600000" y2="260.000000"  style="stroke:black; stroke-linecap:round; stroke-width:0.25;"/>
<line x1="99.600000" y1="142.000000" x2="247.600000" y2="260.000000"  style="stroke:black; stroke-linecap:round; stroke-width:0.25;"/>
<line x1="99.600000" y1="174.000000" x2="247.600000" y2="260.000000"  style="stroke:black; stroke-linecap:round; stroke-width:0.25;"/>
<line x1="99.600000" y1="206.000000" x2="247.600000" y2="260.000000"  style="stroke:black; stroke-linecap:round; stroke-width:0.25;"/>
<line x1="99.600000" y1="238.000000" x2="247.600000" y2="260.000000"  style="stroke:black; stroke-linecap:round; stroke-width:0.25;"/>
<line x1="99.600000" y1="270.000000" x2="247.600000" y2="260.000000"  style="stroke:black; stroke-linecap:round; stroke-width:0.25;"/>
<line x1="99.600000" y1="302.000000" x2="247.600000" y2="260.000000"  style="stroke:black; stroke-linecap:round; stroke-width:0.25;"/>
<line x1="99.600000" y1="334.000000" x2="247.600000" y2="260.000000"  style="stroke:black; stroke-linecap:round; stroke-width:0.25;"/>
<line x1="99.600000" y1="366.000000" x2="247.600000" y2="260.000000"  style="stroke:black; stroke-linecap:round; stroke-width:0.25;"/>
<line x1="99.600000" y1="398.000000" x2="247.600000" y2="260.000000"  style="stroke:black; stroke-linecap:round; stroke-width:0.25;"/>
<line x1="99.600000" y1="430.000000" x2="247.600000" y2="260.000000"  style="stroke:black; stroke-linecap:round; stroke-width:0.25;"/>
<line x1="99.600000" y1="462.000000" x2="247.600000" y2="260.000000"  style="stroke:black; stroke-linecap:round; stroke-width:0.25;"/>
<line x1="99.600000" y1="494.000000" x2="247.600000" y2="260.000000"  style="stroke:black; stroke-linecap:round; stroke-width:0.25;"/>
<line x1="99.600000" y1="526.000000" x2="247.600000" y2="260.000000"  style="stroke:black; stroke-linecap:round; stroke-width:0.25;"/>
<line x1="211.800000" y1="650.000000" x2="215.800000" y2="650.000000"  style="stroke:black; stroke-linecap:round; stroke-width:0.25;"/>
<line x1="215.800000" y1="650.000000" x2="225.800000" y2="650.000000"  style="stroke:black; stroke-linecap:round; stroke-width:0.25;"/>
<line x1="225.800000" y1="650.000000" x2="379.600000" y2="650.000000"  style="stroke:black; stroke-linecap:round; stroke-width:0.25;"/>
<line x1="247.600000" y1="260.000000" x2="273.600000" y2="260.000000"  style="stroke:black; stroke-linecap:round; stroke-width:0.25;"/>
<line x1="270.100000" y1="588.000000" x2="274.100000" y2="588.000000"  style="stroke:black; stroke-linecap:round; stroke-width:0.25;"/>
<line x1="273.600000" y1="260.000000" x2="299.600000" y2="260.000000"  style="stroke:black; stroke-linecap:round; stroke-width:0.25;"/>
<line x1="274.100000" y1="588.000000" x2="284.100000" y2="588.000000"  style="stroke:black; stroke-linecap:round; stroke-width:0.25;"/>
<line x1="284.100000" y1="588.000000" x2="294.100000" y2="588.000000"  style="stroke:black; stroke-linecap:round; stroke-width:0.25;"/>
<line x1="285.600000" y1="290.000000" x2="289.600000" y2="290.000000"  style="stroke:black; stroke-linecap:round; stroke-width:0.25;"/>
<line x1="289.600000" y1="290.000000" x2="299.600000" y2="290.000000"  style="stroke:black; stroke-linecap:round; stroke-width:0.25;"/>
<line x1="294.100000" y1="588.000000" x2="339.600000" y2="588.000000"  style="stroke:black; stroke-linecap:round; stroke-width:0.25;"/>
<line x1="299.600000" y1="260.000000" x2="307.600000" y2="260.000000"  style="stroke:black; stroke-linecap:round; stroke-width:0.25;"/>
<line x1="299.600000" y1="290.000000" x2="307.600000" y2="290.000000"  style="stroke:black; stroke-linecap:round; stroke-width:0.25;"/>
<line x1="307.600000" y1="260.000000" x2="307.600000" y2="282.000000"  style="stroke:black; stroke-linecap:round; stroke-width:0.25;"/>
<line x1="307.600000" y1="282.000000" x2="307.600000" y2="282.000000"  style="stroke:black; stroke-linecap:round; stroke-width:0.25;"/>
<line x1="307.600000" y1="282.000000" x2="311.600000" y2="282.000000"  style="stroke:black; stroke-linecap:round; stroke-width:0.25;"/>
<line x1="307.600000" y1="290.000000" x2="311.600000" y2="290.000000"  style="stroke:black; stroke-linecap:round; stroke-width:0.25;"/>
<line x1="335.600000" y1="286.000000" x2="339.600000" y2="286.000000"  style="stroke:black; stroke-linecap:round; stroke-width:0.25;"/>
<line x1="339.600000" y1="286.000000" x2="347.600000" y2="286.000000"  style="stroke:black; stroke-linecap:round; stroke-width:0.25;"/>
<line x1="339.600000" y1="326.000000" x2="347.600000" y2="326.000000"  style="stroke:black; stroke-linecap:round; stroke-width:0.25;"/>
<line x1="339.600000" y1="588.000000" x2="339.600000" y2="326.000000"  style="stroke:black; stroke-linecap:round; stroke-width:0.25;"/>
<line x1="339.600000" y1="588.000000" x2="339.600000" y2="588.000000"  style="stroke:black; stroke-linecap:round; stroke-width:0.25;"/>
<line x1="347.600000" y1="286.000000" x2="347.600000" y2="318.000000"  style="stroke:black; stroke-linecap:round; stroke-width:0.25;"/>
<line x1="347.600000" y1="318.000000" x2="347.600000" y2="318.000000"  style="stroke:black; stroke-linecap:round; stroke-width:0.25;"/>
<line x1="347.600000" y1="318.000000" x2="351.600000" y2="318.000000"  style="stroke:black; stroke-linecap:round; stroke-width:0.25;"/>
<line x1="347.600000" y1="326.000000" x2="351.600000" y2="326.000000"  style="stroke:black; stroke-linecap:round; stroke-width:0.25;"/>
<line x1="375.600000" y1="322.000000" x2="379.600000" y2="322.000000"  style="stroke:black; stroke-linecap:round; stroke-width:0.25;"/>
<line x1="379.600000" y1="322.000000" x2="387.600000" y2="322.000000"  style="stroke:black; stroke-linecap:round; stroke-width:0.25;"/>
<line x1="379.600000" y1="352.000000" x2="387.600000" y2="352.000000"  style="stroke:black; stroke-linecap:round; stroke-width:0.25;"/>
<line x1="379.600000" y1="650.000000" x2="379.600000" y2="352.000000"  style="stroke:black; stroke-linecap:round; stroke-width:0.25;"/>
<line x1="379.600000" y1="650.000000" x2="379.600000" y2="650.000000"  style="stroke:black; stroke-linecap:round; stroke-width:0.25;"/>
<line x1="387.600000" y1="322.000000" x2="387.600000" y2="344.000000"  style="stroke:black; stroke-linecap:round; stroke-width:0.25;"/>
<line x1="387.600000" y1="344.000000" x2="387.600000" y2="344.000000"  style="stroke:black; stroke-linecap:round; stroke-width:0.25;"/>
<line x1="387.600000" y1="344.000000" x2="391.600000" y2="344.000000"  style="stroke:black; stroke-linecap:round; stroke-width:0.25;"/>
<line x1="387.600000" y1="352.000000" x2="391.600000" y2="352.000000"  style="stroke:black; stroke-linecap:round; stroke-width:0.25;"/>
<line x1="415.600000" y1="348.000000" x2="419.600000" y2="348.000000"  style="stroke:black; stroke-linecap:round; stroke-width:0.25;"/>
<line x1="419.600000" y1="348.000000" x2="587.600000" y2="348.000000"  style="stroke:black; stroke-linecap:round; stroke-width:0.25;"/>
<line x1="587.600000" y1="348.000000" x2="591.600000" y2="348.000000"  style="stroke:black; stroke-linecap:round; stroke-width:0.25;"/>
<line x1="591.600000" y1="348.000000" x2="595.600000" y2="348.000000"  style="stroke:black; stroke-linecap:round; stroke-width:0.25;"/>
<line x1="595.600000" y1="348.000000" x2="601.600000" y2="344.000000"  style="stroke:black; stroke-linecap:round; stroke-width:0.25;"/>
<line x1="595.600000" y1="348.000000" x2="601.600000" y2="352.000000"  style="stroke:black; stroke-linecap:round; stroke-width:0.25;"/>
<line x1="601.600000" y1="344.000000" x2="605.600000" y2="344.000000"  style="stroke:black; stroke-linecap:round; stroke-width:0.25;"/>
<line x1="601.600000" y1="352.000000" x2="605.600000" y2="352.000000"  style="stroke:black; stroke-linecap:round; stroke-width:0.25;"/>
<line x1="605.600000" y1="344.000000" x2="609.600000" y2="344.000000"  style="stroke:black; stroke-linecap:round; stroke-width:0.25;"/>
<line x1="605.600000" y1="352.000000" x2="609.600000" y2="352.000000"  style="stroke:black; stroke-linecap:round; stroke-width:0.25;"/>
<line x1="609.600000" y1="344.000000" x2="609.600000" y2="344.000000"  style="stroke:black; stroke-linecap:round; stroke-width:0.25;"/>
<line x1="609.600000" y1="344.000000" x2="613.600000" y2="344.000000"  style="stroke:black; stroke-linecap:round; stroke-width:0.25;"/>
<line x1="609.600000" y1="352.000000" x2="609.600000" y2="352.000000"  style="stroke:black; stroke-linecap:round; stroke-width:0.25;"/>
<line x1="609.600000" y1="352.000000" x2="613.600000" y2="352.000000"  style="stroke:black; stroke-linecap:round; stroke-width:0.25;"/>
<line x1="613.600000" y1="344.000000" x2="617.600000" y2="344.000000"  style="stroke:black; stroke-linecap:round; stroke-width:0.25;"/>
<line x1="613.600000" y1="352.000000" x2="617.600000" y2="352.000000"  style="stroke:black; stroke-linecap:round; stroke-width:0.25;"/>
<line x1="617.600000" y1="344.000000" x2="627.600000" y2="344.000000"  style="stroke:black; stroke-linecap:round; stroke-width:0.25;"/>
<line x1="617.600000" y1="352.000000" x2="627.600000" y2="352.000000"  style="stroke:black; stroke-linecap:round; stroke-width:0.25;"/>
</svg>
