<?xml version="1.0"?>
<svg xmlns="http://www.w3.org/2000/svg" xmlns:xlink="http://www.w3.org/1999/xlink" viewBox="0 0 350.400000 164.000000" width="175.200000mm" height="82.000000mm" version="1.1">
<defs>
   <filter id="filter" filterRes="18" x="0" y="0">
     <feGaussianBlur in="SourceGraphic" stdDeviation="1.55" result="blur"/>
     <feOffset in="blur" dx="3" dy="3"/>
   </filter>
</defs>
<a xlink:href="process.svg">
<rect x="1.000000" y="1.000000" width="349.400000" height="163.000000" rx="0.1" ry="0.1" style="stroke:none;fill:#aaaaaa;;filter:url(#filter);"/>
<rect x="0.000000" y="0.000000" width="349.400000" height="163.000000" rx="0" ry="0" style="stroke:none;fill:#ffffff;"/>
</a>
<text x="10.000000" y="7.000000" font-family="Arial" font-size="7"></text>
<rect x="45.000000" y="45.000000" width="180.600000" height="24.000000" rx="0.1" ry="0.1" style="stroke:none;fill:#aaaaaa;;filter:url(#filter);"/>
<rect x="44.000000" y="44.000000" width="180.600000" height="24.000000" rx="0" ry="0" style="stroke:none;fill:#477881;"/>
<text x="134.300000" y="58.000000" font-family="Arial" font-size="7" text-anchor="middle" fill="#FFFFFF">vslider(Volume, 0.0f, 0.0f, 1.0f, 0.01f)</text>
<circle cx="46.000000" cy="46.000000" r="1"/>
<line x1="35.000000" y1="35.000000" x2="35.000000" y2="77.000000"  style="stroke: black; stroke-linecap:round; stroke-width:0.25; stroke-dasharray:3,3;"/>
<line x1="35.000000" y1="77.000000" x2="233.600000" y2="77.000000"  style="stroke: black; stroke-linecap:round; stroke-width:0.25; stroke-dasharray:3,3;"/>
<line x1="233.600000" y1="77.000000" x2="233.600000" y2="35.000000"  style="stroke: black; stroke-linecap:round; stroke-width:0.25; stroke-dasharray:3,3;"/>
<line x1="35.000000" y1="35.000000" x2="40.000000" y2="35.000000"  style="stroke: black; stroke-linecap:round; stroke-width:0.25; stroke-dasharray:3,3;"/>
<line x1="88.375000" y1="35.000000" x2="233.600000" y2="35.000000"  style="stroke: black; stroke-linecap:round; stroke-width:0.25; stroke-dasharray:3,3;"/>
<text x="40.000000" y="37.000000" font-family="Arial" font-size="7">hgroup(Noise)</text>
<line x1="25.000000" y1="25.000000" x2="25.000000" y2="87.000000"  style="stroke: black; stroke-linecap:round; stroke-width:0.25; stroke-dasharray:3,3;"/>
<line x1="25.000000" y1="87.000000" x2="243.600000" y2="87.000000"  style="stroke: black; stroke-linecap:round; stroke-width:0.25; stroke-dasharray:3,3;"/>
<line x1="243.600000" y1="87.000000" x2="243.600000" y2="25.000000"  style="stroke: black; stroke-linecap:round; stroke-width:0.25; stroke-dasharray:3,3;"/>
<line x1="25.000000" y1="25.000000" x2="30.000000" y2="25.000000"  style="stroke: black; stroke-linecap:round; stroke-width:0.25; stroke-dasharray:3,3;"/>
<line x1="129.975000" y1="25.000000" x2="243.600000" y2="25.000000"  style="stroke: black; stroke-linecap:round; stroke-width:0.25; stroke-dasharray:3,3;"/>
<text x="30.000000" y="27.000000" font-family="Arial" font-size="7">noiseGroup(vs...1.0f, 0.01f))</text>
<rect x="123.300000" y="107.000000" width="24.000000" height="24.000000" rx="0.1" ry="0.1" style="stroke:none;fill:#aaaaaa;;filter:url(#filter);"/>
<rect x="122.300000" y="106.000000" width="24.000000" height="24.000000" rx="0" ry="0" style="stroke:none;fill:#f44800;"/>
<text x="134.300000" y="120.000000" font-family="Arial" font-size="7" text-anchor="middle" fill="#FFFFFF">2</text>
<circle cx="124.300000" cy="108.000000" r="1"/>
<line x1="113.300000" y1="97.000000" x2="113.300000" y2="139.000000"  style="stroke: black; stroke-linecap:round; stroke-width:0.25; stroke-dasharray:3,3;"/>
<line x1="113.300000" y1="139.000000" x2="155.300000" y2="139.000000"  style="stroke: black; stroke-linecap:round; stroke-width:0.25; stroke-dasharray:3,3;"/>
<line x1="155.300000" y1="139.000000" x2="155.300000" y2="97.000000"  style="stroke: black; stroke-linecap:round; stroke-width:0.25; stroke-dasharray:3,3;"/>
<line x1="113.300000" y1="97.000000" x2="118.300000" y2="97.000000"  style="stroke: black; stroke-linecap:round; stroke-width:0.25; stroke-dasharray:3,3;"/>
<line x1="131.200000" y1="97.000000" x2="155.300000" y2="97.000000"  style="stroke: black; stroke-linecap:round; stroke-width:0.25; stroke-dasharray:3,3;"/>
<text x="118.300000" y="99.000000" font-family="Arial" font-size="7">Nc</text>
<rect x="261.600000" y="71.000000" width="24.000000" height="24.000000" rx="0.1" ry="0.1" style="stroke:none;fill:#aaaaaa;;filter:url(#filter);"/>
<rect x="260.600000" y="70.000000" width="24.000000" height="24.000000" rx="0" ry="0" style="stroke:none;fill:#4B71A1;"/>
<text x="272.600000" y="84.000000" font-family="Arial" font-size="7" text-anchor="middle" fill="#FFFFFF">*</text>
<circle cx="262.600000" cy="72.000000" r="1"/>
<line x1="257.600000" y1="77.000000" x2="260.600000" y2="78.000000"  transform="rotate(0.000000,260.600000,78.000000)" style="stroke: black; stroke-width:0.25;"/>
<line x1="257.600000" y1="79.000000" x2="260.600000" y2="78.000000"  transform="rotate(0.000000,260.600000,78.000000)" style="stroke: black; stroke-width:0.25;"/>
<line x1="257.600000" y1="85.000000" x2="260.600000" y2="86.000000"  transform="rotate(0.000000,260.600000,86.000000)" style="stroke: black; stroke-width:0.25;"/>
<line x1="257.600000" y1="87.000000" x2="260.600000" y2="86.000000"  transform="rotate(0.000000,260.600000,86.000000)" style="stroke: black; stroke-width:0.25;"/>
<a xlink:href="smoo-0x7f1f1802b440.svg">
<rect x="293.600000" y="71.000000" width="25.800000" height="24.000000" rx="0.1" ry="0.1" style="stroke:none;fill:#aaaaaa;;filter:url(#filter);"/>
<rect x="292.600000" y="70.000000" width="25.800000" height="24.000000" rx="0" ry="0" style="stroke:none;fill:#003366;"/>
</a>
<a xlink:href="smoo-0x7f1f1802b440.svg">
<text x="305.500000" y="84.000000" font-family="Arial" font-size="7" text-anchor="middle" fill="#FFFFFF">smoo</text>
</a>
<circle cx="294.600000" cy="72.000000" r="1"/>
<line x1="289.600000" y1="81.000000" x2="292.600000" y2="82.000000"  transform="rotate(0.000000,292.600000,82.000000)" style="stroke: black; stroke-width:0.25;"/>
<line x1="289.600000" y1="83.000000" x2="292.600000" y2="82.000000"  transform="rotate(0.000000,292.600000,82.000000)" style="stroke: black; stroke-width:0.25;"/>
<line x1="15.000000" y1="15.000000" x2="15.000000" y2="149.000000"  style="stroke: black; stroke-linecap:round; stroke-width:0.25; stroke-dasharray:3,3;"/>
<line x1="15.000000" y1="149.000000" x2="335.400000" y2="149.000000"  style="stroke: black; stroke-linecap:round; stroke-width:0.25; stroke-dasharray:3,3;"/>
<line x1="335.400000" y1="149.000000" x2="335.400000" y2="15.000000"  style="stroke: black; stroke-linecap:round; stroke-width:0.25; stroke-dasharray:3,3;"/>
<line x1="15.000000" y1="15.000000" x2="20.000000" y2="15.000000"  style="stroke: black; stroke-linecap:round; stroke-width:0.25; stroke-dasharray:3,3;"/>
<line x1="55.475000" y1="15.000000" x2="335.400000" y2="15.000000"  style="stroke: black; stroke-linecap:round; stroke-width:0.25; stroke-dasharray:3,3;"/>
<text x="20.000000" y="17.000000" font-family="Arial" font-size="7">masterVol</text>
<line x1="337.400000" y1="81.000000" x2="340.400000" y2="82.000000"  transform="rotate(0.000000,340.400000,82.000000)" style="stroke: black; stroke-width:0.25;"/>
<line x1="337.400000" y1="83.000000" x2="340.400000" y2="82.000000"  transform="rotate(0.000000,340.400000,82.000000)" style="stroke: black; stroke-width:0.25;"/>
<line x1="146.300000" y1="118.000000" x2="150.300000" y2="118.000000"  style="stroke:black; stroke-linecap:round; stroke-width:0.25;"/>
<line x1="150.300000" y1="118.000000" x2="160.300000" y2="118.000000"  style="stroke:black; stroke-linecap:round; stroke-width:0.25;"/>
<line x1="160.300000" y1="118.000000" x2="248.600000" y2="118.000000"  style="stroke:black; stroke-linecap:round; stroke-width:0.25;"/>
<line x1="224.600000" y1="56.000000" x2="228.600000" y2="56.000000"  style="stroke:black; stroke-linecap:round; stroke-width:0.25;"/>
<line x1="228.600000" y1="56.000000" x2="238.600000" y2="56.000000"  style="stroke:black; stroke-linecap:round; stroke-width:0.25;"/>
<line x1="238.600000" y1="56.000000" x2="248.600000" y2="56.000000"  style="stroke:black; stroke-linecap:round; stroke-width:0.25;"/>
<line x1="248.600000" y1="56.000000" x2="256.600000" y2="56.000000"  style="stroke:black; stroke-linecap:round; stroke-width:0.25;"/>
<line x1="248.600000" y1="86.000000" x2="256.600000" y2="86.000000"  style="stroke:black; stroke-linecap:round; stroke-width:0.25;"/>
<line x1="248.600000" y1="118.000000" x2="248.600000" y2="86.000000"  style="stroke:black; stroke-linecap:round; stroke-width:0.25;"/>
<line x1="248.600000" y1="118.000000" x2="248.600000" y2="118.000000"  style="stroke:black; stroke-linecap:round; stroke-width:0.25;"/>
<line x1="256.600000" y1="56.000000" x2="256.600000" y2="78.000000"  style="stroke:black; stroke-linecap:round; stroke-width:0.25;"/>
<line x1="256.600000" y1="78.000000" x2="256.600000" y2="78.000000"  style="stroke:black; stroke-linecap:round; stroke-width:0.25;"/>
<line x1="256.600000" y1="78.000000" x2="260.600000" y2="78.000000"  style="stroke:black; stroke-linecap:round; stroke-width:0.25;"/>
<line x1="256.600000" y1="86.000000" x2="260.600000" y2="86.000000"  style="stroke:black; stroke-linecap:round; stroke-width:0.25;"/>
<line x1="284.600000" y1="82.000000" x2="288.600000" y2="82.000000"  style="stroke:black; stroke-linecap:round; stroke-width:0.25;"/>
<line x1="288.600000" y1="82.000000" x2="288.600000" y2="82.000000"  style="stroke:black; stroke-linecap:round; stroke-width:0.25;"/>
<line x1="288.600000" y1="82.000000" x2="292.600000" y2="82.000000"  style="stroke:black; stroke-linecap:round; stroke-width:0.25;"/>
<line x1="318.400000" y1="82.000000" x2="322.400000" y2="82.000000"  style="stroke:black; stroke-linecap:round; stroke-width:0.25;"/>
<line x1="322.400000" y1="82.000000" x2="322.400000" y2="82.000000"  style="stroke:black; stroke-linecap:round; stroke-width:0.25;"/>
<line x1="322.400000" y1="82.000000" x2="326.400000" y2="82.000000"  style="stroke:black; stroke-linecap:round; stroke-width:0.25;"/>
<line x1="326.400000" y1="82.000000" x2="330.400000" y2="82.000000"  style="stroke:black; stroke-linecap:round; stroke-width:0.25;"/>
<line x1="330.400000" y1="82.000000" x2="340.400000" y2="82.000000"  style="stroke:black; stroke-linecap:round; stroke-width:0.25;"/>
</svg>
