<?xml version="1.0"?>
<svg xmlns="http://www.w3.org/2000/svg" xmlns:xlink="http://www.w3.org/1999/xlink" viewBox="0 0 901.000000 400.000000" width="450.500000mm" height="200.000000mm" version="1.1">
<defs>
   <filter id="filter" filterRes="18" x="0" y="0">
     <feGaussianBlur in="SourceGraphic" stdDeviation="1.55" result="blur"/>
     <feOffset in="blur" dx="3" dy="3"/>
   </filter>
</defs>
<a xlink:href="process.svg">
<rect x="1.000000" y="1.000000" width="900.000000" height="399.000000" rx="0.1" ry="0.1" style="stroke:none;fill:#aaaaaa;;filter:url(#filter);"/>
<rect x="0.000000" y="0.000000" width="900.000000" height="399.000000" rx="0" ry="0" style="stroke:none;fill:#ffffff;"/>
</a>
<text x="10.000000" y="7.000000" font-family="Arial" font-size="7"></text>
<a xlink:href="pulsetrain-0x7fde3560a530.svg">
<rect x="35.000000" y="35.000000" width="129.000000" height="24.000000" rx="0.1" ry="0.1" style="stroke:none;fill:#aaaaaa;;filter:url(#filter);"/>
<rect x="34.000000" y="34.000000" width="129.000000" height="24.000000" rx="0" ry="0" style="stroke:none;fill:#003366;"/>
</a>
<a xlink:href="pulsetrain-0x7fde3560a530.svg">
<text x="98.500000" y="48.000000" font-family="Arial" font-size="7" text-anchor="middle" fill="#FFFFFF">pulsetrain(ne...,0.999f : *))</text>
</a>
<circle cx="36.000000" cy="36.000000" r="1"/>
<a xlink:href="gainPulse-0x7fde345d9110.svg">
<rect x="80.150000" y="67.000000" width="38.700000" height="24.000000" rx="0.1" ry="0.1" style="stroke:none;fill:#aaaaaa;;filter:url(#filter);"/>
<rect x="79.150000" y="66.000000" width="38.700000" height="24.000000" rx="0" ry="0" style="stroke:none;fill:#003366;"/>
</a>
<a xlink:href="gainPulse-0x7fde345d9110.svg">
<text x="98.500000" y="80.000000" font-family="Arial" font-size="7" text-anchor="middle" fill="#FFFFFF">gainPulse</text>
</a>
<circle cx="81.150000" cy="68.000000" r="1"/>
<rect x="180.000000" y="51.000000" width="24.000000" height="24.000000" rx="0.1" ry="0.1" style="stroke:none;fill:#aaaaaa;;filter:url(#filter);"/>
<rect x="179.000000" y="50.000000" width="24.000000" height="24.000000" rx="0" ry="0" style="stroke:none;fill:#4B71A1;"/>
<text x="191.000000" y="64.000000" font-family="Arial" font-size="7" text-anchor="middle" fill="#FFFFFF">*</text>
<circle cx="181.000000" cy="52.000000" r="1"/>
<line x1="176.000000" y1="57.000000" x2="179.000000" y2="58.000000"  transform="rotate(0.000000,179.000000,58.000000)" style="stroke: black; stroke-width:0.25;"/>
<line x1="176.000000" y1="59.000000" x2="179.000000" y2="58.000000"  transform="rotate(0.000000,179.000000,58.000000)" style="stroke: black; stroke-width:0.25;"/>
<line x1="176.000000" y1="65.000000" x2="179.000000" y2="66.000000"  transform="rotate(0.000000,179.000000,66.000000)" style="stroke: black; stroke-width:0.25;"/>
<line x1="176.000000" y1="67.000000" x2="179.000000" y2="66.000000"  transform="rotate(0.000000,179.000000,66.000000)" style="stroke: black; stroke-width:0.25;"/>
<a xlink:href="osc-0x7fde355bcac0.svg">
<rect x="35.000000" y="99.000000" width="129.000000" height="24.000000" rx="0.1" ry="0.1" style="stroke:none;fill:#aaaaaa;;filter:url(#filter);"/>
<rect x="34.000000" y="98.000000" width="129.000000" height="24.000000" rx="0" ry="0" style="stroke:none;fill:#003366;"/>
</a>
<a xlink:href="osc-0x7fde355bcac0.svg">
<text x="98.500000" y="112.000000" font-family="Arial" font-size="7" text-anchor="middle" fill="#FFFFFF">osc(nentry(&quot;[...,0.999f : *))</text>
</a>
<circle cx="36.000000" cy="100.000000" r="1"/>
<a xlink:href="gainSine-0x7fde34533130.svg">
<rect x="80.150000" y="131.000000" width="38.700000" height="24.000000" rx="0.1" ry="0.1" style="stroke:none;fill:#aaaaaa;;filter:url(#filter);"/>
<rect x="79.150000" y="130.000000" width="38.700000" height="24.000000" rx="0" ry="0" style="stroke:none;fill:#003366;"/>
</a>
<a xlink:href="gainSine-0x7fde34533130.svg">
<text x="98.500000" y="144.000000" font-family="Arial" font-size="7" text-anchor="middle" fill="#FFFFFF">gainSine</text>
</a>
<circle cx="81.150000" cy="132.000000" r="1"/>
<rect x="180.000000" y="115.000000" width="24.000000" height="24.000000" rx="0.1" ry="0.1" style="stroke:none;fill:#aaaaaa;;filter:url(#filter);"/>
<rect x="179.000000" y="114.000000" width="24.000000" height="24.000000" rx="0" ry="0" style="stroke:none;fill:#4B71A1;"/>
<text x="191.000000" y="128.000000" font-family="Arial" font-size="7" text-anchor="middle" fill="#FFFFFF">*</text>
<circle cx="181.000000" cy="116.000000" r="1"/>
<line x1="176.000000" y1="121.000000" x2="179.000000" y2="122.000000"  transform="rotate(0.000000,179.000000,122.000000)" style="stroke: black; stroke-width:0.25;"/>
<line x1="176.000000" y1="123.000000" x2="179.000000" y2="122.000000"  transform="rotate(0.000000,179.000000,122.000000)" style="stroke: black; stroke-width:0.25;"/>
<line x1="176.000000" y1="129.000000" x2="179.000000" y2="130.000000"  transform="rotate(0.000000,179.000000,130.000000)" style="stroke: black; stroke-width:0.25;"/>
<line x1="176.000000" y1="131.000000" x2="179.000000" y2="130.000000"  transform="rotate(0.000000,179.000000,130.000000)" style="stroke: black; stroke-width:0.25;"/>
<a xlink:href="triangle-0x7fde35611630.svg">
<rect x="35.000000" y="163.000000" width="129.000000" height="24.000000" rx="0.1" ry="0.1" style="stroke:none;fill:#aaaaaa;;filter:url(#filter);"/>
<rect x="34.000000" y="162.000000" width="129.000000" height="24.000000" rx="0" ry="0" style="stroke:none;fill:#003366;"/>
</a>
<a xlink:href="triangle-0x7fde35611630.svg">
<text x="98.500000" y="176.000000" font-family="Arial" font-size="7" text-anchor="middle" fill="#FFFFFF">triangle(nent...,0.999f : *))</text>
</a>
<circle cx="36.000000" cy="164.000000" r="1"/>
<a xlink:href="gainTriang-0x7fde344b09d0.svg">
<rect x="73.700000" y="195.000000" width="51.600000" height="24.000000" rx="0.1" ry="0.1" style="stroke:none;fill:#aaaaaa;;filter:url(#filter);"/>
<rect x="72.700000" y="194.000000" width="51.600000" height="24.000000" rx="0" ry="0" style="stroke:none;fill:#003366;"/>
</a>
<a xlink:href="gainTriang-0x7fde344b09d0.svg">
<text x="98.500000" y="208.000000" font-family="Arial" font-size="7" text-anchor="middle" fill="#FFFFFF">gainTriang</text>
</a>
<circle cx="74.700000" cy="196.000000" r="1"/>
<rect x="180.000000" y="179.000000" width="24.000000" height="24.000000" rx="0.1" ry="0.1" style="stroke:none;fill:#aaaaaa;;filter:url(#filter);"/>
<rect x="179.000000" y="178.000000" width="24.000000" height="24.000000" rx="0" ry="0" style="stroke:none;fill:#4B71A1;"/>
<text x="191.000000" y="192.000000" font-family="Arial" font-size="7" text-anchor="middle" fill="#FFFFFF">*</text>
<circle cx="181.000000" cy="180.000000" r="1"/>
<line x1="176.000000" y1="185.000000" x2="179.000000" y2="186.000000"  transform="rotate(0.000000,179.000000,186.000000)" style="stroke: black; stroke-width:0.25;"/>
<line x1="176.000000" y1="187.000000" x2="179.000000" y2="186.000000"  transform="rotate(0.000000,179.000000,186.000000)" style="stroke: black; stroke-width:0.25;"/>
<line x1="176.000000" y1="193.000000" x2="179.000000" y2="194.000000"  transform="rotate(0.000000,179.000000,194.000000)" style="stroke: black; stroke-width:0.25;"/>
<line x1="176.000000" y1="195.000000" x2="179.000000" y2="194.000000"  transform="rotate(0.000000,179.000000,194.000000)" style="stroke: black; stroke-width:0.25;"/>
<a xlink:href="sawtooth-0x7fde344af9e0.svg">
<rect x="35.000000" y="227.000000" width="129.000000" height="24.000000" rx="0.1" ry="0.1" style="stroke:none;fill:#aaaaaa;;filter:url(#filter);"/>
<rect x="34.000000" y="226.000000" width="129.000000" height="24.000000" rx="0" ry="0" style="stroke:none;fill:#003366;"/>
</a>
<a xlink:href="sawtooth-0x7fde344af9e0.svg">
<text x="98.500000" y="240.000000" font-family="Arial" font-size="7" text-anchor="middle" fill="#FFFFFF">sawtooth(nent...,0.999f : *))</text>
</a>
<circle cx="36.000000" cy="228.000000" r="1"/>
<a xlink:href="gainSaw-0x7fde3449ce40.svg">
<rect x="80.150000" y="259.000000" width="38.700000" height="24.000000" rx="0.1" ry="0.1" style="stroke:none;fill:#aaaaaa;;filter:url(#filter);"/>
<rect x="79.150000" y="258.000000" width="38.700000" height="24.000000" rx="0" ry="0" style="stroke:none;fill:#003366;"/>
</a>
<a xlink:href="gainSaw-0x7fde3449ce40.svg">
<text x="98.500000" y="272.000000" font-family="Arial" font-size="7" text-anchor="middle" fill="#FFFFFF">gainSaw</text>
</a>
<circle cx="81.150000" cy="260.000000" r="1"/>
<rect x="180.000000" y="243.000000" width="24.000000" height="24.000000" rx="0.1" ry="0.1" style="stroke:none;fill:#aaaaaa;;filter:url(#filter);"/>
<rect x="179.000000" y="242.000000" width="24.000000" height="24.000000" rx="0" ry="0" style="stroke:none;fill:#4B71A1;"/>
<text x="191.000000" y="256.000000" font-family="Arial" font-size="7" text-anchor="middle" fill="#FFFFFF">*</text>
<circle cx="181.000000" cy="244.000000" r="1"/>
<line x1="176.000000" y1="249.000000" x2="179.000000" y2="250.000000"  transform="rotate(0.000000,179.000000,250.000000)" style="stroke: black; stroke-width:0.25;"/>
<line x1="176.000000" y1="251.000000" x2="179.000000" y2="250.000000"  transform="rotate(0.000000,179.000000,250.000000)" style="stroke: black; stroke-width:0.25;"/>
<line x1="176.000000" y1="257.000000" x2="179.000000" y2="258.000000"  transform="rotate(0.000000,179.000000,258.000000)" style="stroke: black; stroke-width:0.25;"/>
<line x1="176.000000" y1="259.000000" x2="179.000000" y2="258.000000"  transform="rotate(0.000000,179.000000,258.000000)" style="stroke: black; stroke-width:0.25;"/>
<a xlink:href="lowpass-0x7fde355c7a20.svg">
<rect x="313.000000" y="89.000000" width="129.000000" height="24.000000" rx="0.1" ry="0.1" style="stroke:none;fill:#aaaaaa;;filter:url(#filter);"/>
<rect x="312.000000" y="88.000000" width="129.000000" height="24.000000" rx="0" ry="0" style="stroke:none;fill:#003366;"/>
</a>
<a xlink:href="lowpass-0x7fde355c7a20.svg">
<text x="376.500000" y="102.000000" font-family="Arial" font-size="7" text-anchor="middle" fill="#FFFFFF">lowpass(2)(vs...,0.999f : *))</text>
</a>
<circle cx="314.000000" cy="90.000000" r="1"/>
<line x1="309.000000" y1="99.000000" x2="312.000000" y2="100.000000"  transform="rotate(0.000000,312.000000,100.000000)" style="stroke: black; stroke-width:0.25;"/>
<line x1="309.000000" y1="101.000000" x2="312.000000" y2="100.000000"  transform="rotate(0.000000,312.000000,100.000000)" style="stroke: black; stroke-width:0.25;"/>
<a xlink:href="gain-0x7fde34428150.svg">
<rect x="364.600000" y="121.000000" width="25.800000" height="24.000000" rx="0.1" ry="0.1" style="stroke:none;fill:#aaaaaa;;filter:url(#filter);"/>
<rect x="363.600000" y="120.000000" width="25.800000" height="24.000000" rx="0" ry="0" style="stroke:none;fill:#003366;"/>
</a>
<a xlink:href="gain-0x7fde34428150.svg">
<text x="376.500000" y="134.000000" font-family="Arial" font-size="7" text-anchor="middle" fill="#FFFFFF">gain</text>
</a>
<circle cx="365.600000" cy="122.000000" r="1"/>
<rect x="458.000000" y="105.000000" width="24.000000" height="24.000000" rx="0.1" ry="0.1" style="stroke:none;fill:#aaaaaa;;filter:url(#filter);"/>
<rect x="457.000000" y="104.000000" width="24.000000" height="24.000000" rx="0" ry="0" style="stroke:none;fill:#4B71A1;"/>
<text x="469.000000" y="118.000000" font-family="Arial" font-size="7" text-anchor="middle" fill="#FFFFFF">*</text>
<circle cx="459.000000" cy="106.000000" r="1"/>
<line x1="454.000000" y1="111.000000" x2="457.000000" y2="112.000000"  transform="rotate(0.000000,457.000000,112.000000)" style="stroke: black; stroke-width:0.25;"/>
<line x1="454.000000" y1="113.000000" x2="457.000000" y2="112.000000"  transform="rotate(0.000000,457.000000,112.000000)" style="stroke: black; stroke-width:0.25;"/>
<line x1="454.000000" y1="119.000000" x2="457.000000" y2="120.000000"  transform="rotate(0.000000,457.000000,120.000000)" style="stroke: black; stroke-width:0.25;"/>
<line x1="454.000000" y1="121.000000" x2="457.000000" y2="120.000000"  transform="rotate(0.000000,457.000000,120.000000)" style="stroke: black; stroke-width:0.25;"/>
<rect x="385.500000" y="163.000000" width="24.000000" height="24.000000" rx="0.1" ry="0.1" style="stroke:none;fill:#aaaaaa;;filter:url(#filter);"/>
<rect x="384.500000" y="162.000000" width="24.000000" height="24.000000" rx="0" ry="0" style="stroke:none;fill:#f44800;"/>
<text x="396.500000" y="176.000000" font-family="Arial" font-size="7" text-anchor="middle" fill="#FFFFFF">1</text>
<circle cx="386.500000" cy="164.000000" r="1"/>
<line x1="375.500000" y1="153.000000" x2="375.500000" y2="195.000000"  style="stroke: black; stroke-linecap:round; stroke-width:0.25; stroke-dasharray:3,3;"/>
<line x1="375.500000" y1="195.000000" x2="417.500000" y2="195.000000"  style="stroke: black; stroke-linecap:round; stroke-width:0.25; stroke-dasharray:3,3;"/>
<line x1="417.500000" y1="195.000000" x2="417.500000" y2="153.000000"  style="stroke: black; stroke-linecap:round; stroke-width:0.25; stroke-dasharray:3,3;"/>
<line x1="375.500000" y1="153.000000" x2="380.500000" y2="153.000000"  style="stroke: black; stroke-linecap:round; stroke-width:0.25; stroke-dasharray:3,3;"/>
<line x1="390.175000" y1="153.000000" x2="417.500000" y2="153.000000"  style="stroke: black; stroke-linecap:round; stroke-width:0.25; stroke-dasharray:3,3;"/>
<text x="380.500000" y="155.000000" font-family="Arial" font-size="7">S</text>
<rect x="498.000000" y="131.000000" width="24.000000" height="24.000000" rx="0.1" ry="0.1" style="stroke:none;fill:#aaaaaa;;filter:url(#filter);"/>
<rect x="497.000000" y="130.000000" width="24.000000" height="24.000000" rx="0" ry="0" style="stroke:none;fill:#4B71A1;"/>
<text x="509.000000" y="144.000000" font-family="Arial" font-size="7" text-anchor="middle" fill="#FFFFFF">*</text>
<circle cx="499.000000" cy="132.000000" r="1"/>
<line x1="494.000000" y1="137.000000" x2="497.000000" y2="138.000000"  transform="rotate(0.000000,497.000000,138.000000)" style="stroke: black; stroke-width:0.25;"/>
<line x1="494.000000" y1="139.000000" x2="497.000000" y2="138.000000"  transform="rotate(0.000000,497.000000,138.000000)" style="stroke: black; stroke-width:0.25;"/>
<line x1="494.000000" y1="145.000000" x2="497.000000" y2="146.000000"  transform="rotate(0.000000,497.000000,146.000000)" style="stroke: black; stroke-width:0.25;"/>
<line x1="494.000000" y1="147.000000" x2="497.000000" y2="146.000000"  transform="rotate(0.000000,497.000000,146.000000)" style="stroke: black; stroke-width:0.25;"/>
<rect x="405.500000" y="205.000000" width="24.000000" height="24.000000" rx="0.1" ry="0.1" style="stroke:none;fill:#aaaaaa;;filter:url(#filter);"/>
<rect x="404.500000" y="204.000000" width="24.000000" height="24.000000" rx="0" ry="0" style="stroke:none;fill:#f44800;"/>
<text x="416.500000" y="218.000000" font-family="Arial" font-size="7" text-anchor="middle" fill="#FFFFFF">16</text>
<circle cx="406.500000" cy="206.000000" r="1"/>
<rect x="538.000000" y="147.000000" width="24.000000" height="24.000000" rx="0.1" ry="0.1" style="stroke:none;fill:#aaaaaa;;filter:url(#filter);"/>
<rect x="537.000000" y="146.000000" width="24.000000" height="24.000000" rx="0" ry="0" style="stroke:none;fill:#4B71A1;"/>
<text x="549.000000" y="160.000000" font-family="Arial" font-size="7" text-anchor="middle" fill="#FFFFFF">/</text>
<circle cx="539.000000" cy="148.000000" r="1"/>
<line x1="534.000000" y1="153.000000" x2="537.000000" y2="154.000000"  transform="rotate(0.000000,537.000000,154.000000)" style="stroke: black; stroke-width:0.25;"/>
<line x1="534.000000" y1="155.000000" x2="537.000000" y2="154.000000"  transform="rotate(0.000000,537.000000,154.000000)" style="stroke: black; stroke-width:0.25;"/>
<line x1="534.000000" y1="161.000000" x2="537.000000" y2="162.000000"  transform="rotate(0.000000,537.000000,162.000000)" style="stroke: black; stroke-width:0.25;"/>
<line x1="534.000000" y1="163.000000" x2="537.000000" y2="162.000000"  transform="rotate(0.000000,537.000000,162.000000)" style="stroke: black; stroke-width:0.25;"/>
<rect x="266.500000" y="301.000000" width="24.000000" height="24.000000" rx="0.1" ry="0.1" style="stroke:none;fill:#aaaaaa;;filter:url(#filter);"/>
<rect x="265.500000" y="300.000000" width="24.000000" height="24.000000" rx="0" ry="0" style="stroke:none;fill:#f44800;"/>
<text x="277.500000" y="314.000000" font-family="Arial" font-size="7" text-anchor="middle" fill="#FFFFFF">1</text>
<circle cx="267.500000" cy="302.000000" r="1"/>
<line x1="256.500000" y1="291.000000" x2="256.500000" y2="333.000000"  style="stroke: black; stroke-linecap:round; stroke-width:0.25; stroke-dasharray:3,3;"/>
<line x1="256.500000" y1="333.000000" x2="298.500000" y2="333.000000"  style="stroke: black; stroke-linecap:round; stroke-width:0.25; stroke-dasharray:3,3;"/>
<line x1="298.500000" y1="333.000000" x2="298.500000" y2="291.000000"  style="stroke: black; stroke-linecap:round; stroke-width:0.25; stroke-dasharray:3,3;"/>
<line x1="256.500000" y1="291.000000" x2="261.500000" y2="291.000000"  style="stroke: black; stroke-linecap:round; stroke-width:0.25; stroke-dasharray:3,3;"/>
<line x1="271.175000" y1="291.000000" x2="298.500000" y2="291.000000"  style="stroke: black; stroke-linecap:round; stroke-width:0.25; stroke-dasharray:3,3;"/>
<text x="261.500000" y="293.000000" font-family="Arial" font-size="7">S</text>
<rect x="246.250000" y="343.000000" width="64.500000" height="24.000000" rx="0.1" ry="0.1" style="stroke:none;fill:#aaaaaa;;filter:url(#filter);"/>
<rect x="245.250000" y="342.000000" width="64.500000" height="24.000000" rx="0" ry="0" style="stroke:none;fill:#477881;"/>
<text x="277.500000" y="356.000000" font-family="Arial" font-size="7" text-anchor="middle" fill="#FFFFFF">checkbox(mute)</text>
<circle cx="247.250000" cy="344.000000" r="1"/>
<rect x="326.750000" y="317.000000" width="24.000000" height="24.000000" rx="0.1" ry="0.1" style="stroke:none;fill:#aaaaaa;;filter:url(#filter);"/>
<rect x="325.750000" y="316.000000" width="24.000000" height="24.000000" rx="0" ry="0" style="stroke:none;fill:#4B71A1;"/>
<text x="337.750000" y="330.000000" font-family="Arial" font-size="7" text-anchor="middle" fill="#FFFFFF">-</text>
<circle cx="327.750000" cy="318.000000" r="1"/>
<line x1="322.750000" y1="323.000000" x2="325.750000" y2="324.000000"  transform="rotate(0.000000,325.750000,324.000000)" style="stroke: black; stroke-width:0.25;"/>
<line x1="322.750000" y1="325.000000" x2="325.750000" y2="324.000000"  transform="rotate(0.000000,325.750000,324.000000)" style="stroke: black; stroke-width:0.25;"/>
<line x1="322.750000" y1="331.000000" x2="325.750000" y2="332.000000"  transform="rotate(0.000000,325.750000,332.000000)" style="stroke: black; stroke-width:0.25;"/>
<line x1="322.750000" y1="333.000000" x2="325.750000" y2="332.000000"  transform="rotate(0.000000,325.750000,332.000000)" style="stroke: black; stroke-width:0.25;"/>
<rect x="578.000000" y="189.000000" width="24.000000" height="24.000000" rx="0.1" ry="0.1" style="stroke:none;fill:#aaaaaa;;filter:url(#filter);"/>
<rect x="577.000000" y="188.000000" width="24.000000" height="24.000000" rx="0" ry="0" style="stroke:none;fill:#4B71A1;"/>
<text x="589.000000" y="202.000000" font-family="Arial" font-size="7" text-anchor="middle" fill="#FFFFFF">*</text>
<circle cx="579.000000" cy="190.000000" r="1"/>
<line x1="574.000000" y1="195.000000" x2="577.000000" y2="196.000000"  transform="rotate(0.000000,577.000000,196.000000)" style="stroke: black; stroke-width:0.25;"/>
<line x1="574.000000" y1="197.000000" x2="577.000000" y2="196.000000"  transform="rotate(0.000000,577.000000,196.000000)" style="stroke: black; stroke-width:0.25;"/>
<line x1="574.000000" y1="203.000000" x2="577.000000" y2="204.000000"  transform="rotate(0.000000,577.000000,204.000000)" style="stroke: black; stroke-width:0.25;"/>
<line x1="574.000000" y1="205.000000" x2="577.000000" y2="204.000000"  transform="rotate(0.000000,577.000000,204.000000)" style="stroke: black; stroke-width:0.25;"/>
<rect x="738.000000" y="157.000000" width="24.000000" height="24.000000" rx="0.1" ry="0.1" style="stroke:none;fill:#aaaaaa;;filter:url(#filter);"/>
<rect x="737.000000" y="156.000000" width="24.000000" height="24.000000" rx="0" ry="0" style="stroke:none;fill:#f44800;"/>
<text x="749.000000" y="170.000000" font-family="Arial" font-size="7" text-anchor="middle" fill="#FFFFFF">1</text>
<circle cx="739.000000" cy="158.000000" r="1"/>
<line x1="728.000000" y1="147.000000" x2="728.000000" y2="189.000000"  style="stroke: black; stroke-linecap:round; stroke-width:0.25; stroke-dasharray:3,3;"/>
<line x1="728.000000" y1="189.000000" x2="770.000000" y2="189.000000"  style="stroke: black; stroke-linecap:round; stroke-width:0.25; stroke-dasharray:3,3;"/>
<line x1="770.000000" y1="189.000000" x2="770.000000" y2="147.000000"  style="stroke: black; stroke-linecap:round; stroke-width:0.25; stroke-dasharray:3,3;"/>
<line x1="728.000000" y1="147.000000" x2="733.000000" y2="147.000000"  style="stroke: black; stroke-linecap:round; stroke-width:0.25; stroke-dasharray:3,3;"/>
<line x1="742.675000" y1="147.000000" x2="770.000000" y2="147.000000"  style="stroke: black; stroke-linecap:round; stroke-width:0.25; stroke-dasharray:3,3;"/>
<text x="733.000000" y="149.000000" font-family="Arial" font-size="7">S</text>
<a xlink:href="pan-0x7fde34425580.svg">
<rect x="738.000000" y="199.000000" width="24.000000" height="24.000000" rx="0.1" ry="0.1" style="stroke:none;fill:#aaaaaa;;filter:url(#filter);"/>
<rect x="737.000000" y="198.000000" width="24.000000" height="24.000000" rx="0" ry="0" style="stroke:none;fill:#003366;"/>
</a>
<a xlink:href="pan-0x7fde34425580.svg">
<text x="749.000000" y="212.000000" font-family="Arial" font-size="7" text-anchor="middle" fill="#FFFFFF">pan</text>
</a>
<circle cx="739.000000" cy="200.000000" r="1"/>
<rect x="788.000000" y="173.000000" width="24.000000" height="24.000000" rx="0.1" ry="0.1" style="stroke:none;fill:#aaaaaa;;filter:url(#filter);"/>
<rect x="787.000000" y="172.000000" width="24.000000" height="24.000000" rx="0" ry="0" style="stroke:none;fill:#4B71A1;"/>
<text x="799.000000" y="186.000000" font-family="Arial" font-size="7" text-anchor="middle" fill="#FFFFFF">-</text>
<circle cx="789.000000" cy="174.000000" r="1"/>
<line x1="784.000000" y1="179.000000" x2="787.000000" y2="180.000000"  transform="rotate(0.000000,787.000000,180.000000)" style="stroke: black; stroke-width:0.25;"/>
<line x1="784.000000" y1="181.000000" x2="787.000000" y2="180.000000"  transform="rotate(0.000000,787.000000,180.000000)" style="stroke: black; stroke-width:0.25;"/>
<line x1="784.000000" y1="187.000000" x2="787.000000" y2="188.000000"  transform="rotate(0.000000,787.000000,188.000000)" style="stroke: black; stroke-width:0.25;"/>
<line x1="784.000000" y1="189.000000" x2="787.000000" y2="188.000000"  transform="rotate(0.000000,787.000000,188.000000)" style="stroke: black; stroke-width:0.25;"/>
<rect x="828.000000" y="169.000000" width="24.000000" height="24.000000" rx="0.1" ry="0.1" style="stroke:none;fill:#aaaaaa;;filter:url(#filter);"/>
<rect x="827.000000" y="168.000000" width="24.000000" height="24.000000" rx="0" ry="0" style="stroke:none;fill:#4B71A1;"/>
<text x="839.000000" y="182.000000" font-family="Arial" font-size="7" text-anchor="middle" fill="#FFFFFF">*</text>
<circle cx="829.000000" cy="170.000000" r="1"/>
<line x1="824.000000" y1="175.000000" x2="827.000000" y2="176.000000"  transform="rotate(0.000000,827.000000,176.000000)" style="stroke: black; stroke-width:0.25;"/>
<line x1="824.000000" y1="177.000000" x2="827.000000" y2="176.000000"  transform="rotate(0.000000,827.000000,176.000000)" style="stroke: black; stroke-width:0.25;"/>
<line x1="824.000000" y1="183.000000" x2="827.000000" y2="184.000000"  transform="rotate(0.000000,827.000000,184.000000)" style="stroke: black; stroke-width:0.25;"/>
<line x1="824.000000" y1="185.000000" x2="827.000000" y2="184.000000"  transform="rotate(0.000000,827.000000,184.000000)" style="stroke: black; stroke-width:0.25;"/>
<a xlink:href="pan-0x7fde34425580.svg">
<rect x="758.000000" y="239.000000" width="24.000000" height="24.000000" rx="0.1" ry="0.1" style="stroke:none;fill:#aaaaaa;;filter:url(#filter);"/>
<rect x="757.000000" y="238.000000" width="24.000000" height="24.000000" rx="0" ry="0" style="stroke:none;fill:#003366;"/>
</a>
<a xlink:href="pan-0x7fde34425580.svg">
<text x="769.000000" y="252.000000" font-family="Arial" font-size="7" text-anchor="middle" fill="#FFFFFF">pan</text>
</a>
<circle cx="759.000000" cy="240.000000" r="1"/>
<rect x="798.000000" y="235.000000" width="24.000000" height="24.000000" rx="0.1" ry="0.1" style="stroke:none;fill:#aaaaaa;;filter:url(#filter);"/>
<rect x="797.000000" y="234.000000" width="24.000000" height="24.000000" rx="0" ry="0" style="stroke:none;fill:#4B71A1;"/>
<text x="809.000000" y="248.000000" font-family="Arial" font-size="7" text-anchor="middle" fill="#FFFFFF">*</text>
<circle cx="799.000000" cy="236.000000" r="1"/>
<line x1="794.000000" y1="241.000000" x2="797.000000" y2="242.000000"  transform="rotate(0.000000,797.000000,242.000000)" style="stroke: black; stroke-width:0.25;"/>
<line x1="794.000000" y1="243.000000" x2="797.000000" y2="242.000000"  transform="rotate(0.000000,797.000000,242.000000)" style="stroke: black; stroke-width:0.25;"/>
<line x1="794.000000" y1="249.000000" x2="797.000000" y2="250.000000"  transform="rotate(0.000000,797.000000,250.000000)" style="stroke: black; stroke-width:0.25;"/>
<line x1="794.000000" y1="251.000000" x2="797.000000" y2="250.000000"  transform="rotate(0.000000,797.000000,250.000000)" style="stroke: black; stroke-width:0.25;"/>
<line x1="25.000000" y1="25.000000" x2="25.000000" y2="375.000000"  style="stroke: black; stroke-linecap:round; stroke-width:0.25; stroke-dasharray:3,3;"/>
<line x1="25.000000" y1="375.000000" x2="860.000000" y2="375.000000"  style="stroke: black; stroke-linecap:round; stroke-width:0.25; stroke-dasharray:3,3;"/>
<line x1="860.000000" y1="375.000000" x2="860.000000" y2="25.000000"  style="stroke: black; stroke-linecap:round; stroke-width:0.25; stroke-dasharray:3,3;"/>
<line x1="25.000000" y1="25.000000" x2="30.000000" y2="25.000000"  style="stroke: black; stroke-linecap:round; stroke-width:0.25; stroke-dasharray:3,3;"/>
<line x1="71.925000" y1="25.000000" x2="860.000000" y2="25.000000"  style="stroke: black; stroke-linecap:round; stroke-width:0.25; stroke-dasharray:3,3;"/>
<text x="30.000000" y="27.000000" font-family="Arial" font-size="7">vgroup(BL5)</text>
<line x1="15.000000" y1="15.000000" x2="15.000000" y2="385.000000"  style="stroke: black; stroke-linecap:round; stroke-width:0.25; stroke-dasharray:3,3;"/>
<line x1="15.000000" y1="385.000000" x2="886.000000" y2="385.000000"  style="stroke: black; stroke-linecap:round; stroke-width:0.25; stroke-dasharray:3,3;"/>
<line x1="886.000000" y1="385.000000" x2="886.000000" y2="15.000000"  style="stroke: black; stroke-linecap:round; stroke-width:0.25; stroke-dasharray:3,3;"/>
<line x1="15.000000" y1="15.000000" x2="20.000000" y2="15.000000"  style="stroke: black; stroke-linecap:round; stroke-width:0.25; stroke-dasharray:3,3;"/>
<line x1="58.700000" y1="15.000000" x2="886.000000" y2="15.000000"  style="stroke: black; stroke-linecap:round; stroke-width:0.25; stroke-dasharray:3,3;"/>
<text x="20.000000" y="17.000000" font-family="Arial" font-size="7">partial(5)</text>
<line x1="888.000000" y1="195.000000" x2="891.000000" y2="196.000000"  transform="rotate(0.000000,891.000000,196.000000)" style="stroke: black; stroke-width:0.25;"/>
<line x1="888.000000" y1="197.000000" x2="891.000000" y2="196.000000"  transform="rotate(0.000000,891.000000,196.000000)" style="stroke: black; stroke-width:0.25;"/>
<line x1="888.000000" y1="203.000000" x2="891.000000" y2="204.000000"  transform="rotate(0.000000,891.000000,204.000000)" style="stroke: black; stroke-width:0.25;"/>
<line x1="888.000000" y1="205.000000" x2="891.000000" y2="204.000000"  transform="rotate(0.000000,891.000000,204.000000)" style="stroke: black; stroke-width:0.25;"/>
<line x1="117.850000" y1="78.000000" x2="121.850000" y2="78.000000"  style="stroke:black; stroke-linecap:round; stroke-width:0.25;"/>
<line x1="117.850000" y1="142.000000" x2="121.850000" y2="142.000000"  style="stroke:black; stroke-linecap:round; stroke-width:0.25;"/>
<line x1="117.850000" y1="270.000000" x2="121.850000" y2="270.000000"  style="stroke:black; stroke-linecap:round; stroke-width:0.25;"/>
<line x1="121.850000" y1="78.000000" x2="167.000000" y2="78.000000"  style="stroke:black; stroke-linecap:round; stroke-width:0.25;"/>
<line x1="121.850000" y1="142.000000" x2="167.000000" y2="142.000000"  style="stroke:black; stroke-linecap:round; stroke-width:0.25;"/>
<line x1="121.850000" y1="270.000000" x2="167.000000" y2="270.000000"  style="stroke:black; stroke-linecap:round; stroke-width:0.25;"/>
<line x1="124.300000" y1="206.000000" x2="128.300000" y2="206.000000"  style="stroke:black; stroke-linecap:round; stroke-width:0.25;"/>
<line x1="128.300000" y1="206.000000" x2="167.000000" y2="206.000000"  style="stroke:black; stroke-linecap:round; stroke-width:0.25;"/>
<line x1="163.000000" y1="46.000000" x2="167.000000" y2="46.000000"  style="stroke:black; stroke-linecap:round; stroke-width:0.25;"/>
<line x1="163.000000" y1="110.000000" x2="167.000000" y2="110.000000"  style="stroke:black; stroke-linecap:round; stroke-width:0.25;"/>
<line x1="163.000000" y1="174.000000" x2="167.000000" y2="174.000000"  style="stroke:black; stroke-linecap:round; stroke-width:0.25;"/>
<line x1="163.000000" y1="238.000000" x2="167.000000" y2="238.000000"  style="stroke:black; stroke-linecap:round; stroke-width:0.25;"/>
<line x1="167.000000" y1="46.000000" x2="175.000000" y2="46.000000"  style="stroke:black; stroke-linecap:round; stroke-width:0.25;"/>
<line x1="167.000000" y1="66.000000" x2="175.000000" y2="66.000000"  style="stroke:black; stroke-linecap:round; stroke-width:0.25;"/>
<line x1="167.000000" y1="78.000000" x2="167.000000" y2="66.000000"  style="stroke:black; stroke-linecap:round; stroke-width:0.25;"/>
<line x1="167.000000" y1="78.000000" x2="167.000000" y2="78.000000"  style="stroke:black; stroke-linecap:round; stroke-width:0.25;"/>
<line x1="167.000000" y1="110.000000" x2="175.000000" y2="110.000000"  style="stroke:black; stroke-linecap:round; stroke-width:0.25;"/>
<line x1="167.000000" y1="130.000000" x2="175.000000" y2="130.000000"  style="stroke:black; stroke-linecap:round; stroke-width:0.25;"/>
<line x1="167.000000" y1="142.000000" x2="167.000000" y2="130.000000"  style="stroke:black; stroke-linecap:round; stroke-width:0.25;"/>
<line x1="167.000000" y1="142.000000" x2="167.000000" y2="142.000000"  style="stroke:black; stroke-linecap:round; stroke-width:0.25;"/>
<line x1="167.000000" y1="174.000000" x2="175.000000" y2="174.000000"  style="stroke:black; stroke-linecap:round; stroke-width:0.25;"/>
<line x1="167.000000" y1="194.000000" x2="175.000000" y2="194.000000"  style="stroke:black; stroke-linecap:round; stroke-width:0.25;"/>
<line x1="167.000000" y1="206.000000" x2="167.000000" y2="194.000000"  style="stroke:black; stroke-linecap:round; stroke-width:0.25;"/>
<line x1="167.000000" y1="206.000000" x2="167.000000" y2="206.000000"  style="stroke:black; stroke-linecap:round; stroke-width:0.25;"/>
<line x1="167.000000" y1="238.000000" x2="175.000000" y2="238.000000"  style="stroke:black; stroke-linecap:round; stroke-width:0.25;"/>
<line x1="167.000000" y1="258.000000" x2="175.000000" y2="258.000000"  style="stroke:black; stroke-linecap:round; stroke-width:0.25;"/>
<line x1="167.000000" y1="270.000000" x2="167.000000" y2="258.000000"  style="stroke:black; stroke-linecap:round; stroke-width:0.25;"/>
<line x1="167.000000" y1="270.000000" x2="167.000000" y2="270.000000"  style="stroke:black; stroke-linecap:round; stroke-width:0.25;"/>
<line x1="175.000000" y1="46.000000" x2="175.000000" y2="58.000000"  style="stroke:black; stroke-linecap:round; stroke-width:0.25;"/>
<line x1="175.000000" y1="58.000000" x2="175.000000" y2="58.000000"  style="stroke:black; stroke-linecap:round; stroke-width:0.25;"/>
<line x1="175.000000" y1="58.000000" x2="179.000000" y2="58.000000"  style="stroke:black; stroke-linecap:round; stroke-width:0.25;"/>
<line x1="175.000000" y1="66.000000" x2="179.000000" y2="66.000000"  style="stroke:black; stroke-linecap:round; stroke-width:0.25;"/>
<line x1="175.000000" y1="110.000000" x2="175.000000" y2="122.000000"  style="stroke:black; stroke-linecap:round; stroke-width:0.25;"/>
<line x1="175.000000" y1="122.000000" x2="175.000000" y2="122.000000"  style="stroke:black; stroke-linecap:round; stroke-width:0.25;"/>
<line x1="175.000000" y1="122.000000" x2="179.000000" y2="122.000000"  style="stroke:black; stroke-linecap:round; stroke-width:0.25;"/>
<line x1="175.000000" y1="130.000000" x2="179.000000" y2="130.000000"  style="stroke:black; stroke-linecap:round; stroke-width:0.25;"/>
<line x1="175.000000" y1="174.000000" x2="175.000000" y2="186.000000"  style="stroke:black; stroke-linecap:round; stroke-width:0.25;"/>
<line x1="175.000000" y1="186.000000" x2="175.000000" y2="186.000000"  style="stroke:black; stroke-linecap:round; stroke-width:0.25;"/>
<line x1="175.000000" y1="186.000000" x2="179.000000" y2="186.000000"  style="stroke:black; stroke-linecap:round; stroke-width:0.25;"/>
<line x1="175.000000" y1="194.000000" x2="179.000000" y2="194.000000"  style="stroke:black; stroke-linecap:round; stroke-width:0.25;"/>
<line x1="175.000000" y1="238.000000" x2="175.000000" y2="250.000000"  style="stroke:black; stroke-linecap:round; stroke-width:0.25;"/>
<line x1="175.000000" y1="250.000000" x2="175.000000" y2="250.000000"  style="stroke:black; stroke-linecap:round; stroke-width:0.25;"/>
<line x1="175.000000" y1="250.000000" x2="179.000000" y2="250.000000"  style="stroke:black; stroke-linecap:round; stroke-width:0.25;"/>
<line x1="175.000000" y1="258.000000" x2="179.000000" y2="258.000000"  style="stroke:black; stroke-linecap:round; stroke-width:0.25;"/>
<line x1="203.000000" y1="62.000000" x2="207.000000" y2="62.000000"  style="stroke:black; stroke-linecap:round; stroke-width:0.25;"/>
<line x1="203.000000" y1="126.000000" x2="207.000000" y2="126.000000"  style="stroke:black; stroke-linecap:round; stroke-width:0.25;"/>
<line x1="203.000000" y1="190.000000" x2="207.000000" y2="190.000000"  style="stroke:black; stroke-linecap:round; stroke-width:0.25;"/>
<line x1="203.000000" y1="254.000000" x2="207.000000" y2="254.000000"  style="stroke:black; stroke-linecap:round; stroke-width:0.25;"/>
<line x1="207.000000" y1="62.000000" x2="308.000000" y2="100.000000"  style="stroke:black; stroke-linecap:round; stroke-width:0.25;"/>
<line x1="207.000000" y1="126.000000" x2="308.000000" y2="100.000000"  style="stroke:black; stroke-linecap:round; stroke-width:0.25;"/>
<line x1="207.000000" y1="190.000000" x2="308.000000" y2="100.000000"  style="stroke:black; stroke-linecap:round; stroke-width:0.25;"/>
<line x1="207.000000" y1="254.000000" x2="308.000000" y2="100.000000"  style="stroke:black; stroke-linecap:round; stroke-width:0.25;"/>
<line x1="289.500000" y1="312.000000" x2="293.500000" y2="312.000000"  style="stroke:black; stroke-linecap:round; stroke-width:0.25;"/>
<line x1="293.500000" y1="312.000000" x2="303.500000" y2="312.000000"  style="stroke:black; stroke-linecap:round; stroke-width:0.25;"/>
<line x1="303.500000" y1="312.000000" x2="313.750000" y2="312.000000"  style="stroke:black; stroke-linecap:round; stroke-width:0.25;"/>
<line x1="308.000000" y1="100.000000" x2="312.000000" y2="100.000000"  style="stroke:black; stroke-linecap:round; stroke-width:0.25;"/>
<line x1="309.750000" y1="354.000000" x2="313.750000" y2="354.000000"  style="stroke:black; stroke-linecap:round; stroke-width:0.25;"/>
<line x1="313.750000" y1="312.000000" x2="321.750000" y2="312.000000"  style="stroke:black; stroke-linecap:round; stroke-width:0.25;"/>
<line x1="313.750000" y1="332.000000" x2="321.750000" y2="332.000000"  style="stroke:black; stroke-linecap:round; stroke-width:0.25;"/>
<line x1="313.750000" y1="354.000000" x2="313.750000" y2="332.000000"  style="stroke:black; stroke-linecap:round; stroke-width:0.25;"/>
<line x1="313.750000" y1="354.000000" x2="313.750000" y2="354.000000"  style="stroke:black; stroke-linecap:round; stroke-width:0.25;"/>
<line x1="321.750000" y1="312.000000" x2="321.750000" y2="324.000000"  style="stroke:black; stroke-linecap:round; stroke-width:0.25;"/>
<line x1="321.750000" y1="324.000000" x2="321.750000" y2="324.000000"  style="stroke:black; stroke-linecap:round; stroke-width:0.25;"/>
<line x1="321.750000" y1="324.000000" x2="325.750000" y2="324.000000"  style="stroke:black; stroke-linecap:round; stroke-width:0.25;"/>
<line x1="321.750000" y1="332.000000" x2="325.750000" y2="332.000000"  style="stroke:black; stroke-linecap:round; stroke-width:0.25;"/>
<line x1="349.750000" y1="328.000000" x2="353.750000" y2="328.000000"  style="stroke:black; stroke-linecap:round; stroke-width:0.25;"/>
<line x1="353.750000" y1="328.000000" x2="565.000000" y2="328.000000"  style="stroke:black; stroke-linecap:round; stroke-width:0.25;"/>
<line x1="389.400000" y1="132.000000" x2="393.400000" y2="132.000000"  style="stroke:black; stroke-linecap:round; stroke-width:0.25;"/>
<line x1="393.400000" y1="132.000000" x2="445.000000" y2="132.000000"  style="stroke:black; stroke-linecap:round; stroke-width:0.25;"/>
<line x1="408.500000" y1="174.000000" x2="412.500000" y2="174.000000"  style="stroke:black; stroke-linecap:round; stroke-width:0.25;"/>
<line x1="412.500000" y1="174.000000" x2="422.500000" y2="174.000000"  style="stroke:black; stroke-linecap:round; stroke-width:0.25;"/>
<line x1="422.500000" y1="174.000000" x2="485.000000" y2="174.000000"  style="stroke:black; stroke-linecap:round; stroke-width:0.25;"/>
<line x1="428.500000" y1="216.000000" x2="432.500000" y2="216.000000"  style="stroke:black; stroke-linecap:round; stroke-width:0.25;"/>
<line x1="432.500000" y1="216.000000" x2="525.000000" y2="216.000000"  style="stroke:black; stroke-linecap:round; stroke-width:0.25;"/>
<line x1="441.000000" y1="100.000000" x2="445.000000" y2="100.000000"  style="stroke:black; stroke-linecap:round; stroke-width:0.25;"/>
<line x1="445.000000" y1="100.000000" x2="453.000000" y2="100.000000"  style="stroke:black; stroke-linecap:round; stroke-width:0.25;"/>
<line x1="445.000000" y1="120.000000" x2="453.000000" y2="120.000000"  style="stroke:black; stroke-linecap:round; stroke-width:0.25;"/>
<line x1="445.000000" y1="132.000000" x2="445.000000" y2="120.000000"  style="stroke:black; stroke-linecap:round; stroke-width:0.25;"/>
<line x1="445.000000" y1="132.000000" x2="445.000000" y2="132.000000"  style="stroke:black; stroke-linecap:round; stroke-width:0.25;"/>
<line x1="453.000000" y1="100.000000" x2="453.000000" y2="112.000000"  style="stroke:black; stroke-linecap:round; stroke-width:0.25;"/>
<line x1="453.000000" y1="112.000000" x2="453.000000" y2="112.000000"  style="stroke:black; stroke-linecap:round; stroke-width:0.25;"/>
<line x1="453.000000" y1="112.000000" x2="457.000000" y2="112.000000"  style="stroke:black; stroke-linecap:round; stroke-width:0.25;"/>
<line x1="453.000000" y1="120.000000" x2="457.000000" y2="120.000000"  style="stroke:black; stroke-linecap:round; stroke-width:0.25;"/>
<line x1="481.000000" y1="116.000000" x2="485.000000" y2="116.000000"  style="stroke:black; stroke-linecap:round; stroke-width:0.25;"/>
<line x1="485.000000" y1="116.000000" x2="493.000000" y2="116.000000"  style="stroke:black; stroke-linecap:round; stroke-width:0.25;"/>
<line x1="485.000000" y1="146.000000" x2="493.000000" y2="146.000000"  style="stroke:black; stroke-linecap:round; stroke-width:0.25;"/>
<line x1="485.000000" y1="174.000000" x2="485.000000" y2="146.000000"  style="stroke:black; stroke-linecap:round; stroke-width:0.25;"/>
<line x1="485.000000" y1="174.000000" x2="485.000000" y2="174.000000"  style="stroke:black; stroke-linecap:round; stroke-width:0.25;"/>
<line x1="493.000000" y1="116.000000" x2="493.000000" y2="138.000000"  style="stroke:black; stroke-linecap:round; stroke-width:0.25;"/>
<line x1="493.000000" y1="138.000000" x2="493.000000" y2="138.000000"  style="stroke:black; stroke-linecap:round; stroke-width:0.25;"/>
<line x1="493.000000" y1="138.000000" x2="497.000000" y2="138.000000"  style="stroke:black; stroke-linecap:round; stroke-width:0.25;"/>
<line x1="493.000000" y1="146.000000" x2="497.000000" y2="146.000000"  style="stroke:black; stroke-linecap:round; stroke-width:0.25;"/>
<line x1="521.000000" y1="142.000000" x2="525.000000" y2="142.000000"  style="stroke:black; stroke-linecap:round; stroke-width:0.25;"/>
<line x1="525.000000" y1="142.000000" x2="533.000000" y2="142.000000"  style="stroke:black; stroke-linecap:round; stroke-width:0.25;"/>
<line x1="525.000000" y1="162.000000" x2="533.000000" y2="162.000000"  style="stroke:black; stroke-linecap:round; stroke-width:0.25;"/>
<line x1="525.000000" y1="216.000000" x2="525.000000" y2="162.000000"  style="stroke:black; stroke-linecap:round; stroke-width:0.25;"/>
<line x1="525.000000" y1="216.000000" x2="525.000000" y2="216.000000"  style="stroke:black; stroke-linecap:round; stroke-width:0.25;"/>
<line x1="533.000000" y1="142.000000" x2="533.000000" y2="154.000000"  style="stroke:black; stroke-linecap:round; stroke-width:0.25;"/>
<line x1="533.000000" y1="154.000000" x2="533.000000" y2="154.000000"  style="stroke:black; stroke-linecap:round; stroke-width:0.25;"/>
<line x1="533.000000" y1="154.000000" x2="537.000000" y2="154.000000"  style="stroke:black; stroke-linecap:round; stroke-width:0.25;"/>
<line x1="533.000000" y1="162.000000" x2="537.000000" y2="162.000000"  style="stroke:black; stroke-linecap:round; stroke-width:0.25;"/>
<line x1="561.000000" y1="158.000000" x2="565.000000" y2="158.000000"  style="stroke:black; stroke-linecap:round; stroke-width:0.25;"/>
<line x1="565.000000" y1="158.000000" x2="573.000000" y2="158.000000"  style="stroke:black; stroke-linecap:round; stroke-width:0.25;"/>
<line x1="565.000000" y1="204.000000" x2="573.000000" y2="204.000000"  style="stroke:black; stroke-linecap:round; stroke-width:0.25;"/>
<line x1="565.000000" y1="328.000000" x2="565.000000" y2="204.000000"  style="stroke:black; stroke-linecap:round; stroke-width:0.25;"/>
<line x1="565.000000" y1="328.000000" x2="565.000000" y2="328.000000"  style="stroke:black; stroke-linecap:round; stroke-width:0.25;"/>
<line x1="573.000000" y1="158.000000" x2="573.000000" y2="196.000000"  style="stroke:black; stroke-linecap:round; stroke-width:0.25;"/>
<line x1="573.000000" y1="196.000000" x2="573.000000" y2="196.000000"  style="stroke:black; stroke-linecap:round; stroke-width:0.25;"/>
<line x1="573.000000" y1="196.000000" x2="577.000000" y2="196.000000"  style="stroke:black; stroke-linecap:round; stroke-width:0.25;"/>
<line x1="573.000000" y1="204.000000" x2="577.000000" y2="204.000000"  style="stroke:black; stroke-linecap:round; stroke-width:0.25;"/>
<line x1="601.000000" y1="200.000000" x2="605.000000" y2="200.000000"  style="stroke:black; stroke-linecap:round; stroke-width:0.25;"/>
<line x1="605.000000" y1="200.000000" x2="723.000000" y2="138.000000"  style="stroke:black; stroke-linecap:round; stroke-width:0.25;"/>
<line x1="605.000000" y1="200.000000" x2="723.000000" y2="230.000000"  style="stroke:black; stroke-linecap:round; stroke-width:0.25;"/>
<line x1="723.000000" y1="138.000000" x2="769.000000" y2="138.000000"  style="stroke:black; stroke-linecap:round; stroke-width:0.25;"/>
<line x1="723.000000" y1="230.000000" x2="753.000000" y2="230.000000"  style="stroke:black; stroke-linecap:round; stroke-width:0.25;"/>
<line x1="753.000000" y1="230.000000" x2="769.000000" y2="230.000000"  style="stroke:black; stroke-linecap:round; stroke-width:0.25;"/>
<line x1="761.000000" y1="168.000000" x2="765.000000" y2="168.000000"  style="stroke:black; stroke-linecap:round; stroke-width:0.25;"/>
<line x1="761.000000" y1="210.000000" x2="765.000000" y2="210.000000"  style="stroke:black; stroke-linecap:round; stroke-width:0.25;"/>
<line x1="765.000000" y1="168.000000" x2="775.000000" y2="168.000000"  style="stroke:black; stroke-linecap:round; stroke-width:0.25;"/>
<line x1="765.000000" y1="210.000000" x2="775.000000" y2="210.000000"  style="stroke:black; stroke-linecap:round; stroke-width:0.25;"/>
<line x1="769.000000" y1="138.000000" x2="815.000000" y2="138.000000"  style="stroke:black; stroke-linecap:round; stroke-width:0.25;"/>
<line x1="769.000000" y1="230.000000" x2="785.000000" y2="230.000000"  style="stroke:black; stroke-linecap:round; stroke-width:0.25;"/>
<line x1="775.000000" y1="168.000000" x2="783.000000" y2="168.000000"  style="stroke:black; stroke-linecap:round; stroke-width:0.25;"/>
<line x1="775.000000" y1="188.000000" x2="783.000000" y2="188.000000"  style="stroke:black; stroke-linecap:round; stroke-width:0.25;"/>
<line x1="775.000000" y1="210.000000" x2="775.000000" y2="188.000000"  style="stroke:black; stroke-linecap:round; stroke-width:0.25;"/>
<line x1="775.000000" y1="210.000000" x2="775.000000" y2="210.000000"  style="stroke:black; stroke-linecap:round; stroke-width:0.25;"/>
<line x1="781.000000" y1="250.000000" x2="785.000000" y2="250.000000"  style="stroke:black; stroke-linecap:round; stroke-width:0.25;"/>
<line x1="783.000000" y1="168.000000" x2="783.000000" y2="180.000000"  style="stroke:black; stroke-linecap:round; stroke-width:0.25;"/>
<line x1="783.000000" y1="180.000000" x2="783.000000" y2="180.000000"  style="stroke:black; stroke-linecap:round; stroke-width:0.25;"/>
<line x1="783.000000" y1="180.000000" x2="787.000000" y2="180.000000"  style="stroke:black; stroke-linecap:round; stroke-width:0.25;"/>
<line x1="783.000000" y1="188.000000" x2="787.000000" y2="188.000000"  style="stroke:black; stroke-linecap:round; stroke-width:0.25;"/>
<line x1="785.000000" y1="230.000000" x2="793.000000" y2="230.000000"  style="stroke:black; stroke-linecap:round; stroke-width:0.25;"/>
<line x1="785.000000" y1="250.000000" x2="793.000000" y2="250.000000"  style="stroke:black; stroke-linecap:round; stroke-width:0.25;"/>
<line x1="793.000000" y1="230.000000" x2="793.000000" y2="242.000000"  style="stroke:black; stroke-linecap:round; stroke-width:0.25;"/>
<line x1="793.000000" y1="242.000000" x2="793.000000" y2="242.000000"  style="stroke:black; stroke-linecap:round; stroke-width:0.25;"/>
<line x1="793.000000" y1="242.000000" x2="797.000000" y2="242.000000"  style="stroke:black; stroke-linecap:round; stroke-width:0.25;"/>
<line x1="793.000000" y1="250.000000" x2="797.000000" y2="250.000000"  style="stroke:black; stroke-linecap:round; stroke-width:0.25;"/>
<line x1="811.000000" y1="184.000000" x2="815.000000" y2="184.000000"  style="stroke:black; stroke-linecap:round; stroke-width:0.25;"/>
<line x1="815.000000" y1="138.000000" x2="823.000000" y2="138.000000"  style="stroke:black; stroke-linecap:round; stroke-width:0.25;"/>
<line x1="815.000000" y1="184.000000" x2="823.000000" y2="184.000000"  style="stroke:black; stroke-linecap:round; stroke-width:0.25;"/>
<line x1="821.000000" y1="246.000000" x2="825.000000" y2="246.000000"  style="stroke:black; stroke-linecap:round; stroke-width:0.25;"/>
<line x1="823.000000" y1="138.000000" x2="823.000000" y2="176.000000"  style="stroke:black; stroke-linecap:round; stroke-width:0.25;"/>
<line x1="823.000000" y1="176.000000" x2="823.000000" y2="176.000000"  style="stroke:black; stroke-linecap:round; stroke-width:0.25;"/>
<line x1="823.000000" y1="176.000000" x2="827.000000" y2="176.000000"  style="stroke:black; stroke-linecap:round; stroke-width:0.25;"/>
<line x1="823.000000" y1="184.000000" x2="827.000000" y2="184.000000"  style="stroke:black; stroke-linecap:round; stroke-width:0.25;"/>
<line x1="825.000000" y1="246.000000" x2="855.000000" y2="246.000000"  style="stroke:black; stroke-linecap:round; stroke-width:0.25;"/>
<line x1="851.000000" y1="180.000000" x2="855.000000" y2="180.000000"  style="stroke:black; stroke-linecap:round; stroke-width:0.25;"/>
<line x1="855.000000" y1="180.000000" x2="865.000000" y2="180.000000"  style="stroke:black; stroke-linecap:round; stroke-width:0.25;"/>
<line x1="855.000000" y1="246.000000" x2="865.000000" y2="246.000000"  style="stroke:black; stroke-linecap:round; stroke-width:0.25;"/>
<line x1="865.000000" y1="180.000000" x2="873.000000" y2="180.000000"  style="stroke:black; stroke-linecap:round; stroke-width:0.25;"/>
<line x1="865.000000" y1="204.000000" x2="873.000000" y2="204.000000"  style="stroke:black; stroke-linecap:round; stroke-width:0.25;"/>
<line x1="865.000000" y1="246.000000" x2="865.000000" y2="204.000000"  style="stroke:black; stroke-linecap:round; stroke-width:0.25;"/>
<line x1="865.000000" y1="246.000000" x2="865.000000" y2="246.000000"  style="stroke:black; stroke-linecap:round; stroke-width:0.25;"/>
<line x1="873.000000" y1="180.000000" x2="873.000000" y2="196.000000"  style="stroke:black; stroke-linecap:round; stroke-width:0.25;"/>
<line x1="873.000000" y1="196.000000" x2="873.000000" y2="196.000000"  style="stroke:black; stroke-linecap:round; stroke-width:0.25;"/>
<line x1="873.000000" y1="196.000000" x2="877.000000" y2="196.000000"  style="stroke:black; stroke-linecap:round; stroke-width:0.25;"/>
<line x1="873.000000" y1="204.000000" x2="877.000000" y2="204.000000"  style="stroke:black; stroke-linecap:round; stroke-width:0.25;"/>
<line x1="877.000000" y1="196.000000" x2="881.000000" y2="196.000000"  style="stroke:black; stroke-linecap:round; stroke-width:0.25;"/>
<line x1="877.000000" y1="204.000000" x2="881.000000" y2="204.000000"  style="stroke:black; stroke-linecap:round; stroke-width:0.25;"/>
<line x1="881.000000" y1="196.000000" x2="891.000000" y2="196.000000"  style="stroke:black; stroke-linecap:round; stroke-width:0.25;"/>
<line x1="881.000000" y1="204.000000" x2="891.000000" y2="204.000000"  style="stroke:black; stroke-linecap:round; stroke-width:0.25;"/>
</svg>
