<?xml version="1.0"?>
<svg xmlns="http://www.w3.org/2000/svg" xmlns:xlink="http://www.w3.org/1999/xlink" viewBox="0 0 746.000000 312.000000" width="373.000000mm" height="156.000000mm" version="1.1">
<defs>
   <filter id="filter" filterRes="18" x="0" y="0">
     <feGaussianBlur in="SourceGraphic" stdDeviation="1.55" result="blur"/>
     <feOffset in="blur" dx="3" dy="3"/>
   </filter>
</defs>
<a xlink:href="process.svg">
<rect x="1.000000" y="1.000000" width="745.000000" height="311.000000" rx="0.1" ry="0.1" style="stroke:none;fill:#aaaaaa;;filter:url(#filter);"/>
<rect x="0.000000" y="0.000000" width="745.000000" height="311.000000" rx="0" ry="0" style="stroke:none;fill:#ffffff;"/>
</a>
<text x="10.000000" y="7.000000" font-family="Arial" font-size="7"></text>
<a xlink:href="pulsetrain-0x7fe251281ae0.svg">
<rect x="35.000000" y="103.000000" width="129.000000" height="24.000000" rx="0.1" ry="0.1" style="stroke:none;fill:#aaaaaa;;filter:url(#filter);"/>
<rect x="34.000000" y="102.000000" width="129.000000" height="24.000000" rx="0" ry="0" style="stroke:none;fill:#003366;"/>
</a>
<a xlink:href="pulsetrain-0x7fe251281ae0.svg">
<text x="98.500000" y="116.000000" font-family="Arial" font-size="7" text-anchor="middle" fill="#FFFFFF">pulsetrain(ne...,0.999f : *))</text>
</a>
<circle cx="36.000000" cy="104.000000" r="1"/>
<a xlink:href="lowpass-0x7fe25125e680.svg">
<rect x="180.000000" y="35.000000" width="129.000000" height="24.000000" rx="0.1" ry="0.1" style="stroke:none;fill:#aaaaaa;;filter:url(#filter);"/>
<rect x="179.000000" y="34.000000" width="129.000000" height="24.000000" rx="0" ry="0" style="stroke:none;fill:#003366;"/>
</a>
<a xlink:href="lowpass-0x7fe25125e680.svg">
<text x="243.500000" y="48.000000" font-family="Arial" font-size="7" text-anchor="middle" fill="#FFFFFF">lowpass(4)(vs...,0.999f : *))</text>
</a>
<circle cx="181.000000" cy="36.000000" r="1"/>
<line x1="176.000000" y1="45.000000" x2="179.000000" y2="46.000000"  transform="rotate(0.000000,179.000000,46.000000)" style="stroke: black; stroke-width:0.25;"/>
<line x1="176.000000" y1="47.000000" x2="179.000000" y2="46.000000"  transform="rotate(0.000000,179.000000,46.000000)" style="stroke: black; stroke-width:0.25;"/>
<a xlink:href="gain-0x7fe250486260.svg">
<rect x="231.600000" y="67.000000" width="25.800000" height="24.000000" rx="0.1" ry="0.1" style="stroke:none;fill:#aaaaaa;;filter:url(#filter);"/>
<rect x="230.600000" y="66.000000" width="25.800000" height="24.000000" rx="0" ry="0" style="stroke:none;fill:#003366;"/>
</a>
<a xlink:href="gain-0x7fe250486260.svg">
<text x="243.500000" y="80.000000" font-family="Arial" font-size="7" text-anchor="middle" fill="#FFFFFF">gain</text>
</a>
<circle cx="232.600000" cy="68.000000" r="1"/>
<rect x="325.000000" y="51.000000" width="24.000000" height="24.000000" rx="0.1" ry="0.1" style="stroke:none;fill:#aaaaaa;;filter:url(#filter);"/>
<rect x="324.000000" y="50.000000" width="24.000000" height="24.000000" rx="0" ry="0" style="stroke:none;fill:#4B71A1;"/>
<text x="336.000000" y="64.000000" font-family="Arial" font-size="7" text-anchor="middle" fill="#FFFFFF">*</text>
<circle cx="326.000000" cy="52.000000" r="1"/>
<line x1="321.000000" y1="57.000000" x2="324.000000" y2="58.000000"  transform="rotate(0.000000,324.000000,58.000000)" style="stroke: black; stroke-width:0.25;"/>
<line x1="321.000000" y1="59.000000" x2="324.000000" y2="58.000000"  transform="rotate(0.000000,324.000000,58.000000)" style="stroke: black; stroke-width:0.25;"/>
<line x1="321.000000" y1="65.000000" x2="324.000000" y2="66.000000"  transform="rotate(0.000000,324.000000,66.000000)" style="stroke: black; stroke-width:0.25;"/>
<line x1="321.000000" y1="67.000000" x2="324.000000" y2="66.000000"  transform="rotate(0.000000,324.000000,66.000000)" style="stroke: black; stroke-width:0.25;"/>
<rect x="252.500000" y="109.000000" width="24.000000" height="24.000000" rx="0.1" ry="0.1" style="stroke:none;fill:#aaaaaa;;filter:url(#filter);"/>
<rect x="251.500000" y="108.000000" width="24.000000" height="24.000000" rx="0" ry="0" style="stroke:none;fill:#f44800;"/>
<text x="263.500000" y="122.000000" font-family="Arial" font-size="7" text-anchor="middle" fill="#FFFFFF">1</text>
<circle cx="253.500000" cy="110.000000" r="1"/>
<line x1="242.500000" y1="99.000000" x2="242.500000" y2="141.000000"  style="stroke: black; stroke-linecap:round; stroke-width:0.25; stroke-dasharray:3,3;"/>
<line x1="242.500000" y1="141.000000" x2="284.500000" y2="141.000000"  style="stroke: black; stroke-linecap:round; stroke-width:0.25; stroke-dasharray:3,3;"/>
<line x1="284.500000" y1="141.000000" x2="284.500000" y2="99.000000"  style="stroke: black; stroke-linecap:round; stroke-width:0.25; stroke-dasharray:3,3;"/>
<line x1="242.500000" y1="99.000000" x2="247.500000" y2="99.000000"  style="stroke: black; stroke-linecap:round; stroke-width:0.25; stroke-dasharray:3,3;"/>
<line x1="257.175000" y1="99.000000" x2="284.500000" y2="99.000000"  style="stroke: black; stroke-linecap:round; stroke-width:0.25; stroke-dasharray:3,3;"/>
<text x="247.500000" y="101.000000" font-family="Arial" font-size="7">S</text>
<rect x="365.000000" y="77.000000" width="24.000000" height="24.000000" rx="0.1" ry="0.1" style="stroke:none;fill:#aaaaaa;;filter:url(#filter);"/>
<rect x="364.000000" y="76.000000" width="24.000000" height="24.000000" rx="0" ry="0" style="stroke:none;fill:#4B71A1;"/>
<text x="376.000000" y="90.000000" font-family="Arial" font-size="7" text-anchor="middle" fill="#FFFFFF">*</text>
<circle cx="366.000000" cy="78.000000" r="1"/>
<line x1="361.000000" y1="83.000000" x2="364.000000" y2="84.000000"  transform="rotate(0.000000,364.000000,84.000000)" style="stroke: black; stroke-width:0.25;"/>
<line x1="361.000000" y1="85.000000" x2="364.000000" y2="84.000000"  transform="rotate(0.000000,364.000000,84.000000)" style="stroke: black; stroke-width:0.25;"/>
<line x1="361.000000" y1="91.000000" x2="364.000000" y2="92.000000"  transform="rotate(0.000000,364.000000,92.000000)" style="stroke: black; stroke-width:0.25;"/>
<line x1="361.000000" y1="93.000000" x2="364.000000" y2="92.000000"  transform="rotate(0.000000,364.000000,92.000000)" style="stroke: black; stroke-width:0.25;"/>
<rect x="272.500000" y="161.000000" width="24.000000" height="24.000000" rx="0.1" ry="0.1" style="stroke:none;fill:#aaaaaa;;filter:url(#filter);"/>
<rect x="271.500000" y="160.000000" width="24.000000" height="24.000000" rx="0" ry="0" style="stroke:none;fill:#f44800;"/>
<text x="283.500000" y="174.000000" font-family="Arial" font-size="7" text-anchor="middle" fill="#FFFFFF">16</text>
<circle cx="273.500000" cy="162.000000" r="1"/>
<line x1="262.500000" y1="151.000000" x2="262.500000" y2="193.000000"  style="stroke: black; stroke-linecap:round; stroke-width:0.25; stroke-dasharray:3,3;"/>
<line x1="262.500000" y1="193.000000" x2="304.500000" y2="193.000000"  style="stroke: black; stroke-linecap:round; stroke-width:0.25; stroke-dasharray:3,3;"/>
<line x1="304.500000" y1="193.000000" x2="304.500000" y2="151.000000"  style="stroke: black; stroke-linecap:round; stroke-width:0.25; stroke-dasharray:3,3;"/>
<line x1="262.500000" y1="151.000000" x2="267.500000" y2="151.000000"  style="stroke: black; stroke-linecap:round; stroke-width:0.25; stroke-dasharray:3,3;"/>
<line x1="277.175000" y1="151.000000" x2="304.500000" y2="151.000000"  style="stroke: black; stroke-linecap:round; stroke-width:0.25; stroke-dasharray:3,3;"/>
<text x="267.500000" y="153.000000" font-family="Arial" font-size="7">k</text>
<rect x="405.000000" y="103.000000" width="24.000000" height="24.000000" rx="0.1" ry="0.1" style="stroke:none;fill:#aaaaaa;;filter:url(#filter);"/>
<rect x="404.000000" y="102.000000" width="24.000000" height="24.000000" rx="0" ry="0" style="stroke:none;fill:#4B71A1;"/>
<text x="416.000000" y="116.000000" font-family="Arial" font-size="7" text-anchor="middle" fill="#FFFFFF">/</text>
<circle cx="406.000000" cy="104.000000" r="1"/>
<line x1="401.000000" y1="109.000000" x2="404.000000" y2="110.000000"  transform="rotate(0.000000,404.000000,110.000000)" style="stroke: black; stroke-width:0.25;"/>
<line x1="401.000000" y1="111.000000" x2="404.000000" y2="110.000000"  transform="rotate(0.000000,404.000000,110.000000)" style="stroke: black; stroke-width:0.25;"/>
<line x1="401.000000" y1="117.000000" x2="404.000000" y2="118.000000"  transform="rotate(0.000000,404.000000,118.000000)" style="stroke: black; stroke-width:0.25;"/>
<line x1="401.000000" y1="119.000000" x2="404.000000" y2="118.000000"  transform="rotate(0.000000,404.000000,118.000000)" style="stroke: black; stroke-width:0.25;"/>
<rect x="200.000000" y="213.000000" width="24.000000" height="24.000000" rx="0.1" ry="0.1" style="stroke:none;fill:#aaaaaa;;filter:url(#filter);"/>
<rect x="199.000000" y="212.000000" width="24.000000" height="24.000000" rx="0" ry="0" style="stroke:none;fill:#f44800;"/>
<text x="211.000000" y="226.000000" font-family="Arial" font-size="7" text-anchor="middle" fill="#FFFFFF">1</text>
<circle cx="201.000000" cy="214.000000" r="1"/>
<line x1="190.000000" y1="203.000000" x2="190.000000" y2="245.000000"  style="stroke: black; stroke-linecap:round; stroke-width:0.25; stroke-dasharray:3,3;"/>
<line x1="190.000000" y1="245.000000" x2="232.000000" y2="245.000000"  style="stroke: black; stroke-linecap:round; stroke-width:0.25; stroke-dasharray:3,3;"/>
<line x1="232.000000" y1="245.000000" x2="232.000000" y2="203.000000"  style="stroke: black; stroke-linecap:round; stroke-width:0.25; stroke-dasharray:3,3;"/>
<line x1="190.000000" y1="203.000000" x2="195.000000" y2="203.000000"  style="stroke: black; stroke-linecap:round; stroke-width:0.25; stroke-dasharray:3,3;"/>
<line x1="204.675000" y1="203.000000" x2="232.000000" y2="203.000000"  style="stroke: black; stroke-linecap:round; stroke-width:0.25; stroke-dasharray:3,3;"/>
<text x="195.000000" y="205.000000" font-family="Arial" font-size="7">S</text>
<rect x="179.750000" y="255.000000" width="64.500000" height="24.000000" rx="0.1" ry="0.1" style="stroke:none;fill:#aaaaaa;;filter:url(#filter);"/>
<rect x="178.750000" y="254.000000" width="64.500000" height="24.000000" rx="0" ry="0" style="stroke:none;fill:#477881;"/>
<text x="211.000000" y="268.000000" font-family="Arial" font-size="7" text-anchor="middle" fill="#FFFFFF">checkbox(mute)</text>
<circle cx="180.750000" cy="256.000000" r="1"/>
<rect x="260.250000" y="229.000000" width="24.000000" height="24.000000" rx="0.1" ry="0.1" style="stroke:none;fill:#aaaaaa;;filter:url(#filter);"/>
<rect x="259.250000" y="228.000000" width="24.000000" height="24.000000" rx="0" ry="0" style="stroke:none;fill:#4B71A1;"/>
<text x="271.250000" y="242.000000" font-family="Arial" font-size="7" text-anchor="middle" fill="#FFFFFF">-</text>
<circle cx="261.250000" cy="230.000000" r="1"/>
<line x1="256.250000" y1="235.000000" x2="259.250000" y2="236.000000"  transform="rotate(0.000000,259.250000,236.000000)" style="stroke: black; stroke-width:0.25;"/>
<line x1="256.250000" y1="237.000000" x2="259.250000" y2="236.000000"  transform="rotate(0.000000,259.250000,236.000000)" style="stroke: black; stroke-width:0.25;"/>
<line x1="256.250000" y1="243.000000" x2="259.250000" y2="244.000000"  transform="rotate(0.000000,259.250000,244.000000)" style="stroke: black; stroke-width:0.25;"/>
<line x1="256.250000" y1="245.000000" x2="259.250000" y2="244.000000"  transform="rotate(0.000000,259.250000,244.000000)" style="stroke: black; stroke-width:0.25;"/>
<rect x="445.000000" y="145.000000" width="24.000000" height="24.000000" rx="0.1" ry="0.1" style="stroke:none;fill:#aaaaaa;;filter:url(#filter);"/>
<rect x="444.000000" y="144.000000" width="24.000000" height="24.000000" rx="0" ry="0" style="stroke:none;fill:#4B71A1;"/>
<text x="456.000000" y="158.000000" font-family="Arial" font-size="7" text-anchor="middle" fill="#FFFFFF">*</text>
<circle cx="446.000000" cy="146.000000" r="1"/>
<line x1="441.000000" y1="151.000000" x2="444.000000" y2="152.000000"  transform="rotate(0.000000,444.000000,152.000000)" style="stroke: black; stroke-width:0.25;"/>
<line x1="441.000000" y1="153.000000" x2="444.000000" y2="152.000000"  transform="rotate(0.000000,444.000000,152.000000)" style="stroke: black; stroke-width:0.25;"/>
<line x1="441.000000" y1="159.000000" x2="444.000000" y2="160.000000"  transform="rotate(0.000000,444.000000,160.000000)" style="stroke: black; stroke-width:0.25;"/>
<line x1="441.000000" y1="161.000000" x2="444.000000" y2="160.000000"  transform="rotate(0.000000,444.000000,160.000000)" style="stroke: black; stroke-width:0.25;"/>
<rect x="583.000000" y="113.000000" width="24.000000" height="24.000000" rx="0.1" ry="0.1" style="stroke:none;fill:#aaaaaa;;filter:url(#filter);"/>
<rect x="582.000000" y="112.000000" width="24.000000" height="24.000000" rx="0" ry="0" style="stroke:none;fill:#f44800;"/>
<text x="594.000000" y="126.000000" font-family="Arial" font-size="7" text-anchor="middle" fill="#FFFFFF">1</text>
<circle cx="584.000000" cy="114.000000" r="1"/>
<line x1="573.000000" y1="103.000000" x2="573.000000" y2="145.000000"  style="stroke: black; stroke-linecap:round; stroke-width:0.25; stroke-dasharray:3,3;"/>
<line x1="573.000000" y1="145.000000" x2="615.000000" y2="145.000000"  style="stroke: black; stroke-linecap:round; stroke-width:0.25; stroke-dasharray:3,3;"/>
<line x1="615.000000" y1="145.000000" x2="615.000000" y2="103.000000"  style="stroke: black; stroke-linecap:round; stroke-width:0.25; stroke-dasharray:3,3;"/>
<line x1="573.000000" y1="103.000000" x2="578.000000" y2="103.000000"  style="stroke: black; stroke-linecap:round; stroke-width:0.25; stroke-dasharray:3,3;"/>
<line x1="587.675000" y1="103.000000" x2="615.000000" y2="103.000000"  style="stroke: black; stroke-linecap:round; stroke-width:0.25; stroke-dasharray:3,3;"/>
<text x="578.000000" y="105.000000" font-family="Arial" font-size="7">S</text>
<a xlink:href="pan-0x7fe250413a70.svg">
<rect x="583.000000" y="155.000000" width="24.000000" height="24.000000" rx="0.1" ry="0.1" style="stroke:none;fill:#aaaaaa;;filter:url(#filter);"/>
<rect x="582.000000" y="154.000000" width="24.000000" height="24.000000" rx="0" ry="0" style="stroke:none;fill:#003366;"/>
</a>
<a xlink:href="pan-0x7fe250413a70.svg">
<text x="594.000000" y="168.000000" font-family="Arial" font-size="7" text-anchor="middle" fill="#FFFFFF">pan</text>
</a>
<circle cx="584.000000" cy="156.000000" r="1"/>
<rect x="633.000000" y="129.000000" width="24.000000" height="24.000000" rx="0.1" ry="0.1" style="stroke:none;fill:#aaaaaa;;filter:url(#filter);"/>
<rect x="632.000000" y="128.000000" width="24.000000" height="24.000000" rx="0" ry="0" style="stroke:none;fill:#4B71A1;"/>
<text x="644.000000" y="142.000000" font-family="Arial" font-size="7" text-anchor="middle" fill="#FFFFFF">-</text>
<circle cx="634.000000" cy="130.000000" r="1"/>
<line x1="629.000000" y1="135.000000" x2="632.000000" y2="136.000000"  transform="rotate(0.000000,632.000000,136.000000)" style="stroke: black; stroke-width:0.25;"/>
<line x1="629.000000" y1="137.000000" x2="632.000000" y2="136.000000"  transform="rotate(0.000000,632.000000,136.000000)" style="stroke: black; stroke-width:0.25;"/>
<line x1="629.000000" y1="143.000000" x2="632.000000" y2="144.000000"  transform="rotate(0.000000,632.000000,144.000000)" style="stroke: black; stroke-width:0.25;"/>
<line x1="629.000000" y1="145.000000" x2="632.000000" y2="144.000000"  transform="rotate(0.000000,632.000000,144.000000)" style="stroke: black; stroke-width:0.25;"/>
<rect x="673.000000" y="125.000000" width="24.000000" height="24.000000" rx="0.1" ry="0.1" style="stroke:none;fill:#aaaaaa;;filter:url(#filter);"/>
<rect x="672.000000" y="124.000000" width="24.000000" height="24.000000" rx="0" ry="0" style="stroke:none;fill:#4B71A1;"/>
<text x="684.000000" y="138.000000" font-family="Arial" font-size="7" text-anchor="middle" fill="#FFFFFF">*</text>
<circle cx="674.000000" cy="126.000000" r="1"/>
<line x1="669.000000" y1="131.000000" x2="672.000000" y2="132.000000"  transform="rotate(0.000000,672.000000,132.000000)" style="stroke: black; stroke-width:0.25;"/>
<line x1="669.000000" y1="133.000000" x2="672.000000" y2="132.000000"  transform="rotate(0.000000,672.000000,132.000000)" style="stroke: black; stroke-width:0.25;"/>
<line x1="669.000000" y1="139.000000" x2="672.000000" y2="140.000000"  transform="rotate(0.000000,672.000000,140.000000)" style="stroke: black; stroke-width:0.25;"/>
<line x1="669.000000" y1="141.000000" x2="672.000000" y2="140.000000"  transform="rotate(0.000000,672.000000,140.000000)" style="stroke: black; stroke-width:0.25;"/>
<a xlink:href="pan-0x7fe250413a70.svg">
<rect x="603.000000" y="195.000000" width="24.000000" height="24.000000" rx="0.1" ry="0.1" style="stroke:none;fill:#aaaaaa;;filter:url(#filter);"/>
<rect x="602.000000" y="194.000000" width="24.000000" height="24.000000" rx="0" ry="0" style="stroke:none;fill:#003366;"/>
</a>
<a xlink:href="pan-0x7fe250413a70.svg">
<text x="614.000000" y="208.000000" font-family="Arial" font-size="7" text-anchor="middle" fill="#FFFFFF">pan</text>
</a>
<circle cx="604.000000" cy="196.000000" r="1"/>
<rect x="643.000000" y="191.000000" width="24.000000" height="24.000000" rx="0.1" ry="0.1" style="stroke:none;fill:#aaaaaa;;filter:url(#filter);"/>
<rect x="642.000000" y="190.000000" width="24.000000" height="24.000000" rx="0" ry="0" style="stroke:none;fill:#4B71A1;"/>
<text x="654.000000" y="204.000000" font-family="Arial" font-size="7" text-anchor="middle" fill="#FFFFFF">*</text>
<circle cx="644.000000" cy="192.000000" r="1"/>
<line x1="639.000000" y1="197.000000" x2="642.000000" y2="198.000000"  transform="rotate(0.000000,642.000000,198.000000)" style="stroke: black; stroke-width:0.25;"/>
<line x1="639.000000" y1="199.000000" x2="642.000000" y2="198.000000"  transform="rotate(0.000000,642.000000,198.000000)" style="stroke: black; stroke-width:0.25;"/>
<line x1="639.000000" y1="205.000000" x2="642.000000" y2="206.000000"  transform="rotate(0.000000,642.000000,206.000000)" style="stroke: black; stroke-width:0.25;"/>
<line x1="639.000000" y1="207.000000" x2="642.000000" y2="206.000000"  transform="rotate(0.000000,642.000000,206.000000)" style="stroke: black; stroke-width:0.25;"/>
<line x1="25.000000" y1="25.000000" x2="25.000000" y2="287.000000"  style="stroke: black; stroke-linecap:round; stroke-width:0.25; stroke-dasharray:3,3;"/>
<line x1="25.000000" y1="287.000000" x2="705.000000" y2="287.000000"  style="stroke: black; stroke-linecap:round; stroke-width:0.25; stroke-dasharray:3,3;"/>
<line x1="705.000000" y1="287.000000" x2="705.000000" y2="25.000000"  style="stroke: black; stroke-linecap:round; stroke-width:0.25; stroke-dasharray:3,3;"/>
<line x1="25.000000" y1="25.000000" x2="30.000000" y2="25.000000"  style="stroke: black; stroke-linecap:round; stroke-width:0.25; stroke-dasharray:3,3;"/>
<line x1="71.925000" y1="25.000000" x2="705.000000" y2="25.000000"  style="stroke: black; stroke-linecap:round; stroke-width:0.25; stroke-dasharray:3,3;"/>
<text x="30.000000" y="27.000000" font-family="Arial" font-size="7">vgroup(BL5)</text>
<line x1="15.000000" y1="15.000000" x2="15.000000" y2="297.000000"  style="stroke: black; stroke-linecap:round; stroke-width:0.25; stroke-dasharray:3,3;"/>
<line x1="15.000000" y1="297.000000" x2="731.000000" y2="297.000000"  style="stroke: black; stroke-linecap:round; stroke-width:0.25; stroke-dasharray:3,3;"/>
<line x1="731.000000" y1="297.000000" x2="731.000000" y2="15.000000"  style="stroke: black; stroke-linecap:round; stroke-width:0.25; stroke-dasharray:3,3;"/>
<line x1="15.000000" y1="15.000000" x2="20.000000" y2="15.000000"  style="stroke: black; stroke-linecap:round; stroke-width:0.25; stroke-dasharray:3,3;"/>
<line x1="58.700000" y1="15.000000" x2="731.000000" y2="15.000000"  style="stroke: black; stroke-linecap:round; stroke-width:0.25; stroke-dasharray:3,3;"/>
<text x="20.000000" y="17.000000" font-family="Arial" font-size="7">partial(5)</text>
<line x1="733.000000" y1="151.000000" x2="736.000000" y2="152.000000"  transform="rotate(0.000000,736.000000,152.000000)" style="stroke: black; stroke-width:0.25;"/>
<line x1="733.000000" y1="153.000000" x2="736.000000" y2="152.000000"  transform="rotate(0.000000,736.000000,152.000000)" style="stroke: black; stroke-width:0.25;"/>
<line x1="733.000000" y1="159.000000" x2="736.000000" y2="160.000000"  transform="rotate(0.000000,736.000000,160.000000)" style="stroke: black; stroke-width:0.25;"/>
<line x1="733.000000" y1="161.000000" x2="736.000000" y2="160.000000"  transform="rotate(0.000000,736.000000,160.000000)" style="stroke: black; stroke-width:0.25;"/>
<line x1="163.000000" y1="114.000000" x2="167.000000" y2="114.000000"  style="stroke:black; stroke-linecap:round; stroke-width:0.25;"/>
<line x1="167.000000" y1="46.000000" x2="175.000000" y2="46.000000"  style="stroke:black; stroke-linecap:round; stroke-width:0.25;"/>
<line x1="167.000000" y1="114.000000" x2="167.000000" y2="46.000000"  style="stroke:black; stroke-linecap:round; stroke-width:0.25;"/>
<line x1="167.000000" y1="114.000000" x2="167.000000" y2="114.000000"  style="stroke:black; stroke-linecap:round; stroke-width:0.25;"/>
<line x1="175.000000" y1="46.000000" x2="179.000000" y2="46.000000"  style="stroke:black; stroke-linecap:round; stroke-width:0.25;"/>
<line x1="223.000000" y1="224.000000" x2="227.000000" y2="224.000000"  style="stroke:black; stroke-linecap:round; stroke-width:0.25;"/>
<line x1="227.000000" y1="224.000000" x2="237.000000" y2="224.000000"  style="stroke:black; stroke-linecap:round; stroke-width:0.25;"/>
<line x1="237.000000" y1="224.000000" x2="247.250000" y2="224.000000"  style="stroke:black; stroke-linecap:round; stroke-width:0.25;"/>
<line x1="243.250000" y1="266.000000" x2="247.250000" y2="266.000000"  style="stroke:black; stroke-linecap:round; stroke-width:0.25;"/>
<line x1="247.250000" y1="224.000000" x2="255.250000" y2="224.000000"  style="stroke:black; stroke-linecap:round; stroke-width:0.25;"/>
<line x1="247.250000" y1="244.000000" x2="255.250000" y2="244.000000"  style="stroke:black; stroke-linecap:round; stroke-width:0.25;"/>
<line x1="247.250000" y1="266.000000" x2="247.250000" y2="244.000000"  style="stroke:black; stroke-linecap:round; stroke-width:0.25;"/>
<line x1="247.250000" y1="266.000000" x2="247.250000" y2="266.000000"  style="stroke:black; stroke-linecap:round; stroke-width:0.25;"/>
<line x1="255.250000" y1="224.000000" x2="255.250000" y2="236.000000"  style="stroke:black; stroke-linecap:round; stroke-width:0.25;"/>
<line x1="255.250000" y1="236.000000" x2="255.250000" y2="236.000000"  style="stroke:black; stroke-linecap:round; stroke-width:0.25;"/>
<line x1="255.250000" y1="236.000000" x2="259.250000" y2="236.000000"  style="stroke:black; stroke-linecap:round; stroke-width:0.25;"/>
<line x1="255.250000" y1="244.000000" x2="259.250000" y2="244.000000"  style="stroke:black; stroke-linecap:round; stroke-width:0.25;"/>
<line x1="256.400000" y1="78.000000" x2="260.400000" y2="78.000000"  style="stroke:black; stroke-linecap:round; stroke-width:0.25;"/>
<line x1="260.400000" y1="78.000000" x2="312.000000" y2="78.000000"  style="stroke:black; stroke-linecap:round; stroke-width:0.25;"/>
<line x1="275.500000" y1="120.000000" x2="279.500000" y2="120.000000"  style="stroke:black; stroke-linecap:round; stroke-width:0.25;"/>
<line x1="279.500000" y1="120.000000" x2="289.500000" y2="120.000000"  style="stroke:black; stroke-linecap:round; stroke-width:0.25;"/>
<line x1="283.250000" y1="240.000000" x2="287.250000" y2="240.000000"  style="stroke:black; stroke-linecap:round; stroke-width:0.25;"/>
<line x1="287.250000" y1="240.000000" x2="432.000000" y2="240.000000"  style="stroke:black; stroke-linecap:round; stroke-width:0.25;"/>
<line x1="289.500000" y1="120.000000" x2="352.000000" y2="120.000000"  style="stroke:black; stroke-linecap:round; stroke-width:0.25;"/>
<line x1="295.500000" y1="172.000000" x2="299.500000" y2="172.000000"  style="stroke:black; stroke-linecap:round; stroke-width:0.25;"/>
<line x1="299.500000" y1="172.000000" x2="309.500000" y2="172.000000"  style="stroke:black; stroke-linecap:round; stroke-width:0.25;"/>
<line x1="308.000000" y1="46.000000" x2="312.000000" y2="46.000000"  style="stroke:black; stroke-linecap:round; stroke-width:0.25;"/>
<line x1="309.500000" y1="172.000000" x2="392.000000" y2="172.000000"  style="stroke:black; stroke-linecap:round; stroke-width:0.25;"/>
<line x1="312.000000" y1="46.000000" x2="320.000000" y2="46.000000"  style="stroke:black; stroke-linecap:round; stroke-width:0.25;"/>
<line x1="312.000000" y1="66.000000" x2="320.000000" y2="66.000000"  style="stroke:black; stroke-linecap:round; stroke-width:0.25;"/>
<line x1="312.000000" y1="78.000000" x2="312.000000" y2="66.000000"  style="stroke:black; stroke-linecap:round; stroke-width:0.25;"/>
<line x1="312.000000" y1="78.000000" x2="312.000000" y2="78.000000"  style="stroke:black; stroke-linecap:round; stroke-width:0.25;"/>
<line x1="320.000000" y1="46.000000" x2="320.000000" y2="58.000000"  style="stroke:black; stroke-linecap:round; stroke-width:0.25;"/>
<line x1="320.000000" y1="58.000000" x2="320.000000" y2="58.000000"  style="stroke:black; stroke-linecap:round; stroke-width:0.25;"/>
<line x1="320.000000" y1="58.000000" x2="324.000000" y2="58.000000"  style="stroke:black; stroke-linecap:round; stroke-width:0.25;"/>
<line x1="320.000000" y1="66.000000" x2="324.000000" y2="66.000000"  style="stroke:black; stroke-linecap:round; stroke-width:0.25;"/>
<line x1="348.000000" y1="62.000000" x2="352.000000" y2="62.000000"  style="stroke:black; stroke-linecap:round; stroke-width:0.25;"/>
<line x1="352.000000" y1="62.000000" x2="360.000000" y2="62.000000"  style="stroke:black; stroke-linecap:round; stroke-width:0.25;"/>
<line x1="352.000000" y1="92.000000" x2="360.000000" y2="92.000000"  style="stroke:black; stroke-linecap:round; stroke-width:0.25;"/>
<line x1="352.000000" y1="120.000000" x2="352.000000" y2="92.000000"  style="stroke:black; stroke-linecap:round; stroke-width:0.25;"/>
<line x1="352.000000" y1="120.000000" x2="352.000000" y2="120.000000"  style="stroke:black; stroke-linecap:round; stroke-width:0.25;"/>
<line x1="360.000000" y1="62.000000" x2="360.000000" y2="84.000000"  style="stroke:black; stroke-linecap:round; stroke-width:0.25;"/>
<line x1="360.000000" y1="84.000000" x2="360.000000" y2="84.000000"  style="stroke:black; stroke-linecap:round; stroke-width:0.25;"/>
<line x1="360.000000" y1="84.000000" x2="364.000000" y2="84.000000"  style="stroke:black; stroke-linecap:round; stroke-width:0.25;"/>
<line x1="360.000000" y1="92.000000" x2="364.000000" y2="92.000000"  style="stroke:black; stroke-linecap:round; stroke-width:0.25;"/>
<line x1="388.000000" y1="88.000000" x2="392.000000" y2="88.000000"  style="stroke:black; stroke-linecap:round; stroke-width:0.25;"/>
<line x1="392.000000" y1="88.000000" x2="400.000000" y2="88.000000"  style="stroke:black; stroke-linecap:round; stroke-width:0.25;"/>
<line x1="392.000000" y1="118.000000" x2="400.000000" y2="118.000000"  style="stroke:black; stroke-linecap:round; stroke-width:0.25;"/>
<line x1="392.000000" y1="172.000000" x2="392.000000" y2="118.000000"  style="stroke:black; stroke-linecap:round; stroke-width:0.25;"/>
<line x1="392.000000" y1="172.000000" x2="392.000000" y2="172.000000"  style="stroke:black; stroke-linecap:round; stroke-width:0.25;"/>
<line x1="400.000000" y1="88.000000" x2="400.000000" y2="110.000000"  style="stroke:black; stroke-linecap:round; stroke-width:0.25;"/>
<line x1="400.000000" y1="110.000000" x2="400.000000" y2="110.000000"  style="stroke:black; stroke-linecap:round; stroke-width:0.25;"/>
<line x1="400.000000" y1="110.000000" x2="404.000000" y2="110.000000"  style="stroke:black; stroke-linecap:round; stroke-width:0.25;"/>
<line x1="400.000000" y1="118.000000" x2="404.000000" y2="118.000000"  style="stroke:black; stroke-linecap:round; stroke-width:0.25;"/>
<line x1="428.000000" y1="114.000000" x2="432.000000" y2="114.000000"  style="stroke:black; stroke-linecap:round; stroke-width:0.25;"/>
<line x1="432.000000" y1="114.000000" x2="440.000000" y2="114.000000"  style="stroke:black; stroke-linecap:round; stroke-width:0.25;"/>
<line x1="432.000000" y1="160.000000" x2="440.000000" y2="160.000000"  style="stroke:black; stroke-linecap:round; stroke-width:0.25;"/>
<line x1="432.000000" y1="240.000000" x2="432.000000" y2="160.000000"  style="stroke:black; stroke-linecap:round; stroke-width:0.25;"/>
<line x1="432.000000" y1="240.000000" x2="432.000000" y2="240.000000"  style="stroke:black; stroke-linecap:round; stroke-width:0.25;"/>
<line x1="440.000000" y1="114.000000" x2="440.000000" y2="152.000000"  style="stroke:black; stroke-linecap:round; stroke-width:0.25;"/>
<line x1="440.000000" y1="152.000000" x2="440.000000" y2="152.000000"  style="stroke:black; stroke-linecap:round; stroke-width:0.25;"/>
<line x1="440.000000" y1="152.000000" x2="444.000000" y2="152.000000"  style="stroke:black; stroke-linecap:round; stroke-width:0.25;"/>
<line x1="440.000000" y1="160.000000" x2="444.000000" y2="160.000000"  style="stroke:black; stroke-linecap:round; stroke-width:0.25;"/>
<line x1="468.000000" y1="156.000000" x2="472.000000" y2="156.000000"  style="stroke:black; stroke-linecap:round; stroke-width:0.25;"/>
<line x1="472.000000" y1="156.000000" x2="568.000000" y2="94.000000"  style="stroke:black; stroke-linecap:round; stroke-width:0.25;"/>
<line x1="472.000000" y1="156.000000" x2="568.000000" y2="186.000000"  style="stroke:black; stroke-linecap:round; stroke-width:0.25;"/>
<line x1="568.000000" y1="94.000000" x2="614.000000" y2="94.000000"  style="stroke:black; stroke-linecap:round; stroke-width:0.25;"/>
<line x1="568.000000" y1="186.000000" x2="598.000000" y2="186.000000"  style="stroke:black; stroke-linecap:round; stroke-width:0.25;"/>
<line x1="598.000000" y1="186.000000" x2="614.000000" y2="186.000000"  style="stroke:black; stroke-linecap:round; stroke-width:0.25;"/>
<line x1="606.000000" y1="124.000000" x2="610.000000" y2="124.000000"  style="stroke:black; stroke-linecap:round; stroke-width:0.25;"/>
<line x1="606.000000" y1="166.000000" x2="610.000000" y2="166.000000"  style="stroke:black; stroke-linecap:round; stroke-width:0.25;"/>
<line x1="610.000000" y1="124.000000" x2="620.000000" y2="124.000000"  style="stroke:black; stroke-linecap:round; stroke-width:0.25;"/>
<line x1="610.000000" y1="166.000000" x2="620.000000" y2="166.000000"  style="stroke:black; stroke-linecap:round; stroke-width:0.25;"/>
<line x1="614.000000" y1="94.000000" x2="660.000000" y2="94.000000"  style="stroke:black; stroke-linecap:round; stroke-width:0.25;"/>
<line x1="614.000000" y1="186.000000" x2="630.000000" y2="186.000000"  style="stroke:black; stroke-linecap:round; stroke-width:0.25;"/>
<line x1="620.000000" y1="124.000000" x2="628.000000" y2="124.000000"  style="stroke:black; stroke-linecap:round; stroke-width:0.25;"/>
<line x1="620.000000" y1="144.000000" x2="628.000000" y2="144.000000"  style="stroke:black; stroke-linecap:round; stroke-width:0.25;"/>
<line x1="620.000000" y1="166.000000" x2="620.000000" y2="144.000000"  style="stroke:black; stroke-linecap:round; stroke-width:0.25;"/>
<line x1="620.000000" y1="166.000000" x2="620.000000" y2="166.000000"  style="stroke:black; stroke-linecap:round; stroke-width:0.25;"/>
<line x1="626.000000" y1="206.000000" x2="630.000000" y2="206.000000"  style="stroke:black; stroke-linecap:round; stroke-width:0.25;"/>
<line x1="628.000000" y1="124.000000" x2="628.000000" y2="136.000000"  style="stroke:black; stroke-linecap:round; stroke-width:0.25;"/>
<line x1="628.000000" y1="136.000000" x2="628.000000" y2="136.000000"  style="stroke:black; stroke-linecap:round; stroke-width:0.25;"/>
<line x1="628.000000" y1="136.000000" x2="632.000000" y2="136.000000"  style="stroke:black; stroke-linecap:round; stroke-width:0.25;"/>
<line x1="628.000000" y1="144.000000" x2="632.000000" y2="144.000000"  style="stroke:black; stroke-linecap:round; stroke-width:0.25;"/>
<line x1="630.000000" y1="186.000000" x2="638.000000" y2="186.000000"  style="stroke:black; stroke-linecap:round; stroke-width:0.25;"/>
<line x1="630.000000" y1="206.000000" x2="638.000000" y2="206.000000"  style="stroke:black; stroke-linecap:round; stroke-width:0.25;"/>
<line x1="638.000000" y1="186.000000" x2="638.000000" y2="198.000000"  style="stroke:black; stroke-linecap:round; stroke-width:0.25;"/>
<line x1="638.000000" y1="198.000000" x2="638.000000" y2="198.000000"  style="stroke:black; stroke-linecap:round; stroke-width:0.25;"/>
<line x1="638.000000" y1="198.000000" x2="642.000000" y2="198.000000"  style="stroke:black; stroke-linecap:round; stroke-width:0.25;"/>
<line x1="638.000000" y1="206.000000" x2="642.000000" y2="206.000000"  style="stroke:black; stroke-linecap:round; stroke-width:0.25;"/>
<line x1="656.000000" y1="140.000000" x2="660.000000" y2="140.000000"  style="stroke:black; stroke-linecap:round; stroke-width:0.25;"/>
<line x1="660.000000" y1="94.000000" x2="668.000000" y2="94.000000"  style="stroke:black; stroke-linecap:round; stroke-width:0.25;"/>
<line x1="660.000000" y1="140.000000" x2="668.000000" y2="140.000000"  style="stroke:black; stroke-linecap:round; stroke-width:0.25;"/>
<line x1="666.000000" y1="202.000000" x2="670.000000" y2="202.000000"  style="stroke:black; stroke-linecap:round; stroke-width:0.25;"/>
<line x1="668.000000" y1="94.000000" x2="668.000000" y2="132.000000"  style="stroke:black; stroke-linecap:round; stroke-width:0.25;"/>
<line x1="668.000000" y1="132.000000" x2="668.000000" y2="132.000000"  style="stroke:black; stroke-linecap:round; stroke-width:0.25;"/>
<line x1="668.000000" y1="132.000000" x2="672.000000" y2="132.000000"  style="stroke:black; stroke-linecap:round; stroke-width:0.25;"/>
<line x1="668.000000" y1="140.000000" x2="672.000000" y2="140.000000"  style="stroke:black; stroke-linecap:round; stroke-width:0.25;"/>
<line x1="670.000000" y1="202.000000" x2="700.000000" y2="202.000000"  style="stroke:black; stroke-linecap:round; stroke-width:0.25;"/>
<line x1="696.000000" y1="136.000000" x2="700.000000" y2="136.000000"  style="stroke:black; stroke-linecap:round; stroke-width:0.25;"/>
<line x1="700.000000" y1="136.000000" x2="710.000000" y2="136.000000"  style="stroke:black; stroke-linecap:round; stroke-width:0.25;"/>
<line x1="700.000000" y1="202.000000" x2="710.000000" y2="202.000000"  style="stroke:black; stroke-linecap:round; stroke-width:0.25;"/>
<line x1="710.000000" y1="136.000000" x2="718.000000" y2="136.000000"  style="stroke:black; stroke-linecap:round; stroke-width:0.25;"/>
<line x1="710.000000" y1="160.000000" x2="718.000000" y2="160.000000"  style="stroke:black; stroke-linecap:round; stroke-width:0.25;"/>
<line x1="710.000000" y1="202.000000" x2="710.000000" y2="160.000000"  style="stroke:black; stroke-linecap:round; stroke-width:0.25;"/>
<line x1="710.000000" y1="202.000000" x2="710.000000" y2="202.000000"  style="stroke:black; stroke-linecap:round; stroke-width:0.25;"/>
<line x1="718.000000" y1="136.000000" x2="718.000000" y2="152.000000"  style="stroke:black; stroke-linecap:round; stroke-width:0.25;"/>
<line x1="718.000000" y1="152.000000" x2="718.000000" y2="152.000000"  style="stroke:black; stroke-linecap:round; stroke-width:0.25;"/>
<line x1="718.000000" y1="152.000000" x2="722.000000" y2="152.000000"  style="stroke:black; stroke-linecap:round; stroke-width:0.25;"/>
<line x1="718.000000" y1="160.000000" x2="722.000000" y2="160.000000"  style="stroke:black; stroke-linecap:round; stroke-width:0.25;"/>
<line x1="722.000000" y1="152.000000" x2="726.000000" y2="152.000000"  style="stroke:black; stroke-linecap:round; stroke-width:0.25;"/>
<line x1="722.000000" y1="160.000000" x2="726.000000" y2="160.000000"  style="stroke:black; stroke-linecap:round; stroke-width:0.25;"/>
<line x1="726.000000" y1="152.000000" x2="736.000000" y2="152.000000"  style="stroke:black; stroke-linecap:round; stroke-width:0.25;"/>
<line x1="726.000000" y1="160.000000" x2="736.000000" y2="160.000000"  style="stroke:black; stroke-linecap:round; stroke-width:0.25;"/>
</svg>
