<?xml version="1.0"?>
<svg xmlns="http://www.w3.org/2000/svg" xmlns:xlink="http://www.w3.org/1999/xlink" viewBox="0 0 585.200000 604.000000" width="292.600000mm" height="302.000000mm" version="1.1">
<defs>
   <filter id="filter" filterRes="18" x="0" y="0">
     <feGaussianBlur in="SourceGraphic" stdDeviation="1.55" result="blur"/>
     <feOffset in="blur" dx="3" dy="3"/>
   </filter>
</defs>
<rect x="1.000000" y="1.000000" width="584.200000" height="603.000000" rx="0.1" ry="0.1" style="stroke:none;fill:#aaaaaa;;filter:url(#filter);"/>
<rect x="0.000000" y="0.000000" width="584.200000" height="603.000000" rx="0" ry="0" style="stroke:none;fill:#ffffff;"/>
<text x="10.000000" y="7.000000" font-family="Arial" font-size="7"></text>
<a xlink:href="partial-0x7ff5b15c8620.svg">
<rect x="35.000000" y="35.000000" width="51.600000" height="24.000000" rx="0.1" ry="0.1" style="stroke:none;fill:#aaaaaa;;filter:url(#filter);"/>
<rect x="34.000000" y="34.000000" width="51.600000" height="24.000000" rx="0" ry="0" style="stroke:none;fill:#003366;"/>
</a>
<a xlink:href="partial-0x7ff5b15c8620.svg">
<text x="59.800000" y="48.000000" font-family="Arial" font-size="7" text-anchor="middle" fill="#FFFFFF">partial(0)</text>
</a>
<circle cx="36.000000" cy="36.000000" r="1"/>
<a xlink:href="partial-0x7ff5b15d7100.svg">
<rect x="35.000000" y="67.000000" width="51.600000" height="24.000000" rx="0.1" ry="0.1" style="stroke:none;fill:#aaaaaa;;filter:url(#filter);"/>
<rect x="34.000000" y="66.000000" width="51.600000" height="24.000000" rx="0" ry="0" style="stroke:none;fill:#003366;"/>
</a>
<a xlink:href="partial-0x7ff5b15d7100.svg">
<text x="59.800000" y="80.000000" font-family="Arial" font-size="7" text-anchor="middle" fill="#FFFFFF">partial(1)</text>
</a>
<circle cx="36.000000" cy="68.000000" r="1"/>
<a xlink:href="partial-0x7ff5b15e5c00.svg">
<rect x="35.000000" y="99.000000" width="51.600000" height="24.000000" rx="0.1" ry="0.1" style="stroke:none;fill:#aaaaaa;;filter:url(#filter);"/>
<rect x="34.000000" y="98.000000" width="51.600000" height="24.000000" rx="0" ry="0" style="stroke:none;fill:#003366;"/>
</a>
<a xlink:href="partial-0x7ff5b15e5c00.svg">
<text x="59.800000" y="112.000000" font-family="Arial" font-size="7" text-anchor="middle" fill="#FFFFFF">partial(2)</text>
</a>
<circle cx="36.000000" cy="100.000000" r="1"/>
<a xlink:href="partial-0x7ff5b15f48a0.svg">
<rect x="35.000000" y="131.000000" width="51.600000" height="24.000000" rx="0.1" ry="0.1" style="stroke:none;fill:#aaaaaa;;filter:url(#filter);"/>
<rect x="34.000000" y="130.000000" width="51.600000" height="24.000000" rx="0" ry="0" style="stroke:none;fill:#003366;"/>
</a>
<a xlink:href="partial-0x7ff5b15f48a0.svg">
<text x="59.800000" y="144.000000" font-family="Arial" font-size="7" text-anchor="middle" fill="#FFFFFF">partial(3)</text>
</a>
<circle cx="36.000000" cy="132.000000" r="1"/>
<a xlink:href="partial-0x7ff5b1603470.svg">
<rect x="35.000000" y="163.000000" width="51.600000" height="24.000000" rx="0.1" ry="0.1" style="stroke:none;fill:#aaaaaa;;filter:url(#filter);"/>
<rect x="34.000000" y="162.000000" width="51.600000" height="24.000000" rx="0" ry="0" style="stroke:none;fill:#003366;"/>
</a>
<a xlink:href="partial-0x7ff5b1603470.svg">
<text x="59.800000" y="176.000000" font-family="Arial" font-size="7" text-anchor="middle" fill="#FFFFFF">partial(4)</text>
</a>
<circle cx="36.000000" cy="164.000000" r="1"/>
<a xlink:href="partial-0x7ff5b1611ea0.svg">
<rect x="35.000000" y="195.000000" width="51.600000" height="24.000000" rx="0.1" ry="0.1" style="stroke:none;fill:#aaaaaa;;filter:url(#filter);"/>
<rect x="34.000000" y="194.000000" width="51.600000" height="24.000000" rx="0" ry="0" style="stroke:none;fill:#003366;"/>
</a>
<a xlink:href="partial-0x7ff5b1611ea0.svg">
<text x="59.800000" y="208.000000" font-family="Arial" font-size="7" text-anchor="middle" fill="#FFFFFF">partial(5)</text>
</a>
<circle cx="36.000000" cy="196.000000" r="1"/>
<a xlink:href="partial-0x7ff5b16209a0.svg">
<rect x="35.000000" y="227.000000" width="51.600000" height="24.000000" rx="0.1" ry="0.1" style="stroke:none;fill:#aaaaaa;;filter:url(#filter);"/>
<rect x="34.000000" y="226.000000" width="51.600000" height="24.000000" rx="0" ry="0" style="stroke:none;fill:#003366;"/>
</a>
<a xlink:href="partial-0x7ff5b16209a0.svg">
<text x="59.800000" y="240.000000" font-family="Arial" font-size="7" text-anchor="middle" fill="#FFFFFF">partial(6)</text>
</a>
<circle cx="36.000000" cy="228.000000" r="1"/>
<a xlink:href="partial-0x7ff5b162f710.svg">
<rect x="35.000000" y="259.000000" width="51.600000" height="24.000000" rx="0.1" ry="0.1" style="stroke:none;fill:#aaaaaa;;filter:url(#filter);"/>
<rect x="34.000000" y="258.000000" width="51.600000" height="24.000000" rx="0" ry="0" style="stroke:none;fill:#003366;"/>
</a>
<a xlink:href="partial-0x7ff5b162f710.svg">
<text x="59.800000" y="272.000000" font-family="Arial" font-size="7" text-anchor="middle" fill="#FFFFFF">partial(7)</text>
</a>
<circle cx="36.000000" cy="260.000000" r="1"/>
<a xlink:href="partial-0x7ff5b163e3b0.svg">
<rect x="35.000000" y="291.000000" width="51.600000" height="24.000000" rx="0.1" ry="0.1" style="stroke:none;fill:#aaaaaa;;filter:url(#filter);"/>
<rect x="34.000000" y="290.000000" width="51.600000" height="24.000000" rx="0" ry="0" style="stroke:none;fill:#003366;"/>
</a>
<a xlink:href="partial-0x7ff5b163e3b0.svg">
<text x="59.800000" y="304.000000" font-family="Arial" font-size="7" text-anchor="middle" fill="#FFFFFF">partial(8)</text>
</a>
<circle cx="36.000000" cy="292.000000" r="1"/>
<a xlink:href="partial-0x7ff5b164cde0.svg">
<rect x="35.000000" y="323.000000" width="51.600000" height="24.000000" rx="0.1" ry="0.1" style="stroke:none;fill:#aaaaaa;;filter:url(#filter);"/>
<rect x="34.000000" y="322.000000" width="51.600000" height="24.000000" rx="0" ry="0" style="stroke:none;fill:#003366;"/>
</a>
<a xlink:href="partial-0x7ff5b164cde0.svg">
<text x="59.800000" y="336.000000" font-family="Arial" font-size="7" text-anchor="middle" fill="#FFFFFF">partial(9)</text>
</a>
<circle cx="36.000000" cy="324.000000" r="1"/>
<a xlink:href="partial-0x7ff5b165b810.svg">
<rect x="35.000000" y="355.000000" width="51.600000" height="24.000000" rx="0.1" ry="0.1" style="stroke:none;fill:#aaaaaa;;filter:url(#filter);"/>
<rect x="34.000000" y="354.000000" width="51.600000" height="24.000000" rx="0" ry="0" style="stroke:none;fill:#003366;"/>
</a>
<a xlink:href="partial-0x7ff5b165b810.svg">
<text x="59.800000" y="368.000000" font-family="Arial" font-size="7" text-anchor="middle" fill="#FFFFFF">partial(10)</text>
</a>
<circle cx="36.000000" cy="356.000000" r="1"/>
<a xlink:href="partial-0x7ff5b166a3e0.svg">
<rect x="35.000000" y="387.000000" width="51.600000" height="24.000000" rx="0.1" ry="0.1" style="stroke:none;fill:#aaaaaa;;filter:url(#filter);"/>
<rect x="34.000000" y="386.000000" width="51.600000" height="24.000000" rx="0" ry="0" style="stroke:none;fill:#003366;"/>
</a>
<a xlink:href="partial-0x7ff5b166a3e0.svg">
<text x="59.800000" y="400.000000" font-family="Arial" font-size="7" text-anchor="middle" fill="#FFFFFF">partial(11)</text>
</a>
<circle cx="36.000000" cy="388.000000" r="1"/>
<a xlink:href="partial-0x7ff5b1679080.svg">
<rect x="35.000000" y="419.000000" width="51.600000" height="24.000000" rx="0.1" ry="0.1" style="stroke:none;fill:#aaaaaa;;filter:url(#filter);"/>
<rect x="34.000000" y="418.000000" width="51.600000" height="24.000000" rx="0" ry="0" style="stroke:none;fill:#003366;"/>
</a>
<a xlink:href="partial-0x7ff5b1679080.svg">
<text x="59.800000" y="432.000000" font-family="Arial" font-size="7" text-anchor="middle" fill="#FFFFFF">partial(12)</text>
</a>
<circle cx="36.000000" cy="420.000000" r="1"/>
<a xlink:href="partial-0x7ff5b1687d20.svg">
<rect x="35.000000" y="451.000000" width="51.600000" height="24.000000" rx="0.1" ry="0.1" style="stroke:none;fill:#aaaaaa;;filter:url(#filter);"/>
<rect x="34.000000" y="450.000000" width="51.600000" height="24.000000" rx="0" ry="0" style="stroke:none;fill:#003366;"/>
</a>
<a xlink:href="partial-0x7ff5b1687d20.svg">
<text x="59.800000" y="464.000000" font-family="Arial" font-size="7" text-anchor="middle" fill="#FFFFFF">partial(13)</text>
</a>
<circle cx="36.000000" cy="452.000000" r="1"/>
<a xlink:href="partial-0x7ff5b16968f0.svg">
<rect x="35.000000" y="483.000000" width="51.600000" height="24.000000" rx="0.1" ry="0.1" style="stroke:none;fill:#aaaaaa;;filter:url(#filter);"/>
<rect x="34.000000" y="482.000000" width="51.600000" height="24.000000" rx="0" ry="0" style="stroke:none;fill:#003366;"/>
</a>
<a xlink:href="partial-0x7ff5b16968f0.svg">
<text x="59.800000" y="496.000000" font-family="Arial" font-size="7" text-anchor="middle" fill="#FFFFFF">partial(14)</text>
</a>
<circle cx="36.000000" cy="484.000000" r="1"/>
<a xlink:href="partial-0x7ff5b16a54a0.svg">
<rect x="35.000000" y="515.000000" width="51.600000" height="24.000000" rx="0.1" ry="0.1" style="stroke:none;fill:#aaaaaa;;filter:url(#filter);"/>
<rect x="34.000000" y="514.000000" width="51.600000" height="24.000000" rx="0" ry="0" style="stroke:none;fill:#003366;"/>
</a>
<a xlink:href="partial-0x7ff5b16a54a0.svg">
<text x="59.800000" y="528.000000" font-family="Arial" font-size="7" text-anchor="middle" fill="#FFFFFF">partial(15)</text>
</a>
<circle cx="36.000000" cy="516.000000" r="1"/>
<line x1="25.000000" y1="25.000000" x2="25.000000" y2="547.000000"  style="stroke: black; stroke-linecap:round; stroke-width:0.25; stroke-dasharray:3,3;"/>
<line x1="25.000000" y1="547.000000" x2="94.600000" y2="547.000000"  style="stroke: black; stroke-linecap:round; stroke-width:0.25; stroke-dasharray:3,3;"/>
<line x1="94.600000" y1="547.000000" x2="94.600000" y2="25.000000"  style="stroke: black; stroke-linecap:round; stroke-width:0.25; stroke-dasharray:3,3;"/>
<line x1="25.000000" y1="25.000000" x2="30.000000" y2="25.000000"  style="stroke: black; stroke-linecap:round; stroke-width:0.25; stroke-dasharray:3,3;"/>
<line x1="81.600000" y1="25.000000" x2="94.600000" y2="25.000000"  style="stroke: black; stroke-linecap:round; stroke-width:0.25; stroke-dasharray:3,3;"/>
<text x="30.000000" y="27.000000" font-family="Arial" font-size="7">hgroup(square)</text>
<a xlink:href="noise-0x7ff5b16a88c0.svg">
<rect x="37.900000" y="557.000000" width="25.800000" height="24.000000" rx="0.1" ry="0.1" style="stroke:none;fill:#aaaaaa;;filter:url(#filter);"/>
<rect x="36.900000" y="556.000000" width="25.800000" height="24.000000" rx="0" ry="0" style="stroke:none;fill:#003366;"/>
</a>
<a xlink:href="noise-0x7ff5b16a88c0.svg">
<text x="49.800000" y="570.000000" font-family="Arial" font-size="7" text-anchor="middle" fill="#FFFFFF">noise</text>
</a>
<circle cx="38.900000" cy="558.000000" r="1"/>
<rect x="305.600000" y="255.000000" width="180.600000" height="24.000000" rx="0.1" ry="0.1" style="stroke:none;fill:#aaaaaa;;filter:url(#filter);"/>
<rect x="304.600000" y="254.000000" width="180.600000" height="24.000000" rx="0" ry="0" style="stroke:none;fill:#477881;"/>
<text x="394.900000" y="268.000000" font-family="Arial" font-size="7" text-anchor="middle" fill="#FFFFFF">vslider(volume, 0.0f, 0.0f, 1.0f, 0.01f)</text>
<circle cx="306.600000" cy="256.000000" r="1"/>
<line x1="295.600000" y1="245.000000" x2="295.600000" y2="287.000000"  style="stroke: black; stroke-linecap:round; stroke-width:0.25; stroke-dasharray:3,3;"/>
<line x1="295.600000" y1="287.000000" x2="494.200000" y2="287.000000"  style="stroke: black; stroke-linecap:round; stroke-width:0.25; stroke-dasharray:3,3;"/>
<line x1="494.200000" y1="287.000000" x2="494.200000" y2="245.000000"  style="stroke: black; stroke-linecap:round; stroke-width:0.25; stroke-dasharray:3,3;"/>
<line x1="295.600000" y1="245.000000" x2="300.600000" y2="245.000000"  style="stroke: black; stroke-linecap:round; stroke-width:0.25; stroke-dasharray:3,3;"/>
<line x1="348.975000" y1="245.000000" x2="494.200000" y2="245.000000"  style="stroke: black; stroke-linecap:round; stroke-width:0.25; stroke-dasharray:3,3;"/>
<text x="300.600000" y="247.000000" font-family="Arial" font-size="7">hgroup(Noise)</text>
<line x1="285.600000" y1="235.000000" x2="285.600000" y2="297.000000"  style="stroke: black; stroke-linecap:round; stroke-width:0.25; stroke-dasharray:3,3;"/>
<line x1="285.600000" y1="297.000000" x2="504.200000" y2="297.000000"  style="stroke: black; stroke-linecap:round; stroke-width:0.25; stroke-dasharray:3,3;"/>
<line x1="504.200000" y1="297.000000" x2="504.200000" y2="235.000000"  style="stroke: black; stroke-linecap:round; stroke-width:0.25; stroke-dasharray:3,3;"/>
<line x1="285.600000" y1="235.000000" x2="290.600000" y2="235.000000"  style="stroke: black; stroke-linecap:round; stroke-width:0.25; stroke-dasharray:3,3;"/>
<line x1="326.075000" y1="235.000000" x2="504.200000" y2="235.000000"  style="stroke: black; stroke-linecap:round; stroke-width:0.25; stroke-dasharray:3,3;"/>
<text x="290.600000" y="237.000000" font-family="Arial" font-size="7">masterVol</text>
<rect x="522.200000" y="251.000000" width="24.000000" height="24.000000" rx="0.1" ry="0.1" style="stroke:none;fill:#aaaaaa;;filter:url(#filter);"/>
<rect x="521.200000" y="250.000000" width="24.000000" height="24.000000" rx="0" ry="0" style="stroke:none;fill:#4B71A1;"/>
<text x="533.200000" y="264.000000" font-family="Arial" font-size="7" text-anchor="middle" fill="#FFFFFF">*</text>
<circle cx="523.200000" cy="252.000000" r="1"/>
<line x1="518.200000" y1="257.000000" x2="521.200000" y2="258.000000"  transform="rotate(0.000000,521.200000,258.000000)" style="stroke: black; stroke-width:0.25;"/>
<line x1="518.200000" y1="259.000000" x2="521.200000" y2="258.000000"  transform="rotate(0.000000,521.200000,258.000000)" style="stroke: black; stroke-width:0.25;"/>
<line x1="518.200000" y1="265.000000" x2="521.200000" y2="266.000000"  transform="rotate(0.000000,521.200000,266.000000)" style="stroke: black; stroke-width:0.25;"/>
<line x1="518.200000" y1="267.000000" x2="521.200000" y2="266.000000"  transform="rotate(0.000000,521.200000,266.000000)" style="stroke: black; stroke-width:0.25;"/>
<rect x="305.600000" y="335.000000" width="180.600000" height="24.000000" rx="0.1" ry="0.1" style="stroke:none;fill:#aaaaaa;;filter:url(#filter);"/>
<rect x="304.600000" y="334.000000" width="180.600000" height="24.000000" rx="0" ry="0" style="stroke:none;fill:#477881;"/>
<text x="394.900000" y="348.000000" font-family="Arial" font-size="7" text-anchor="middle" fill="#FFFFFF">vslider(volume, 0.0f, 0.0f, 1.0f, 0.01f)</text>
<circle cx="306.600000" cy="336.000000" r="1"/>
<line x1="295.600000" y1="325.000000" x2="295.600000" y2="367.000000"  style="stroke: black; stroke-linecap:round; stroke-width:0.25; stroke-dasharray:3,3;"/>
<line x1="295.600000" y1="367.000000" x2="494.200000" y2="367.000000"  style="stroke: black; stroke-linecap:round; stroke-width:0.25; stroke-dasharray:3,3;"/>
<line x1="494.200000" y1="367.000000" x2="494.200000" y2="325.000000"  style="stroke: black; stroke-linecap:round; stroke-width:0.25; stroke-dasharray:3,3;"/>
<line x1="295.600000" y1="325.000000" x2="300.600000" y2="325.000000"  style="stroke: black; stroke-linecap:round; stroke-width:0.25; stroke-dasharray:3,3;"/>
<line x1="348.975000" y1="325.000000" x2="494.200000" y2="325.000000"  style="stroke: black; stroke-linecap:round; stroke-width:0.25; stroke-dasharray:3,3;"/>
<text x="300.600000" y="327.000000" font-family="Arial" font-size="7">hgroup(Noise)</text>
<line x1="285.600000" y1="315.000000" x2="285.600000" y2="377.000000"  style="stroke: black; stroke-linecap:round; stroke-width:0.25; stroke-dasharray:3,3;"/>
<line x1="285.600000" y1="377.000000" x2="504.200000" y2="377.000000"  style="stroke: black; stroke-linecap:round; stroke-width:0.25; stroke-dasharray:3,3;"/>
<line x1="504.200000" y1="377.000000" x2="504.200000" y2="315.000000"  style="stroke: black; stroke-linecap:round; stroke-width:0.25; stroke-dasharray:3,3;"/>
<line x1="285.600000" y1="315.000000" x2="290.600000" y2="315.000000"  style="stroke: black; stroke-linecap:round; stroke-width:0.25; stroke-dasharray:3,3;"/>
<line x1="326.075000" y1="315.000000" x2="504.200000" y2="315.000000"  style="stroke: black; stroke-linecap:round; stroke-width:0.25; stroke-dasharray:3,3;"/>
<text x="290.600000" y="317.000000" font-family="Arial" font-size="7">masterVol</text>
<rect x="522.200000" y="331.000000" width="24.000000" height="24.000000" rx="0.1" ry="0.1" style="stroke:none;fill:#aaaaaa;;filter:url(#filter);"/>
<rect x="521.200000" y="330.000000" width="24.000000" height="24.000000" rx="0" ry="0" style="stroke:none;fill:#4B71A1;"/>
<text x="533.200000" y="344.000000" font-family="Arial" font-size="7" text-anchor="middle" fill="#FFFFFF">*</text>
<circle cx="523.200000" cy="332.000000" r="1"/>
<line x1="518.200000" y1="337.000000" x2="521.200000" y2="338.000000"  transform="rotate(0.000000,521.200000,338.000000)" style="stroke: black; stroke-width:0.25;"/>
<line x1="518.200000" y1="339.000000" x2="521.200000" y2="338.000000"  transform="rotate(0.000000,521.200000,338.000000)" style="stroke: black; stroke-width:0.25;"/>
<line x1="518.200000" y1="345.000000" x2="521.200000" y2="346.000000"  transform="rotate(0.000000,521.200000,346.000000)" style="stroke: black; stroke-width:0.25;"/>
<line x1="518.200000" y1="347.000000" x2="521.200000" y2="346.000000"  transform="rotate(0.000000,521.200000,346.000000)" style="stroke: black; stroke-width:0.25;"/>
<line x1="15.000000" y1="15.000000" x2="15.000000" y2="589.000000"  style="stroke: black; stroke-linecap:round; stroke-width:0.25; stroke-dasharray:3,3;"/>
<line x1="15.000000" y1="589.000000" x2="570.200000" y2="589.000000"  style="stroke: black; stroke-linecap:round; stroke-width:0.25; stroke-dasharray:3,3;"/>
<line x1="570.200000" y1="589.000000" x2="570.200000" y2="15.000000"  style="stroke: black; stroke-linecap:round; stroke-width:0.25; stroke-dasharray:3,3;"/>
<line x1="15.000000" y1="15.000000" x2="20.000000" y2="15.000000"  style="stroke: black; stroke-linecap:round; stroke-width:0.25; stroke-dasharray:3,3;"/>
<line x1="49.025000" y1="15.000000" x2="570.200000" y2="15.000000"  style="stroke: black; stroke-linecap:round; stroke-width:0.25; stroke-dasharray:3,3;"/>
<text x="20.000000" y="17.000000" font-family="Arial" font-size="7">process</text>
<line x1="572.200000" y1="297.000000" x2="575.200000" y2="298.000000"  transform="rotate(0.000000,575.200000,298.000000)" style="stroke: black; stroke-width:0.25;"/>
<line x1="572.200000" y1="299.000000" x2="575.200000" y2="298.000000"  transform="rotate(0.000000,575.200000,298.000000)" style="stroke: black; stroke-width:0.25;"/>
<line x1="572.200000" y1="305.000000" x2="575.200000" y2="306.000000"  transform="rotate(0.000000,575.200000,306.000000)" style="stroke: black; stroke-width:0.25;"/>
<line x1="572.200000" y1="307.000000" x2="575.200000" y2="306.000000"  transform="rotate(0.000000,575.200000,306.000000)" style="stroke: black; stroke-width:0.25;"/>
<line x1="62.700000" y1="568.000000" x2="66.700000" y2="568.000000"  style="stroke:black; stroke-linecap:round; stroke-width:0.25;"/>
<line x1="66.700000" y1="568.000000" x2="78.700000" y2="564.000000"  style="stroke:black; stroke-linecap:round; stroke-width:0.25;"/>
<line x1="66.700000" y1="568.000000" x2="78.700000" y2="572.000000"  style="stroke:black; stroke-linecap:round; stroke-width:0.25;"/>
<line x1="78.700000" y1="564.000000" x2="82.700000" y2="564.000000"  style="stroke:black; stroke-linecap:round; stroke-width:0.25;"/>
<line x1="78.700000" y1="572.000000" x2="82.700000" y2="572.000000"  style="stroke:black; stroke-linecap:round; stroke-width:0.25;"/>
<line x1="82.700000" y1="564.000000" x2="86.700000" y2="564.000000"  style="stroke:black; stroke-linecap:round; stroke-width:0.25;"/>
<line x1="82.700000" y1="572.000000" x2="86.700000" y2="572.000000"  style="stroke:black; stroke-linecap:round; stroke-width:0.25;"/>
<line x1="85.600000" y1="42.000000" x2="89.600000" y2="42.000000"  style="stroke:black; stroke-linecap:round; stroke-width:0.25;"/>
<line x1="85.600000" y1="50.000000" x2="89.600000" y2="50.000000"  style="stroke:black; stroke-linecap:round; stroke-width:0.25;"/>
<line x1="85.600000" y1="74.000000" x2="89.600000" y2="74.000000"  style="stroke:black; stroke-linecap:round; stroke-width:0.25;"/>
<line x1="85.600000" y1="82.000000" x2="89.600000" y2="82.000000"  style="stroke:black; stroke-linecap:round; stroke-width:0.25;"/>
<line x1="85.600000" y1="106.000000" x2="89.600000" y2="106.000000"  style="stroke:black; stroke-linecap:round; stroke-width:0.25;"/>
<line x1="85.600000" y1="114.000000" x2="89.600000" y2="114.000000"  style="stroke:black; stroke-linecap:round; stroke-width:0.25;"/>
<line x1="85.600000" y1="138.000000" x2="89.600000" y2="138.000000"  style="stroke:black; stroke-linecap:round; stroke-width:0.25;"/>
<line x1="85.600000" y1="146.000000" x2="89.600000" y2="146.000000"  style="stroke:black; stroke-linecap:round; stroke-width:0.25;"/>
<line x1="85.600000" y1="170.000000" x2="89.600000" y2="170.000000"  style="stroke:black; stroke-linecap:round; stroke-width:0.25;"/>
<line x1="85.600000" y1="178.000000" x2="89.600000" y2="178.000000"  style="stroke:black; stroke-linecap:round; stroke-width:0.25;"/>
<line x1="85.600000" y1="202.000000" x2="89.600000" y2="202.000000"  style="stroke:black; stroke-linecap:round; stroke-width:0.25;"/>
<line x1="85.600000" y1="210.000000" x2="89.600000" y2="210.000000"  style="stroke:black; stroke-linecap:round; stroke-width:0.25;"/>
<line x1="85.600000" y1="234.000000" x2="89.600000" y2="234.000000"  style="stroke:black; stroke-linecap:round; stroke-width:0.25;"/>
<line x1="85.600000" y1="242.000000" x2="89.600000" y2="242.000000"  style="stroke:black; stroke-linecap:round; stroke-width:0.25;"/>
<line x1="85.600000" y1="266.000000" x2="89.600000" y2="266.000000"  style="stroke:black; stroke-linecap:round; stroke-width:0.25;"/>
<line x1="85.600000" y1="274.000000" x2="89.600000" y2="274.000000"  style="stroke:black; stroke-linecap:round; stroke-width:0.25;"/>
<line x1="85.600000" y1="298.000000" x2="89.600000" y2="298.000000"  style="stroke:black; stroke-linecap:round; stroke-width:0.25;"/>
<line x1="85.600000" y1="306.000000" x2="89.600000" y2="306.000000"  style="stroke:black; stroke-linecap:round; stroke-width:0.25;"/>
<line x1="85.600000" y1="330.000000" x2="89.600000" y2="330.000000"  style="stroke:black; stroke-linecap:round; stroke-width:0.25;"/>
<line x1="85.600000" y1="338.000000" x2="89.600000" y2="338.000000"  style="stroke:black; stroke-linecap:round; stroke-width:0.25;"/>
<line x1="85.600000" y1="362.000000" x2="89.600000" y2="362.000000"  style="stroke:black; stroke-linecap:round; stroke-width:0.25;"/>
<line x1="85.600000" y1="370.000000" x2="89.600000" y2="370.000000"  style="stroke:black; stroke-linecap:round; stroke-width:0.25;"/>
<line x1="85.600000" y1="394.000000" x2="89.600000" y2="394.000000"  style="stroke:black; stroke-linecap:round; stroke-width:0.25;"/>
<line x1="85.600000" y1="402.000000" x2="89.600000" y2="402.000000"  style="stroke:black; stroke-linecap:round; stroke-width:0.25;"/>
<line x1="85.600000" y1="426.000000" x2="89.600000" y2="426.000000"  style="stroke:black; stroke-linecap:round; stroke-width:0.25;"/>
<line x1="85.600000" y1="434.000000" x2="89.600000" y2="434.000000"  style="stroke:black; stroke-linecap:round; stroke-width:0.25;"/>
<line x1="85.600000" y1="458.000000" x2="89.600000" y2="458.000000"  style="stroke:black; stroke-linecap:round; stroke-width:0.25;"/>
<line x1="85.600000" y1="466.000000" x2="89.600000" y2="466.000000"  style="stroke:black; stroke-linecap:round; stroke-width:0.25;"/>
<line x1="85.600000" y1="490.000000" x2="89.600000" y2="490.000000"  style="stroke:black; stroke-linecap:round; stroke-width:0.25;"/>
<line x1="85.600000" y1="498.000000" x2="89.600000" y2="498.000000"  style="stroke:black; stroke-linecap:round; stroke-width:0.25;"/>
<line x1="85.600000" y1="522.000000" x2="89.600000" y2="522.000000"  style="stroke:black; stroke-linecap:round; stroke-width:0.25;"/>
<line x1="85.600000" y1="530.000000" x2="89.600000" y2="530.000000"  style="stroke:black; stroke-linecap:round; stroke-width:0.25;"/>
<line x1="86.700000" y1="564.000000" x2="99.600000" y2="564.000000"  style="stroke:black; stroke-linecap:round; stroke-width:0.25;"/>
<line x1="86.700000" y1="572.000000" x2="99.600000" y2="572.000000"  style="stroke:black; stroke-linecap:round; stroke-width:0.25;"/>
<line x1="89.600000" y1="42.000000" x2="99.600000" y2="42.000000"  style="stroke:black; stroke-linecap:round; stroke-width:0.25;"/>
<line x1="89.600000" y1="50.000000" x2="99.600000" y2="50.000000"  style="stroke:black; stroke-linecap:round; stroke-width:0.25;"/>
<line x1="89.600000" y1="74.000000" x2="99.600000" y2="74.000000"  style="stroke:black; stroke-linecap:round; stroke-width:0.25;"/>
<line x1="89.600000" y1="82.000000" x2="99.600000" y2="82.000000"  style="stroke:black; stroke-linecap:round; stroke-width:0.25;"/>
<line x1="89.600000" y1="106.000000" x2="99.600000" y2="106.000000"  style="stroke:black; stroke-linecap:round; stroke-width:0.25;"/>
<line x1="89.600000" y1="114.000000" x2="99.600000" y2="114.000000"  style="stroke:black; stroke-linecap:round; stroke-width:0.25;"/>
<line x1="89.600000" y1="138.000000" x2="99.600000" y2="138.000000"  style="stroke:black; stroke-linecap:round; stroke-width:0.25;"/>
<line x1="89.600000" y1="146.000000" x2="99.600000" y2="146.000000"  style="stroke:black; stroke-linecap:round; stroke-width:0.25;"/>
<line x1="89.600000" y1="170.000000" x2="99.600000" y2="170.000000"  style="stroke:black; stroke-linecap:round; stroke-width:0.25;"/>
<line x1="89.600000" y1="178.000000" x2="99.600000" y2="178.000000"  style="stroke:black; stroke-linecap:round; stroke-width:0.25;"/>
<line x1="89.600000" y1="202.000000" x2="99.600000" y2="202.000000"  style="stroke:black; stroke-linecap:round; stroke-width:0.25;"/>
<line x1="89.600000" y1="210.000000" x2="99.600000" y2="210.000000"  style="stroke:black; stroke-linecap:round; stroke-width:0.25;"/>
<line x1="89.600000" y1="234.000000" x2="99.600000" y2="234.000000"  style="stroke:black; stroke-linecap:round; stroke-width:0.25;"/>
<line x1="89.600000" y1="242.000000" x2="99.600000" y2="242.000000"  style="stroke:black; stroke-linecap:round; stroke-width:0.25;"/>
<line x1="89.600000" y1="266.000000" x2="99.600000" y2="266.000000"  style="stroke:black; stroke-linecap:round; stroke-width:0.25;"/>
<line x1="89.600000" y1="274.000000" x2="99.600000" y2="274.000000"  style="stroke:black; stroke-linecap:round; stroke-width:0.25;"/>
<line x1="89.600000" y1="298.000000" x2="99.600000" y2="298.000000"  style="stroke:black; stroke-linecap:round; stroke-width:0.25;"/>
<line x1="89.600000" y1="306.000000" x2="99.600000" y2="306.000000"  style="stroke:black; stroke-linecap:round; stroke-width:0.25;"/>
<line x1="89.600000" y1="330.000000" x2="99.600000" y2="330.000000"  style="stroke:black; stroke-linecap:round; stroke-width:0.25;"/>
<line x1="89.600000" y1="338.000000" x2="99.600000" y2="338.000000"  style="stroke:black; stroke-linecap:round; stroke-width:0.25;"/>
<line x1="89.600000" y1="362.000000" x2="99.600000" y2="362.000000"  style="stroke:black; stroke-linecap:round; stroke-width:0.25;"/>
<line x1="89.600000" y1="370.000000" x2="99.600000" y2="370.000000"  style="stroke:black; stroke-linecap:round; stroke-width:0.25;"/>
<line x1="89.600000" y1="394.000000" x2="99.600000" y2="394.000000"  style="stroke:black; stroke-linecap:round; stroke-width:0.25;"/>
<line x1="89.600000" y1="402.000000" x2="99.600000" y2="402.000000"  style="stroke:black; stroke-linecap:round; stroke-width:0.25;"/>
<line x1="89.600000" y1="426.000000" x2="99.600000" y2="426.000000"  style="stroke:black; stroke-linecap:round; stroke-width:0.25;"/>
<line x1="89.600000" y1="434.000000" x2="99.600000" y2="434.000000"  style="stroke:black; stroke-linecap:round; stroke-width:0.25;"/>
<line x1="89.600000" y1="458.000000" x2="99.600000" y2="458.000000"  style="stroke:black; stroke-linecap:round; stroke-width:0.25;"/>
<line x1="89.600000" y1="466.000000" x2="99.600000" y2="466.000000"  style="stroke:black; stroke-linecap:round; stroke-width:0.25;"/>
<line x1="89.600000" y1="490.000000" x2="99.600000" y2="490.000000"  style="stroke:black; stroke-linecap:round; stroke-width:0.25;"/>
<line x1="89.600000" y1="498.000000" x2="99.600000" y2="498.000000"  style="stroke:black; stroke-linecap:round; stroke-width:0.25;"/>
<line x1="89.600000" y1="522.000000" x2="99.600000" y2="522.000000"  style="stroke:black; stroke-linecap:round; stroke-width:0.25;"/>
<line x1="89.600000" y1="530.000000" x2="99.600000" y2="530.000000"  style="stroke:black; stroke-linecap:round; stroke-width:0.25;"/>
<line x1="99.600000" y1="42.000000" x2="280.600000" y2="226.000000"  style="stroke:black; stroke-linecap:round; stroke-width:0.25;"/>
<line x1="99.600000" y1="50.000000" x2="280.600000" y2="306.000000"  style="stroke:black; stroke-linecap:round; stroke-width:0.25;"/>
<line x1="99.600000" y1="74.000000" x2="280.600000" y2="226.000000"  style="stroke:black; stroke-linecap:round; stroke-width:0.25;"/>
<line x1="99.600000" y1="82.000000" x2="280.600000" y2="306.000000"  style="stroke:black; stroke-linecap:round; stroke-width:0.25;"/>
<line x1="99.600000" y1="106.000000" x2="280.600000" y2="226.000000"  style="stroke:black; stroke-linecap:round; stroke-width:0.25;"/>
<line x1="99.600000" y1="114.000000" x2="280.600000" y2="306.000000"  style="stroke:black; stroke-linecap:round; stroke-width:0.25;"/>
<line x1="99.600000" y1="138.000000" x2="280.600000" y2="226.000000"  style="stroke:black; stroke-linecap:round; stroke-width:0.25;"/>
<line x1="99.600000" y1="146.000000" x2="280.600000" y2="306.000000"  style="stroke:black; stroke-linecap:round; stroke-width:0.25;"/>
<line x1="99.600000" y1="170.000000" x2="280.600000" y2="226.000000"  style="stroke:black; stroke-linecap:round; stroke-width:0.25;"/>
<line x1="99.600000" y1="178.000000" x2="280.600000" y2="306.000000"  style="stroke:black; stroke-linecap:round; stroke-width:0.25;"/>
<line x1="99.600000" y1="202.000000" x2="280.600000" y2="226.000000"  style="stroke:black; stroke-linecap:round; stroke-width:0.25;"/>
<line x1="99.600000" y1="210.000000" x2="280.600000" y2="306.000000"  style="stroke:black; stroke-linecap:round; stroke-width:0.25;"/>
<line x1="99.600000" y1="234.000000" x2="280.600000" y2="226.000000"  style="stroke:black; stroke-linecap:round; stroke-width:0.25;"/>
<line x1="99.600000" y1="242.000000" x2="280.600000" y2="306.000000"  style="stroke:black; stroke-linecap:round; stroke-width:0.25;"/>
<line x1="99.600000" y1="266.000000" x2="280.600000" y2="226.000000"  style="stroke:black; stroke-linecap:round; stroke-width:0.25;"/>
<line x1="99.600000" y1="274.000000" x2="280.600000" y2="306.000000"  style="stroke:black; stroke-linecap:round; stroke-width:0.25;"/>
<line x1="99.600000" y1="298.000000" x2="280.600000" y2="226.000000"  style="stroke:black; stroke-linecap:round; stroke-width:0.25;"/>
<line x1="99.600000" y1="306.000000" x2="280.600000" y2="306.000000"  style="stroke:black; stroke-linecap:round; stroke-width:0.25;"/>
<line x1="99.600000" y1="330.000000" x2="280.600000" y2="226.000000"  style="stroke:black; stroke-linecap:round; stroke-width:0.25;"/>
<line x1="99.600000" y1="338.000000" x2="280.600000" y2="306.000000"  style="stroke:black; stroke-linecap:round; stroke-width:0.25;"/>
<line x1="99.600000" y1="362.000000" x2="280.600000" y2="226.000000"  style="stroke:black; stroke-linecap:round; stroke-width:0.25;"/>
<line x1="99.600000" y1="370.000000" x2="280.600000" y2="306.000000"  style="stroke:black; stroke-linecap:round; stroke-width:0.25;"/>
<line x1="99.600000" y1="394.000000" x2="280.600000" y2="226.000000"  style="stroke:black; stroke-linecap:round; stroke-width:0.25;"/>
<line x1="99.600000" y1="402.000000" x2="280.600000" y2="306.000000"  style="stroke:black; stroke-linecap:round; stroke-width:0.25;"/>
<line x1="99.600000" y1="426.000000" x2="280.600000" y2="226.000000"  style="stroke:black; stroke-linecap:round; stroke-width:0.25;"/>
<line x1="99.600000" y1="434.000000" x2="280.600000" y2="306.000000"  style="stroke:black; stroke-linecap:round; stroke-width:0.25;"/>
<line x1="99.600000" y1="458.000000" x2="280.600000" y2="226.000000"  style="stroke:black; stroke-linecap:round; stroke-width:0.25;"/>
<line x1="99.600000" y1="466.000000" x2="280.600000" y2="306.000000"  style="stroke:black; stroke-linecap:round; stroke-width:0.25;"/>
<line x1="99.600000" y1="490.000000" x2="280.600000" y2="226.000000"  style="stroke:black; stroke-linecap:round; stroke-width:0.25;"/>
<line x1="99.600000" y1="498.000000" x2="280.600000" y2="306.000000"  style="stroke:black; stroke-linecap:round; stroke-width:0.25;"/>
<line x1="99.600000" y1="522.000000" x2="280.600000" y2="226.000000"  style="stroke:black; stroke-linecap:round; stroke-width:0.25;"/>
<line x1="99.600000" y1="530.000000" x2="280.600000" y2="306.000000"  style="stroke:black; stroke-linecap:round; stroke-width:0.25;"/>
<line x1="99.600000" y1="564.000000" x2="280.600000" y2="226.000000"  style="stroke:black; stroke-linecap:round; stroke-width:0.25;"/>
<line x1="99.600000" y1="572.000000" x2="280.600000" y2="306.000000"  style="stroke:black; stroke-linecap:round; stroke-width:0.25;"/>
<line x1="280.600000" y1="226.000000" x2="394.900000" y2="226.000000"  style="stroke:black; stroke-linecap:round; stroke-width:0.25;"/>
<line x1="280.600000" y1="306.000000" x2="394.900000" y2="306.000000"  style="stroke:black; stroke-linecap:round; stroke-width:0.25;"/>
<line x1="394.900000" y1="226.000000" x2="509.200000" y2="226.000000"  style="stroke:black; stroke-linecap:round; stroke-width:0.25;"/>
<line x1="394.900000" y1="306.000000" x2="509.200000" y2="306.000000"  style="stroke:black; stroke-linecap:round; stroke-width:0.25;"/>
<line x1="485.200000" y1="266.000000" x2="489.200000" y2="266.000000"  style="stroke:black; stroke-linecap:round; stroke-width:0.25;"/>
<line x1="485.200000" y1="346.000000" x2="489.200000" y2="346.000000"  style="stroke:black; stroke-linecap:round; stroke-width:0.25;"/>
<line x1="489.200000" y1="266.000000" x2="499.200000" y2="266.000000"  style="stroke:black; stroke-linecap:round; stroke-width:0.25;"/>
<line x1="489.200000" y1="346.000000" x2="499.200000" y2="346.000000"  style="stroke:black; stroke-linecap:round; stroke-width:0.25;"/>
<line x1="499.200000" y1="266.000000" x2="509.200000" y2="266.000000"  style="stroke:black; stroke-linecap:round; stroke-width:0.25;"/>
<line x1="499.200000" y1="346.000000" x2="509.200000" y2="346.000000"  style="stroke:black; stroke-linecap:round; stroke-width:0.25;"/>
<line x1="509.200000" y1="226.000000" x2="517.200000" y2="226.000000"  style="stroke:black; stroke-linecap:round; stroke-width:0.25;"/>
<line x1="509.200000" y1="266.000000" x2="517.200000" y2="266.000000"  style="stroke:black; stroke-linecap:round; stroke-width:0.25;"/>
<line x1="509.200000" y1="306.000000" x2="517.200000" y2="306.000000"  style="stroke:black; stroke-linecap:round; stroke-width:0.25;"/>
<line x1="509.200000" y1="346.000000" x2="517.200000" y2="346.000000"  style="stroke:black; stroke-linecap:round; stroke-width:0.25;"/>
<line x1="517.200000" y1="226.000000" x2="517.200000" y2="258.000000"  style="stroke:black; stroke-linecap:round; stroke-width:0.25;"/>
<line x1="517.200000" y1="258.000000" x2="517.200000" y2="258.000000"  style="stroke:black; stroke-linecap:round; stroke-width:0.25;"/>
<line x1="517.200000" y1="258.000000" x2="521.200000" y2="258.000000"  style="stroke:black; stroke-linecap:round; stroke-width:0.25;"/>
<line x1="517.200000" y1="266.000000" x2="521.200000" y2="266.000000"  style="stroke:black; stroke-linecap:round; stroke-width:0.25;"/>
<line x1="517.200000" y1="306.000000" x2="517.200000" y2="338.000000"  style="stroke:black; stroke-linecap:round; stroke-width:0.25;"/>
<line x1="517.200000" y1="338.000000" x2="517.200000" y2="338.000000"  style="stroke:black; stroke-linecap:round; stroke-width:0.25;"/>
<line x1="517.200000" y1="338.000000" x2="521.200000" y2="338.000000"  style="stroke:black; stroke-linecap:round; stroke-width:0.25;"/>
<line x1="517.200000" y1="346.000000" x2="521.200000" y2="346.000000"  style="stroke:black; stroke-linecap:round; stroke-width:0.25;"/>
<line x1="545.200000" y1="262.000000" x2="549.200000" y2="262.000000"  style="stroke:black; stroke-linecap:round; stroke-width:0.25;"/>
<line x1="545.200000" y1="342.000000" x2="549.200000" y2="342.000000"  style="stroke:black; stroke-linecap:round; stroke-width:0.25;"/>
<line x1="549.200000" y1="262.000000" x2="557.200000" y2="262.000000"  style="stroke:black; stroke-linecap:round; stroke-width:0.25;"/>
<line x1="549.200000" y1="306.000000" x2="557.200000" y2="306.000000"  style="stroke:black; stroke-linecap:round; stroke-width:0.25;"/>
<line x1="549.200000" y1="342.000000" x2="549.200000" y2="306.000000"  style="stroke:black; stroke-linecap:round; stroke-width:0.25;"/>
<line x1="549.200000" y1="342.000000" x2="549.200000" y2="342.000000"  style="stroke:black; stroke-linecap:round; stroke-width:0.25;"/>
<line x1="557.200000" y1="262.000000" x2="557.200000" y2="298.000000"  style="stroke:black; stroke-linecap:round; stroke-width:0.25;"/>
<line x1="557.200000" y1="298.000000" x2="557.200000" y2="298.000000"  style="stroke:black; stroke-linecap:round; stroke-width:0.25;"/>
<line x1="557.200000" y1="298.000000" x2="561.200000" y2="298.000000"  style="stroke:black; stroke-linecap:round; stroke-width:0.25;"/>
<line x1="557.200000" y1="306.000000" x2="561.200000" y2="306.000000"  style="stroke:black; stroke-linecap:round; stroke-width:0.25;"/>
<line x1="561.200000" y1="298.000000" x2="565.200000" y2="298.000000"  style="stroke:black; stroke-linecap:round; stroke-width:0.25;"/>
<line x1="561.200000" y1="306.000000" x2="565.200000" y2="306.000000"  style="stroke:black; stroke-linecap:round; stroke-width:0.25;"/>
<line x1="565.200000" y1="298.000000" x2="575.200000" y2="298.000000"  style="stroke:black; stroke-linecap:round; stroke-width:0.25;"/>
<line x1="565.200000" y1="306.000000" x2="575.200000" y2="306.000000"  style="stroke:black; stroke-linecap:round; stroke-width:0.25;"/>
</svg>
